<svg width="359" height="251" viewBox="0 0 359 251" fill="none" xmlns="http://www.w3.org/2000/svg">
<path d="M23.4318 314.135C23.2403 318.241 28.309 323.301 36.3974 327.962H489.117C497.205 323.301 502.273 318.241 502.082 314.135C501.588 303.522 475.381 300.869 473.897 288.665C472.413 276.46 521.861 206.949 500.104 176.703C478.348 146.457 424.944 173.519 419.726 167.55C414.508 161.58 450.163 93.9255 414.56 67.9252C378.958 41.9249 302.809 81.1906 302.809 81.1906C299.246 82.3673 279.58 92.836 262.757 101.934C245.933 92.836 226.268 82.3673 222.705 81.1906C222.705 81.1906 146.556 41.9242 110.954 67.9252C75.3516 93.9255 111.006 161.58 105.788 167.55C100.57 173.519 47.1671 146.457 25.4098 176.703C3.65318 206.949 53.1009 276.46 51.6171 288.665C50.134 300.869 23.9267 303.522 23.4318 314.135Z" fill="#6D83D1"/>
<path opacity="0.7" d="M23.4318 314.135C23.2403 318.241 28.309 323.301 36.3974 327.962H489.117C497.205 323.301 502.273 318.241 502.082 314.135C501.588 303.522 475.381 300.869 473.897 288.665C472.413 276.46 521.861 206.949 500.104 176.703C478.348 146.457 424.944 173.519 419.726 167.55C414.508 161.58 450.163 93.9255 414.56 67.9252C378.958 41.9249 302.809 81.1906 302.809 81.1906C299.246 82.3673 279.58 92.836 262.757 101.934C245.933 92.836 226.268 82.3673 222.705 81.1906C222.705 81.1906 146.556 41.9242 110.954 67.9252C75.3516 93.9255 111.006 161.58 105.788 167.55C100.57 173.519 47.1671 146.457 25.4098 176.703C3.65318 206.949 53.1009 276.46 51.6171 288.665C50.134 300.869 23.9267 303.522 23.4318 314.135Z" fill="white"/>
<g opacity="0.15">
<path d="M105.121 251.673C102.519 252.751 96.2138 252.483 96.2089 252.483C96.1434 252.48 97.6471 248.369 97.771 248.12C99.2121 245.243 103.685 240.536 107.236 241.09C109.795 241.489 111.172 244.092 110.544 246.503C109.904 248.966 107.337 250.754 105.121 251.673Z" fill="black"/>
<path d="M102.581 269.953C99.8985 270.291 94.3007 268.542 93.8557 268.401C92.9038 271.544 91.6741 274.691 90.2537 277.808C89.4442 279.591 88.5727 281.361 87.677 283.124C88.2053 282.38 88.6837 281.718 88.7599 281.633C90.908 279.24 96.4609 275.885 99.7404 277.359C102.104 278.421 102.745 281.296 101.505 283.456C100.24 285.661 97.2911 286.706 94.913 287.005C92.4986 287.31 87.6969 285.914 86.431 285.528C86.08 286.201 85.7382 286.877 85.3843 287.548C83.6898 290.771 81.9852 293.98 80.4089 297.179C79.8528 298.305 79.3473 299.436 78.8361 300.565C79.306 299.905 79.7076 299.352 79.778 299.274C81.9262 296.882 87.4783 293.527 90.7585 295.001C93.1224 296.063 93.7639 298.939 92.5236 301.098C91.2569 303.303 88.3099 304.348 85.9312 304.647C83.6278 304.938 79.1835 303.69 77.6776 303.238C77.1892 304.41 76.6986 305.583 76.2779 306.741C76.0087 307.537 75.6933 308.286 75.4683 309.102C75.2269 309.904 74.9898 310.7 74.7535 311.486C74.3547 313.019 73.9332 314.597 73.5822 316.103C73.3295 317.147 73.1087 318.148 72.8823 319.155C73.4227 318.027 74.5271 315.84 74.6403 315.668C76.4017 312.977 81.3829 308.817 84.8489 309.776C87.3452 310.467 88.4139 313.212 87.5139 315.534C86.5955 317.906 83.8407 319.387 81.5346 320.044C78.9949 320.767 73.4213 319.95 72.7257 319.842C72.3583 321.51 72.0158 323.135 71.7175 324.675C71.4939 325.814 71.2889 326.909 71.1002 327.961L68.8624 327.916C69.0973 326.745 69.3522 325.521 69.6328 324.24C69.9994 322.545 70.4252 320.741 70.8802 318.894C70.4637 318.718 68.0991 317.703 66.0108 316.479C64.1318 318.439 59.3721 320.684 58.7562 320.969C59.3657 322.563 59.9752 324.109 60.5733 325.557C60.888 326.326 61.1941 327.05 61.4996 327.77L59.1329 327.723C58.9542 327.268 58.7769 326.823 58.5946 326.35C57.9681 324.733 57.3308 322.993 56.6929 321.2C56.0143 321.329 50.4607 322.345 47.894 321.711C45.5665 321.135 42.7612 319.752 41.7594 317.413C40.7797 315.124 41.7523 312.343 44.2236 311.565C47.6526 310.485 52.7762 314.468 54.6302 317.096C54.7399 317.251 55.7395 319.066 56.3511 320.221C56.0948 319.487 55.8378 318.777 55.5829 318.018C55.0681 316.522 54.5989 315.012 54.0884 313.39C53.8691 312.598 53.6476 311.799 53.4234 310.99C53.1848 310.193 53.0332 309.322 52.8324 308.481C52.4073 306.521 52.0727 304.514 51.7794 302.485C50.4714 302.933 45.8021 304.459 43.4034 304.242C41.0153 304.025 38.0342 303.085 36.6914 300.926C35.377 298.812 35.9181 295.915 38.2428 294.77C41.4696 293.182 47.1357 296.342 49.3657 298.657C49.5045 298.801 50.9186 300.644 51.6754 301.67C51.5088 300.449 51.3365 299.231 51.2083 297.99C50.8367 294.408 50.5718 290.77 50.2913 287.142C50.2066 286.03 50.1076 284.924 50.0136 283.816C49.5494 283.981 44.0399 285.915 41.3528 285.671C38.9655 285.455 35.9829 284.514 34.6408 282.355C33.3265 280.24 33.8676 277.344 36.1923 276.2C39.419 274.611 45.0851 277.771 47.3144 280.085C47.4824 280.26 49.5131 282.913 49.9965 283.613C49.7879 281.174 49.5579 278.745 49.234 276.358C48.7918 273.067 48.1759 269.861 47.3507 266.799C47.135 266.876 41.3927 268.92 38.6415 268.671C36.2535 268.455 33.2709 267.515 31.9288 265.356C30.6144 263.242 31.1556 260.346 33.4802 259.2C36.7077 257.612 42.3731 260.771 44.6031 263.087C44.7776 263.269 46.9613 266.124 47.3201 266.67C47.2703 266.488 47.2389 266.294 47.1877 266.113C46.2649 262.856 44.9634 259.817 43.6056 257.032C42.8203 255.412 41.978 253.907 41.1271 252.462C40.0962 252.953 35.3621 255.142 32.8608 255.193C30.4635 255.241 27.3962 254.635 25.8262 252.636C24.2876 250.679 24.5083 247.741 26.6935 246.348C29.7273 244.414 35.7045 246.93 38.1745 248.986C38.309 249.097 39.5486 250.386 40.4379 251.336C40.0442 250.689 39.6497 250.015 39.2596 249.404C37.8007 247.104 36.324 245.087 35.0011 243.312C34.2414 242.308 33.5344 241.416 32.8629 240.588C31.602 240.541 26.519 240.285 24.3161 239.195C22.1673 238.129 19.723 236.174 19.2474 233.675C18.7824 231.227 20.3282 228.721 22.9078 228.495C26.4884 228.179 30.6379 233.174 31.8854 236.141C31.9929 236.397 33.2197 240.601 33.1542 240.598C33.1542 240.598 33.0929 240.596 33.078 240.596C33.7394 241.38 34.4386 242.228 35.1848 243.169C36.549 244.919 38.0734 246.908 39.5871 249.186C41.1065 251.458 42.6928 253.97 44.1261 256.766C45.5665 259.567 46.9385 262.588 47.9509 265.883C47.9623 265.92 47.9694 265.96 47.9808 265.998C47.983 264.942 48.0876 261.989 48.1218 261.764C48.5974 258.581 51.3821 252.709 54.93 252.124C57.4853 251.703 59.6021 253.746 59.7559 256.233C59.9125 258.773 58.0293 261.274 56.2094 262.84C54.1574 264.606 48.5269 266.244 48.0784 266.373C49.014 269.52 49.7188 272.826 50.2493 276.211C50.554 278.146 50.8011 280.104 51.0246 282.071C51.056 281.158 51.0901 280.342 51.1079 280.228C51.5836 277.045 54.3682 271.174 57.9154 270.589C60.4707 270.167 62.5875 272.211 62.7406 274.698C62.898 277.238 61.0147 279.739 59.1948 281.305C57.3486 282.894 52.5761 284.387 51.308 284.765C51.3856 285.52 51.4718 286.274 51.5465 287.03C51.9061 290.656 52.2493 294.275 52.6943 297.815C52.8502 299.062 53.0503 300.285 53.2454 301.509C53.2738 300.699 53.3052 300.016 53.3201 299.913C53.7957 296.729 56.5804 290.858 60.1269 290.273C62.6829 289.852 64.7997 291.895 64.9542 294.383C65.1116 296.922 63.2269 299.423 61.4077 300.989C59.6463 302.506 55.2532 303.923 53.748 304.379C53.9859 305.627 54.2215 306.877 54.5085 308.076C54.7228 308.89 54.8723 309.687 55.1322 310.493C55.3735 311.296 55.6113 312.091 55.8477 312.877C56.3589 314.377 56.8759 315.926 57.4106 317.376C57.7751 318.387 58.1411 319.343 58.5063 320.308C58.3369 319.068 58.0549 316.634 58.0542 316.427C58.0478 314.289 58.873 310.828 60.4287 308.415C60.4259 308.099 60.4501 307.785 60.5063 307.473C60.9492 305.021 63.2896 303.24 65.7787 303.958C69.2333 304.954 71.3152 311.112 71.4156 314.328C71.422 314.518 71.2568 316.584 71.1315 317.887C71.3223 317.133 71.4968 316.399 71.7018 315.625C72.0963 314.092 72.5356 312.574 73.0012 310.937C73.2533 310.156 73.5096 309.367 73.7673 308.568C74.0059 307.772 74.3597 306.962 74.6545 306.149C75.3786 304.28 76.2031 302.42 77.0753 300.566C75.7367 300.216 71.0041 298.905 69.123 297.397C67.2497 295.896 65.2803 293.462 65.3487 290.918C65.4156 288.427 67.4597 286.311 70.0286 286.642C73.5943 287.102 76.5826 292.872 77.1686 296.037C77.2049 296.235 77.3708 298.552 77.4377 299.828C77.9703 298.717 78.4964 297.606 79.0725 296.5C80.7328 293.306 82.5128 290.125 84.275 286.944C84.8154 285.97 85.3416 284.994 85.8728 284.017C85.395 283.897 79.7353 282.461 77.6285 280.772C75.756 279.272 73.7859 276.838 73.8542 274.294C73.9211 271.803 75.9653 269.687 78.5342 270.019C82.0999 270.479 85.0881 276.248 85.6741 279.413C85.7183 279.651 85.9518 282.988 85.9703 283.839C87.1387 281.689 88.2829 279.536 89.3253 277.367C90.7671 274.376 92.0173 271.362 93.0127 268.352C92.7898 268.297 86.8767 266.824 84.7186 265.095C82.8453 263.594 80.8759 261.16 80.945 258.616C81.0112 256.125 83.0561 254.009 85.625 254.341C89.19 254.801 92.1782 260.57 92.7642 263.736C92.8105 263.984 93.0597 267.574 93.059 268.227C93.1181 268.048 93.1992 267.869 93.2555 267.69C94.2772 264.462 94.8639 261.207 95.2633 258.133C95.499 256.347 95.6243 254.627 95.7098 252.951C94.5805 252.789 89.4271 251.997 87.3131 250.656C85.2868 249.37 83.0625 247.167 82.8517 244.632C82.646 242.149 84.4459 239.819 87.0348 239.867C90.6289 239.931 94.2309 245.337 95.1601 248.418C95.2106 248.586 95.5367 250.346 95.7553 251.632C95.7817 250.875 95.8244 250.094 95.8351 249.368C95.8835 246.642 95.7617 244.143 95.635 241.931C95.5531 240.673 95.4534 239.537 95.3495 238.477C94.3235 237.739 90.2252 234.714 88.9885 232.586C87.7809 230.508 86.819 227.527 87.7973 225.178C88.7557 222.879 91.4235 221.645 93.6991 222.882C96.8596 224.601 97.5716 231.062 96.9814 234.227C96.9294 234.499 95.6407 238.683 95.5866 238.646C95.5866 238.646 95.5367 238.611 95.5246 238.602C95.645 239.621 95.7617 240.716 95.8664 241.914C96.0416 244.127 96.2188 246.63 96.2281 249.368C96.2452 252.103 96.1868 255.076 95.8436 258.201C95.5033 261.334 94.9871 264.613 94.018 267.921C94.0067 267.958 93.9903 267.996 93.9796 268.033C94.5627 267.154 96.2751 264.749 96.4275 264.58C98.5749 262.187 104.128 258.832 107.408 260.306C109.771 261.369 110.413 264.243 109.173 266.403C107.906 268.609 104.959 269.654 102.581 269.953Z" fill="black"/>
<path d="M41.2852 251.795C41.2289 251.829 40.2214 247.568 40.188 247.292C39.8085 244.096 40.9491 237.696 44.2165 236.192C46.5696 235.109 49.1492 236.519 49.9523 238.878C50.7726 241.286 49.6148 244.198 48.2727 246.19C46.6956 248.528 41.2887 251.793 41.2852 251.795Z" fill="black"/>
</g>
<path d="M440.907 58.8874C440.907 58.8874 426.318 41.7122 410.459 41.7122C394.601 41.7122 392.699 51.8902 387.623 58.2513C382.549 64.6123 376.206 56.3427 369.228 58.8874C362.251 61.4321 362.251 65.8846 357.811 69.0655C353.371 72.2464 348.295 66.5208 340.05 67.157C331.803 67.7931 327.363 75.4265 327.363 75.4265H468.818C468.818 75.4265 463.11 62.0683 455.498 60.796C447.885 59.5236 447.885 63.9768 440.907 58.8874Z" stroke="#263238" stroke-miterlimit="10" stroke-linecap="round" stroke-linejoin="round"/>
<path d="M343.221 46.0212C343.221 46.0212 335.238 36.6235 326.561 36.6235C317.884 36.6235 316.843 42.1927 314.066 45.6728C311.289 49.1535 307.818 44.6289 304 46.0205C300.183 47.4128 300.183 49.849 297.753 51.5897C295.323 53.3297 292.546 50.1974 288.035 50.5458C283.523 50.8943 281.093 55.0704 281.093 55.0704H358.493C358.493 55.0704 355.369 47.7612 351.204 47.0651C347.039 46.3696 347.039 48.8058 343.221 46.0212Z" stroke="#263238" stroke-miterlimit="10" stroke-linecap="round" stroke-linejoin="round"/>
<path d="M154.225 58.7041C154.225 58.7041 140.648 42.7205 125.889 42.7205C111.132 42.7205 109.36 52.1924 104.638 58.1122C99.9149 64.0319 94.0117 56.3364 87.5182 58.7041C81.0248 61.0717 81.0248 65.2157 76.8923 68.176C72.7599 71.1362 68.0379 65.8084 60.3633 66.4003C52.6893 66.9922 48.5569 74.0958 48.5569 74.0958H180.198C180.198 74.0958 174.885 61.6643 167.801 60.4805C160.718 59.2967 160.718 63.44 154.225 58.7041Z" stroke="#263238" stroke-miterlimit="10" stroke-linecap="round" stroke-linejoin="round"/>
<path d="M130.109 168.504L133.958 191.08C133.958 191.08 129.725 195.711 126.646 196.482C123.567 197.254 120.104 195.132 118.949 192.238C117.795 189.343 116.64 169.662 116.64 169.662C116.64 169.662 125.876 170.24 130.109 168.504Z" fill="#263238" stroke="#263238" stroke-miterlimit="10" stroke-linecap="round" stroke-linejoin="round"/>
<path d="M83.1608 197.833L93.7432 230.634L105.095 266.331C105.095 266.331 95.2819 285.048 94.1277 287.941C92.9736 290.836 92.0109 292.765 92.0109 292.765C92.0109 292.765 104.133 300.676 120.104 301.835C136.074 302.993 144.732 299.905 144.732 299.905C144.732 299.905 147.619 283.504 147.619 270.962C147.619 258.42 140.692 227.547 137.998 217.513C135.305 207.479 131.071 193.201 131.071 193.201L98.3605 184.518C98.3605 184.518 84.6994 179.888 83.1608 197.833Z" fill="#6D83D1" stroke="#263238" stroke-miterlimit="10" stroke-linecap="round" stroke-linejoin="round"/>
<path d="M83.1608 197.833L90.9942 222.112C91.2683 222.127 91.5431 222.136 91.8208 222.136C101.612 222.136 109.548 212.814 109.548 201.315C109.548 195.236 107.329 189.767 103.791 185.959L98.362 184.519C98.362 184.519 84.6994 179.888 83.1608 197.833Z" fill="white" stroke="#263238" stroke-miterlimit="10" stroke-linecap="round" stroke-linejoin="round"/>
<path d="M118.949 169.855C118.949 169.855 117.987 181.818 118.564 184.519C119.142 187.22 123.952 194.938 123.567 197.254C123.182 199.569 113.946 194.359 111.252 189.535C108.558 184.712 105.672 165.223 105.672 165.223L118.949 169.855Z" fill="white" stroke="#263238" stroke-miterlimit="10" stroke-linecap="round" stroke-linejoin="round"/>
<path d="M127.993 127.983C127.993 127.983 132.803 141.876 134.15 148.437C135.497 154.997 133.958 161.751 130.109 168.504C126.261 175.257 120.296 172.748 119.527 172.556C118.757 172.363 106.25 167.732 105.288 166.96C104.326 166.188 95.4755 136.666 95.4755 136.666C95.4755 136.666 104.904 130.299 111.831 128.948C118.758 127.597 126.647 126.44 126.647 126.44L127.993 127.983Z" fill="white" stroke="#263238" stroke-miterlimit="10" stroke-linecap="round" stroke-linejoin="round"/>
<path d="M122.22 137.824C122.22 137.824 123.374 143.227 124.337 144.963C125.299 146.699 129.533 151.91 128.955 152.295C128.378 152.681 124.145 154.032 124.145 154.032" stroke="#263238" stroke-miterlimit="10" stroke-linecap="round" stroke-linejoin="round"/>
<path d="M113.754 157.312C113.754 157.312 116.255 161.557 123.182 159.435" stroke="#263238" stroke-miterlimit="10" stroke-linecap="round" stroke-linejoin="round"/>
<path d="M115.486 137.824C115.486 137.824 109.906 138.596 108.367 141.876" stroke="#263238" stroke-miterlimit="10" stroke-linecap="round" stroke-linejoin="round"/>
<path d="M109.196 141.314C108.593 141.314 108.104 140.848 108.104 140.274C108.104 139.945 108.267 139.655 108.519 139.465C108.516 139.465 108.513 139.464 108.509 139.464C107.639 139.464 106.933 140.135 106.933 140.963C106.933 141.792 107.639 142.463 108.509 142.463C109.38 142.463 110.086 141.792 110.086 140.963C110.086 140.936 110.079 140.911 110.077 140.885C109.879 141.143 109.559 141.314 109.196 141.314Z" fill="white" stroke="#263238" stroke-miterlimit="10" stroke-linecap="round" stroke-linejoin="round"/>
<path d="M123.952 136.28C123.952 136.28 126.261 133.772 129.147 135.122" stroke="#263238" stroke-miterlimit="10" stroke-linecap="round" stroke-linejoin="round"/>
<path d="M115.678 146.218C115.678 147.336 115.161 148.244 114.524 148.244C113.886 148.244 113.37 147.337 113.37 146.218C113.37 145.099 113.887 144.192 114.524 144.192C115.161 144.191 115.678 145.099 115.678 146.218Z" fill="#263238"/>
<path d="M128.57 142.84C128.57 143.959 128.053 144.867 127.416 144.867C126.778 144.867 126.262 143.96 126.262 142.84C126.262 141.721 126.779 140.814 127.416 140.814C128.053 140.815 128.57 141.721 128.57 142.84Z" fill="#263238"/>
<path d="M101.055 133.385C101.055 133.385 109.521 176.8 112.792 187.412C116.063 198.025 116.255 212.689 116.255 212.689C116.255 212.689 98.7457 191.079 92.2031 189.535C85.6613 187.992 83.5445 195.903 84.5064 201.305C85.4683 206.708 93.7425 230.634 93.7425 230.634C93.7425 230.634 84.6994 231.214 77.7723 226.196C70.8453 221.18 66.9969 214.233 69.3059 202.848C71.6149 191.464 75.4633 169.853 75.8478 160.205C76.233 150.558 76.233 146.699 76.233 146.699C76.233 146.699 90.4723 134.157 101.055 133.385Z" fill="#263238" stroke="#263238" stroke-miterlimit="10" stroke-linecap="round" stroke-linejoin="round"/>
<path d="M125.491 121.23C125.491 121.23 122.22 116.02 111.637 112.933C101.054 109.846 87.5851 110.232 84.5071 109.846C81.4284 109.46 76.8104 108.495 75.6563 111.775C74.5021 115.055 76.6182 118.335 76.6182 119.301C76.6182 120.265 73.3472 130.492 73.9247 137.246C74.5021 143.999 74.5021 143.999 74.5021 143.999C74.5021 143.999 93.551 130.106 103.364 127.404C113.177 124.703 118.18 123.16 118.95 123.16C119.719 123.159 125.491 121.23 125.491 121.23Z" fill="#6D83D1" stroke="#263238" stroke-miterlimit="10" stroke-linecap="round" stroke-linejoin="round"/>
<path d="M76.2337 153.067C76.2337 153.067 97.2071 131.649 128.186 129.913C128.186 129.913 129.147 130.877 129.533 129.913C129.917 128.948 127.993 124.317 127.031 122.002C126.069 119.686 125.877 119.879 123.568 119.879C121.259 119.879 105.289 123.159 94.3214 127.79C83.3537 132.421 74.8873 141.49 74.5028 143.999C74.1184 146.507 74.1184 148.437 74.3106 150.559C74.5021 152.682 75.0788 153.453 76.2337 153.067Z" fill="#6D83D1" stroke="#263238" stroke-miterlimit="10" stroke-linecap="round" stroke-linejoin="round"/>
<path d="M78.2117 139.321C78.2117 139.321 79.6157 144.349 79.8165 145.757" stroke="#263238" stroke-miterlimit="10" stroke-linecap="round" stroke-linejoin="round"/>
<path d="M81.6215 137.309L82.6247 142.136" stroke="#263238" stroke-miterlimit="10" stroke-linecap="round" stroke-linejoin="round"/>
<path d="M98.8711 126.648L100.075 130.269" stroke="#263238" stroke-miterlimit="10" stroke-linecap="round" stroke-linejoin="round"/>
<path d="M113.112 124.436L115.519 130.873" stroke="#263238" stroke-miterlimit="10" stroke-linecap="round" stroke-linejoin="round"/>
<path d="M119.33 121.62L120.133 124.436" stroke="#263238" stroke-miterlimit="10" stroke-linecap="round" stroke-linejoin="round"/>
<path d="M145.31 149.787C145.31 149.787 140.307 148.436 140.692 152.681C141.076 156.926 144.732 160.013 147.426 161.364C150.119 162.715 150.119 162.715 150.119 162.715L154.93 177.573C154.93 177.573 166.859 176.608 174.171 176.608C181.482 176.608 185.908 176.608 185.908 176.608L186.678 164.066C186.678 164.066 188.409 159.242 188.602 158.084C188.794 156.926 188.794 154.997 188.794 154.997C188.794 154.997 192.257 147.858 191.295 143.612C190.333 139.367 187.447 138.981 185.907 140.139C184.368 141.297 182.251 144.963 182.251 144.963L176.479 160.206L162.048 163.679L145.31 149.787Z" fill="white" stroke="#263238" stroke-miterlimit="10" stroke-linecap="round" stroke-linejoin="round"/>
<path d="M146.079 119.3C146.079 119.3 137.806 130.492 139.152 135.315C140.5 140.139 145.502 153.068 147.234 155.961C148.965 158.856 156.854 165.995 157.624 166.574C158.394 167.153 173.641 165.119 174.411 164.732C175.18 164.347 181.06 161.768 181.06 161.768C181.06 161.768 186.486 149.207 186.679 146.699C186.871 144.19 186.679 134.736 186.679 134.736C186.679 134.736 180.137 119.685 174.942 115.633C169.746 111.581 167.63 111.195 160.511 110.617C153.392 110.038 154.546 113.125 154.546 113.125C154.546 113.125 142.039 111.581 142.616 114.09C143.194 116.598 147.234 116.984 147.234 116.984C147.234 116.984 141.654 118.142 142.232 118.528C142.809 118.914 146.079 119.3 146.079 119.3Z" fill="#263238" stroke="#263238" stroke-miterlimit="10" stroke-linecap="round" stroke-linejoin="round"/>
<path d="M151.275 175.643L145.695 184.905C145.695 184.905 154.739 182.01 167.63 181.432C180.522 180.853 191.489 182.011 191.489 182.011C191.489 182.011 188.218 174.293 186.294 173.907C184.37 173.52 158.972 171.012 151.275 175.643Z" fill="white" stroke="#263238" stroke-miterlimit="10" stroke-linecap="round" stroke-linejoin="round"/>
<path d="M115.293 251.281C115.293 251.281 89.8948 240.669 88.9329 239.511C87.971 238.353 84.1226 229.284 84.1226 229.284C84.1226 229.284 80.082 227.548 78.9272 226.004C77.773 224.46 74.3091 221.373 73.5395 222.917C72.7698 224.46 73.5395 226.583 74.5014 227.741C75.4633 228.899 77.7723 231.6 77.7723 231.6C77.7723 231.6 70.653 228.899 66.8046 228.32C62.9563 227.741 57.3763 229.091 57.3763 230.442C57.3763 231.793 58.3383 232.372 59.6854 232.758C61.0325 233.144 62.3789 233.915 62.3789 233.915L65.0723 239.511C65.0723 239.511 73.1536 248.579 75.4626 249.158C77.7716 249.738 80.8503 250.317 82.9663 251.088C85.0824 251.86 106.825 267.875 106.825 267.875L111.828 271.348L117.023 252.631L115.293 251.281Z" fill="white" stroke="#263238" stroke-miterlimit="10" stroke-linecap="round" stroke-linejoin="round"/>
<path d="M62.3795 233.915C62.3795 233.915 66.8053 236.038 68.7291 237.388L62.3795 233.915Z" fill="white"/>
<path d="M62.3795 233.915C62.3795 233.915 66.8053 236.038 68.7291 237.388" stroke="#263238" stroke-miterlimit="10" stroke-linecap="round" stroke-linejoin="round"/>
<path d="M65.0737 239.511C65.0737 239.511 69.3066 242.406 70.8459 243.177L65.0737 239.511Z" fill="white"/>
<path d="M65.0737 239.511C65.0737 239.511 69.3066 242.406 70.8459 243.177" stroke="#263238" stroke-miterlimit="10" stroke-linecap="round" stroke-linejoin="round"/>
<path d="M115.293 251.281C115.293 251.281 112.984 250.896 112.022 253.404C111.06 255.912 108.559 266.139 109.136 268.84C109.713 271.542 116.64 278.682 126.261 277.331C135.881 275.98 138.19 269.805 138.576 268.069C138.961 266.332 138.768 260.929 138.768 260.929C138.768 260.929 131.649 263.63 127.8 263.245C123.952 262.858 115.871 253.596 115.293 251.281Z" fill="white" stroke="#263238" stroke-miterlimit="10" stroke-linecap="round" stroke-linejoin="round"/>
<path d="M323.093 259.017C323.093 259.017 320.522 283.989 321.646 286.889C322.771 289.789 343.175 297.361 359.563 295.589C375.95 293.817 392.498 289.789 395.23 287.372C397.961 284.956 399.246 283.183 398.925 281.573C398.604 279.961 392.98 245.645 392.98 245.645C392.98 245.645 395.551 216.322 392.338 201.178C389.125 186.033 387.037 175.399 383.662 173.305C380.288 171.21 369.685 169.761 367.436 169.922C365.187 170.083 332.894 180.394 332.894 180.394L325.664 182.971C325.664 182.971 311.526 189.899 311.205 192.96C310.884 196.021 319.078 232.433 319.238 240.166C319.397 247.9 323.093 259.017 323.093 259.017Z" fill="#6D83D1" stroke="#263238" stroke-miterlimit="10" stroke-linecap="round" stroke-linejoin="round"/>
<path d="M234.013 178.537L223.623 182.01C223.623 182.01 213.232 185.29 212.847 186.254C212.463 187.219 223.815 225.424 224.585 228.705C225.354 231.985 232.473 259.77 232.473 259.77L226.124 293.923C226.124 293.923 250.753 303.957 270.379 302.992C290.005 302.027 309.632 295.081 309.632 295.081L305.013 267.488C305.013 267.488 304.821 231.406 302.512 216.934C300.203 202.463 295.778 192.043 293.469 188.57C291.16 185.097 283.271 180.852 278.845 179.308C274.42 177.764 267.685 176.8 266.916 176.8C266.146 176.8 234.013 178.537 234.013 178.537Z" fill="#263238" stroke="#263238" stroke-miterlimit="10" stroke-linecap="round" stroke-linejoin="round"/>
<path d="M334.982 219.866L329.198 268.844C329.198 268.844 327.27 271.744 325.985 272.228C324.7 272.711 308.633 273.517 295.62 272.55C282.607 271.583 260.274 267.877 260.274 267.877C260.274 267.877 253.527 269.006 246.939 268.361C240.352 267.716 230.713 264.494 230.713 264.011C230.713 263.528 243.245 242.744 245.815 243.067C248.385 243.389 251.599 245.484 258.186 250.478C264.773 255.472 264.773 255.15 265.577 255.15C266.38 255.15 278.59 255.634 282.767 255.15C286.944 254.667 307.669 250.478 307.669 250.478L310.401 202.788C310.401 202.788 308.954 192.316 309.436 189.739C309.919 187.161 325.663 182.972 325.663 182.972L331.125 181.683L340.926 184.261L342.854 187.967" fill="#6D83D1"/>
<path d="M334.982 219.866L329.198 268.844C329.198 268.844 327.27 271.744 325.985 272.228C324.7 272.711 308.633 273.517 295.62 272.55C282.607 271.583 260.274 267.877 260.274 267.877C260.274 267.877 253.527 269.006 246.939 268.361C240.352 267.716 230.713 264.494 230.713 264.011C230.713 263.528 243.245 242.744 245.815 243.067C248.385 243.389 251.599 245.484 258.186 250.478C264.773 255.472 264.773 255.15 265.577 255.15C266.38 255.15 278.59 255.634 282.767 255.15C286.944 254.667 307.669 250.478 307.669 250.478L310.401 202.788C310.401 202.788 308.954 192.316 309.436 189.739C309.919 187.161 325.663 182.972 325.663 182.972L331.125 181.683L340.926 184.261L342.854 187.967" stroke="#263238" stroke-miterlimit="10" stroke-linecap="round" stroke-linejoin="round"/>
<path d="M290.331 253.864C286.958 254.492 284.064 255 282.767 255.15C278.59 255.633 266.38 255.15 265.577 255.15C264.773 255.15 264.773 255.472 258.186 250.477C251.599 245.483 248.385 243.389 245.815 243.066C243.245 242.744 230.713 263.527 230.713 264.01C230.713 264.494 240.353 267.716 246.939 268.361C253.527 269.006 260.274 267.877 260.274 267.877C260.274 267.877 277.854 270.794 290.908 272.126C286.22 264.64 288.324 257.732 290.331 253.864Z" fill="white" stroke="#263238" stroke-miterlimit="10" stroke-linecap="round" stroke-linejoin="round"/>
<path d="M145.695 184.905C145.695 184.905 126.069 190.693 126.069 191.465C126.069 192.237 113.947 254.947 113.369 256.105C112.792 257.262 117.602 266.332 125.107 267.875C132.611 269.419 137.806 264.016 137.806 264.016L140.307 259.964L143.194 273.085L140.115 309.168C140.115 309.168 151.467 319.974 179.175 319.202C206.883 318.43 220.16 311.483 222.853 309.554C225.547 307.624 226.509 303.959 226.509 303.959L219.967 268.841C219.967 268.841 222.854 272.313 228.434 269.612C234.014 266.911 278.296 214.062 279.678 212.501C281.06 210.94 283.553 208.365 283.553 208.365C283.553 208.365 290.483 206.019 292.982 204.808C295.481 203.598 299.224 200.418 300.092 199.76C300.96 199.101 303.332 200.211 304.391 199.579C305.449 198.947 304.031 197.97 303.184 197.073C302.336 196.175 301.151 192.114 300.002 190.59C298.853 189.067 298.685 187.485 298.685 187.485C298.685 187.485 298.621 185.138 297.774 184.241C296.927 183.343 294.153 183.736 294.153 183.736C294.153 183.736 284.475 186.284 283.771 187.16C283.067 188.036 270.488 207.323 270.488 207.323L233.435 230.798C233.435 230.798 217.274 203.428 212.271 196.482C207.269 189.535 196.108 184.904 196.108 184.904L191.49 182.01C191.49 182.01 164.359 177.187 145.695 184.905Z" fill="white" stroke="#263238" stroke-miterlimit="10" stroke-linecap="round" stroke-linejoin="round"/>
<path d="M219.967 268.84C219.967 268.84 215.088 266.585 207.845 255.719C201.339 245.96 188.219 227.74 188.219 227.74" fill="white"/>
<path d="M219.967 268.84C219.967 268.84 215.088 266.585 207.845 255.719C201.339 245.96 188.219 227.74 188.219 227.74" stroke="#263238" stroke-miterlimit="10" stroke-linecap="round" stroke-linejoin="round"/>
<path d="M240.856 248.465C241.09 249.31 241.261 250.097 241.347 250.797L240.856 248.465Z" fill="white"/>
<path d="M240.856 248.465C241.09 249.31 241.261 250.097 241.347 250.797" stroke="#263238" stroke-miterlimit="10" stroke-linecap="round" stroke-linejoin="round"/>
<path d="M233.766 232.598C233.766 232.598 237.41 239.117 239.667 244.952L233.766 232.598Z" fill="white"/>
<path d="M233.766 232.598C233.766 232.598 237.41 239.117 239.667 244.952" stroke="#263238" stroke-miterlimit="10" stroke-linecap="round" stroke-linejoin="round"/>
<path d="M160.318 243.177C160.318 243.177 168.844 254.205 179.757 261.962L160.318 243.177Z" fill="white"/>
<path d="M160.318 243.177C160.318 243.177 168.844 254.205 179.757 261.962" stroke="#263238" stroke-miterlimit="10" stroke-linecap="round" stroke-linejoin="round"/>
<path d="M140.307 259.964L135.881 246.457" stroke="#263238" stroke-miterlimit="10" stroke-linecap="round" stroke-linejoin="round"/>
<path d="M161.473 249.738C161.473 249.738 171.093 261.315 176.866 264.402L161.473 249.738Z" fill="white"/>
<path d="M161.473 249.738C161.473 249.738 171.093 261.315 176.866 264.402" stroke="#263238" stroke-miterlimit="10" stroke-linecap="round" stroke-linejoin="round"/>
<path d="M127.993 220.794C127.993 220.794 109.521 198.025 103.364 191.272C97.2063 184.519 91.4342 179.309 85.469 181.239C79.5039 183.168 76.8104 191.658 81.4284 198.412C86.0465 205.165 116.833 243.177 120.489 245.878C124.145 248.58 127.416 248.773 128.378 248.387C129.34 248.001 182.253 199.762 182.253 199.762C182.253 199.762 188.411 198.411 189.565 197.254C190.72 196.096 194.953 188.763 195.722 188.378C196.492 187.992 199.185 187.606 200.148 187.027C201.111 186.448 200.34 184.904 199.186 184.519C198.032 184.133 195.53 182.782 195.53 182.782C195.53 182.782 194.375 180.274 192.836 180.081C191.296 179.888 186.678 179.117 186.678 179.117C186.678 179.117 185.331 175.836 183.792 176.608C182.253 177.38 179.751 178.924 178.02 183.555C176.288 188.186 174.941 192.624 174.171 194.553C173.402 196.482 127.993 220.794 127.993 220.794Z" fill="white" stroke="#263238" stroke-miterlimit="10" stroke-linecap="round" stroke-linejoin="round"/>
<path d="M166.868 199.328L173.738 207.517C175.258 206.134 176.625 204.889 177.799 203.82L171.998 196.213C170.729 197.034 168.964 198.101 166.868 199.328Z" fill="#263238" stroke="#263238" stroke-miterlimit="10" stroke-linecap="round" stroke-linejoin="round"/>
<path d="M229.78 180.08C229.78 180.08 213.81 184.519 210.923 187.412C208.037 190.307 177.444 218.864 177.444 218.864C177.444 218.864 154.931 211.339 150.698 208.058C146.465 204.778 141.654 200.147 141.654 200.147C141.654 200.147 142.424 190.306 141.654 189.342C140.885 188.377 139.538 185.869 137.422 183.939C135.305 182.01 132.996 182.395 132.226 183.36C131.456 184.324 131.072 185.675 131.072 185.675C131.072 185.675 126.646 184.517 124.915 185.675C123.183 186.833 123.375 188.763 123.375 189.92C123.375 191.077 121.258 196.866 120.874 198.988C120.489 201.11 122.991 204.005 125.876 205.935C128.763 207.865 133.765 210.373 135.497 211.338C137.229 212.302 165.129 237.387 165.129 237.387C165.129 237.387 168.4 240.281 173.595 240.088C176.102 239.996 217.658 216.162 217.658 216.162L226.509 212.689" fill="#263238"/>
<path d="M229.78 180.08C229.78 180.08 213.81 184.519 210.923 187.412C208.037 190.307 177.444 218.864 177.444 218.864C177.444 218.864 154.931 211.339 150.698 208.058C146.465 204.778 141.654 200.147 141.654 200.147C141.654 200.147 142.424 190.306 141.654 189.342C140.885 188.377 139.538 185.869 137.422 183.939C135.305 182.01 132.996 182.395 132.226 183.36C131.456 184.324 131.072 185.675 131.072 185.675C131.072 185.675 126.646 184.517 124.915 185.675C123.183 186.833 123.375 188.763 123.375 189.92C123.375 191.077 121.258 196.866 120.874 198.988C120.489 201.11 122.991 204.005 125.876 205.935C128.763 207.865 133.765 210.373 135.497 211.338C137.229 212.302 165.129 237.387 165.129 237.387C165.129 237.387 168.4 240.281 173.595 240.088C176.102 239.996 217.658 216.162 217.658 216.162L226.509 212.689" stroke="#263238" stroke-miterlimit="10" stroke-linecap="round" stroke-linejoin="round"/>
<path d="M150.697 208.059C146.465 204.779 141.654 200.148 141.654 200.148C141.654 200.148 142.423 190.307 141.654 189.342C140.884 188.378 139.537 185.869 137.421 183.939C135.304 182.01 132.995 182.396 132.225 183.36C131.456 184.325 131.071 185.676 131.071 185.676C131.071 185.676 126.645 184.518 124.914 185.676C123.182 186.833 123.374 188.763 123.374 189.921C123.374 191.078 121.258 196.867 120.873 198.99C120.489 201.113 122.99 204.006 125.876 205.936C128.762 207.866 133.765 210.375 135.496 211.339C136.158 211.708 140.64 215.597 145.926 220.263C146.325 218.837 146.917 216.988 147.811 214.619C149.076 211.267 150.383 209.488 151.414 208.545C151.143 208.376 150.895 208.212 150.697 208.059Z" fill="white" stroke="#263238" stroke-miterlimit="10" stroke-linecap="round" stroke-linejoin="round"/>
<path d="M149.158 205.551C149.158 205.551 146.079 205.165 143.193 209.024C140.306 212.883 137.997 217.514 137.997 217.514L148.388 223.302C148.388 223.302 148.388 219.443 151.274 215.777C154.161 212.11 157.046 210.76 157.046 210.76L149.158 205.551Z" fill="#6D83D1" stroke="#263238" stroke-miterlimit="10" stroke-linecap="round" stroke-linejoin="round"/>
<path d="M262.875 117.563C262.875 117.563 260.566 111.389 254.794 109.845C249.022 108.301 248.059 108.494 249.022 110.23C249.984 111.967 252.678 114.669 252.678 114.669C252.678 114.669 243.634 111.968 239.594 113.511C235.553 115.054 237.477 117.563 237.477 117.563C237.477 117.563 229.396 120.457 224.392 125.281C219.39 130.105 214.002 138.98 214.579 140.331C215.156 141.682 218.812 139.752 218.812 139.752C218.812 139.752 213.809 152.487 214.963 154.224C216.117 155.96 218.812 154.031 218.812 154.031C218.812 154.031 215.156 173.133 219.004 176.8C222.852 180.466 223.43 178.15 223.43 178.15C223.43 178.15 229.01 184.903 236.514 187.026C244.018 189.149 245.558 186.641 245.558 186.641C245.558 186.641 244.981 190.307 247.482 189.921C249.983 189.535 257.102 185.482 257.102 185.482C257.102 185.482 256.718 189.534 260.951 187.798C265.184 186.062 271.341 184.903 277.883 177.379C284.425 169.853 285.579 159.241 285.579 159.241C285.579 159.241 286.541 163.1 287.888 160.977C289.236 158.855 291.352 152.102 290.197 146.891C289.043 141.681 288.85 140.331 288.85 140.331C288.85 140.331 292.507 140.717 292.507 138.595C292.507 136.472 287.888 128.561 280.961 123.544C274.034 118.528 265.761 118.142 265.761 118.142C265.761 118.142 268.262 115.054 266.531 115.054C264.799 115.055 262.875 117.563 262.875 117.563Z" fill="#525252" stroke="#263238" stroke-miterlimit="10" stroke-linecap="round" stroke-linejoin="round"/>
<path d="M286.927 182.975C286.927 182.975 297.894 189.535 304.628 199.569C311.363 209.603 329.257 239.511 329.257 239.511L352.347 240.668L353.886 253.211C353.886 253.211 321.945 263.051 318.289 262.665C314.633 262.28 284.425 221.566 283.078 220.794" fill="#263238"/>
<path d="M286.927 182.975C286.927 182.975 297.894 189.535 304.628 199.569C311.363 209.603 329.257 239.511 329.257 239.511L352.347 240.668L353.886 253.211C353.886 253.211 321.945 263.051 318.289 262.665C314.633 262.28 284.425 221.566 283.078 220.794" stroke="#263238" stroke-miterlimit="10" stroke-linecap="round" stroke-linejoin="round"/>
<path d="M352.347 240.668C352.347 240.668 357.543 239.897 360.621 238.353C363.699 236.809 365.623 234.301 366.393 233.336C367.163 232.372 366.733 231.793 369.235 230.249C371.736 228.705 373.94 227.384 374.71 226.419C375.479 225.454 376.131 225.276 376.131 227.399C376.131 229.521 373.319 231.6 372.935 232.178C372.55 232.757 372.165 233.915 372.165 233.915L384.287 233.529C384.287 233.529 388.713 232.95 389.097 233.336C389.482 233.723 388.905 234.687 388.327 235.073C387.75 235.458 384.567 235.86 384.567 235.86L381.371 236.394L382.436 237.373L390.429 236.75C390.429 236.75 391.051 237.195 390.874 237.73C390.696 238.264 390.696 238.264 390.696 238.264C390.696 238.264 383.502 239.867 383.147 239.956C382.792 240.045 381.992 240.134 381.992 240.134C381.992 240.134 384.39 241.292 386.166 241.292C387.942 241.292 390.251 241.292 390.251 241.737C390.251 242.183 390.429 242.361 389.807 242.628C389.185 242.895 385.366 243.073 384.123 243.162C382.88 243.251 382.525 243.34 382.169 243.34C381.814 243.34 386.521 245.032 387.321 245.032C388.12 245.032 388.564 245.745 388.031 246.19C387.499 246.635 386.699 246.724 386.699 246.724C386.699 246.724 382.436 245.922 381.815 245.922C381.193 245.922 371.335 246.456 369.381 246.545C367.427 246.635 367.427 246.635 367.427 246.635L364.585 246.368L358.99 249.663L357.125 250.731L352.347 240.668Z" fill="white" stroke="#263238" stroke-miterlimit="10" stroke-linecap="round" stroke-linejoin="round"/>
<path d="M340.61 239.704C340.61 239.704 344.843 249.93 344.843 252.439C344.843 254.947 345.035 258.034 345.035 258.034C345.035 258.034 349.076 257.262 353.116 256.877C357.157 256.491 359.274 255.14 359.274 255.14C359.274 255.14 359.274 247.422 356.965 243.756C354.656 240.09 353.694 238.933 353.694 238.933L340.61 239.704Z" fill="#6D83D1" stroke="#263238" stroke-miterlimit="10" stroke-linecap="round" stroke-linejoin="round"/>
<path d="M312.329 127.066C312.329 127.066 307.991 136.733 310.4 142.371C312.811 148.01 312.168 148.171 311.847 149.943C311.525 151.715 307.187 156.388 307.83 157.677C308.473 158.965 312.329 159.771 312.329 159.771C312.329 159.771 316.506 169.76 319.076 172.339C321.647 174.916 324.539 172.983 324.539 172.983L328.234 171.855L331.126 178.461L356.35 168.472L349.602 157.195C349.602 157.195 353.137 154.456 352.173 144.145C351.209 133.834 336.91 122.717 327.753 122.395C318.595 122.073 313.935 124.166 312.329 127.066Z" fill="white" stroke="#263238" stroke-miterlimit="10" stroke-linecap="round" stroke-linejoin="round"/>
<path d="M316.666 161.06C316.666 161.06 320.2 161.222 322.289 157.354" stroke="#263238" stroke-miterlimit="10" stroke-linecap="round" stroke-linejoin="round"/>
<path d="M316.973 148.737C317.173 149.831 316.946 150.789 316.466 150.877C315.986 150.966 315.434 150.15 315.234 149.057C315.034 147.963 315.261 147.004 315.741 146.916C316.222 146.827 316.773 147.643 316.973 148.737Z" fill="#263238"/>
<path d="M313.293 145.11C313.293 145.11 314.257 142.049 317.47 143.821" stroke="#263238" stroke-miterlimit="10" stroke-linecap="round" stroke-linejoin="round"/>
<path d="M314.256 126.743C314.256 126.743 307.026 130.61 308.954 133.188C310.882 135.765 318.433 129.644 318.433 129.644C318.433 129.644 315.541 132.866 318.433 135.605C321.325 138.344 326.627 140.439 326.627 140.439C326.627 140.439 328.073 144.144 329.037 143.661C330.001 143.177 331.125 139.472 331.125 139.472C331.125 139.472 337.07 136.571 338.355 143.016C339.64 149.461 339.64 151.716 338.194 153.005C336.748 154.294 333.857 154.455 333.857 154.455C333.857 154.455 335.303 157.355 339.48 160.416C343.657 163.477 347.353 163.316 349.28 162.027C351.208 160.738 353.618 159.127 354.742 157.838C355.867 156.549 357.153 153.327 357.153 153.327C357.153 153.327 365.667 143.821 364.221 133.188C362.775 122.554 356.992 121.265 356.992 121.265C356.992 121.265 353.135 109.182 340.925 105.959C328.715 102.737 322.61 105.637 322.771 107.57C322.932 109.504 324.056 110.148 324.056 110.148C324.056 110.148 314.898 109.503 309.115 114.981C303.331 120.459 302.688 124.809 304.295 126.098C305.902 127.388 314.256 126.743 314.256 126.743Z" fill="#263238" stroke="#263238" stroke-miterlimit="10" stroke-linecap="round" stroke-linejoin="round"/>
<path d="M329.84 175.4C329.84 175.4 325.021 181.844 325.663 182.971C326.306 184.1 336.588 183.938 336.588 183.938C336.588 183.938 356.349 206.816 358.92 207.461C361.49 208.106 372.255 201.338 373.861 199.083C375.468 196.827 377.235 193.605 375.146 185.066C373.058 176.528 369.523 167.021 367.756 165.249C365.988 163.477 359.241 163.961 357.956 164.927C356.671 165.894 355.546 167.344 355.546 167.344C355.546 167.344 335.142 174.594 334.66 174.755C334.178 174.916 329.84 175.4 329.84 175.4Z" fill="#6D83D1" stroke="#263238" stroke-miterlimit="10" stroke-linecap="round" stroke-linejoin="round"/>
<path d="M334.661 174.755C334.661 174.755 344.139 176.849 347.032 178.622C349.924 180.394 366.632 198.278 368.078 199.244C369.524 200.211 371.934 196.827 371.934 196.827" stroke="#263238" stroke-miterlimit="10" stroke-linecap="round" stroke-linejoin="round"/>
<path d="M356.349 168.472C356.349 168.472 361.973 166.699 363.097 167.505C364.221 168.31 367.435 173.466 367.113 178.138C366.792 182.811 363.097 188.772 363.097 188.772" stroke="#263238" stroke-miterlimit="10" stroke-linecap="round" stroke-linejoin="round"/>
<path d="M349.763 180.394C349.763 180.394 358.438 182.166 361.491 180.716C364.543 179.266 365.186 175.399 365.186 175.399" stroke="#263238" stroke-miterlimit="10" stroke-linecap="round" stroke-linejoin="round"/>
<path d="M303.183 197.073C302.336 196.175 301.15 192.114 300.002 190.591C298.853 189.067 298.684 187.485 298.684 187.485C298.684 187.485 298.62 185.138 297.773 184.241C296.926 183.343 294.152 183.736 294.152 183.736C294.152 183.736 284.474 186.284 283.77 187.161C283.066 188.037 270.487 207.323 270.487 207.323L240.555 226.286C243.082 229.2 247.211 234.063 248.94 236.66C250.39 238.838 252.422 241.488 253.21 243.27C266.447 228.77 278.946 213.327 279.678 212.5C281.06 210.94 283.553 208.365 283.553 208.365C283.553 208.365 290.483 206.019 292.982 204.808C295.481 203.598 299.223 200.418 300.092 199.76C300.96 199.101 303.332 200.211 304.39 199.579C305.449 198.947 304.03 197.97 303.183 197.073Z" fill="white" stroke="#263238" stroke-miterlimit="10" stroke-linecap="round" stroke-linejoin="round"/>
<path d="M236.663 228.521C236.663 228.521 247.184 239.697 250.778 247.405L257.957 239.054C257.957 239.054 252.121 229.116 248.818 226.318C245.515 223.52 244.231 223.171 244.231 223.171L236.663 228.521Z" fill="white" stroke="#263238" stroke-miterlimit="10" stroke-linecap="round" stroke-linejoin="round"/>
<path d="M298.683 187.485C298.683 187.485 296.068 186.731 294.845 187.145L298.683 187.485Z" fill="white"/>
<path d="M298.683 187.485C298.683 187.485 296.068 186.731 294.845 187.145" stroke="#263238" stroke-miterlimit="10" stroke-linecap="round" stroke-linejoin="round"/>
<path d="M303.183 197.073C303.183 197.073 300.727 195.172 299.096 195.724L303.183 197.073Z" fill="white"/>
<path d="M303.183 197.073C303.183 197.073 300.727 195.172 299.096 195.724" stroke="#263238" stroke-miterlimit="10" stroke-linecap="round" stroke-linejoin="round"/>
<path d="M234.641 55.8245H177.562C174.231 55.8245 171.531 58.5327 171.531 61.8728V93.6679C171.531 97.008 174.231 99.7162 177.562 99.7162H194.122L189.292 113.711L202.73 99.7162H234.641C237.972 99.7162 240.672 97.008 240.672 93.6679V61.8735C240.672 58.5327 237.972 55.8245 234.641 55.8245Z" fill="#263238" stroke="#263238" stroke-miterlimit="10" stroke-linecap="round" stroke-linejoin="round"/>
<path d="M233.372 53.2805H176.293C172.962 53.2805 170.262 55.9887 170.262 59.3288V91.1239C170.262 94.464 172.962 97.1722 176.293 97.1722H192.854L188.023 111.167L201.462 97.1722H233.372C236.703 97.1722 239.403 94.464 239.403 91.1239V59.3288C239.403 55.9887 236.703 53.2805 233.372 53.2805Z" fill="white" stroke="#263238" stroke-miterlimit="10" stroke-linecap="round" stroke-linejoin="round"/>
<path d="M194.049 75.5444C194.049 77.3009 192.629 78.7246 190.877 78.7246C189.126 78.7246 187.706 77.3009 187.706 75.5444C187.706 73.788 189.126 72.3643 190.877 72.3643C192.629 72.3635 194.049 73.7873 194.049 75.5444Z" fill="#263238"/>
<path d="M208.004 75.5444C208.004 77.3009 206.584 78.7246 204.832 78.7246C203.081 78.7246 201.661 77.3009 201.661 75.5444C201.661 73.788 203.081 72.3643 204.832 72.3643C206.584 72.3635 208.004 73.7873 208.004 75.5444Z" fill="#263238"/>
<path d="M221.959 75.5444C221.959 77.3009 220.54 78.7246 218.787 78.7246C217.036 78.7246 215.616 77.3009 215.616 75.5444C215.616 73.788 217.036 72.3643 218.787 72.3643C220.54 72.3635 221.959 73.7873 221.959 75.5444Z" fill="#263238"/>
</svg>
