<svg width="347" height="247" viewBox="0 0 347 247" fill="none" xmlns="http://www.w3.org/2000/svg">
<path d="M226.691 47.5999C226.691 47.5999 173.415 28.6564 121.12 58.8158C68.8245 88.976 42.4371 148.846 19.7776 196.805C-2.88195 244.763 10.1609 293.546 50.0816 315.789C90.0024 338.032 117.148 305.243 173.15 303.646C229.153 302.05 244.215 310.056 290.686 278.419C337.157 246.783 345.557 172.067 308.899 116.783C272.241 61.4994 226.691 47.5999 226.691 47.5999Z" fill="#E39292"/>
<path opacity="0.7" d="M226.691 47.5999C226.691 47.5999 173.415 28.6564 121.12 58.8158C68.8245 88.976 42.4371 148.846 19.7776 196.805C-2.88195 244.763 10.1609 293.546 50.0816 315.789C90.0024 338.032 117.148 305.243 173.15 303.646C229.153 302.05 244.215 310.056 290.686 278.419C337.157 246.783 345.557 172.067 308.899 116.783C272.241 61.4994 226.691 47.5999 226.691 47.5999Z" fill="white"/>
<path d="M333.052 216.04H14.2708V218.944H333.052V216.04Z" fill="#263238"/>
<path d="M258.784 217.754V27.0459" stroke="#263238" stroke-miterlimit="10" stroke-linecap="round" stroke-linejoin="round"/>
<path d="M114.818 217.754V28.0471" stroke="#263238" stroke-miterlimit="10" stroke-linecap="round" stroke-linejoin="round"/>
<path d="M22.9125 138.738H321.545" stroke="#263238" stroke-miterlimit="10" stroke-linecap="round" stroke-linejoin="round"/>
<path d="M156.845 109.168L153.121 111.463" stroke="#263238" stroke-width="0.5" stroke-miterlimit="10" stroke-linecap="round" stroke-linejoin="round"/>
<path d="M219.623 70.4792L161.849 106.084" stroke="#263238" stroke-width="0.5" stroke-miterlimit="10" stroke-linecap="round" stroke-linejoin="round"/>
<path d="M227.246 72.8853L180.959 101.411" stroke="#263238" stroke-width="0.5" stroke-miterlimit="10" stroke-linecap="round" stroke-linejoin="round"/>
<path d="M247.461 60.4265L233.481 69.0419" stroke="#263238" stroke-width="0.5" stroke-miterlimit="10" stroke-linecap="round" stroke-linejoin="round"/>
<path d="M303.722 163.885C303.722 163.885 304.057 205.759 304.057 216.813C304.057 227.868 303.722 294.099 303.722 294.099" stroke="#263238" stroke-width="3" stroke-miterlimit="10" stroke-linecap="round" stroke-linejoin="round"/>
<path d="M328.847 174.605L318.462 165.894L338.588 170.29L321.812 160.87L339.258 157.226L318.462 156.18L341.576 138.76L315.447 151.825L330.521 126.031L310.422 149.145L317.457 115.311L304.393 146.8L303.053 111.626L300.373 147.47L286.118 115.805L296.018 150.485L274.696 127.226L293.338 155.845L266.946 137.016L291.663 160.87L263.683 145.582L289.318 162.88L266.13 159.859L288.648 166.229L270.617 169.241L289.318 168.575L278.264 175.944L304.393 168.91L328.847 174.605Z" fill="#E39292"/>
<path d="M293.673 206.094C293.673 206.094 292.668 214.803 293.338 218.153C294.008 221.503 294.343 225.523 294.343 229.878C294.343 234.232 294.678 252.741 294.678 255.756C294.678 258.771 294.343 284.384 294.343 286.729C294.343 289.074 294.343 290.749 294.343 292.088C294.343 293.428 294.343 294.768 294.343 294.768" stroke="#263238" stroke-width="3" stroke-miterlimit="10" stroke-linecap="round" stroke-linejoin="round"/>
<path d="M294.678 252.406C294.678 252.406 296.018 226.863 297.358 223.513C298.698 220.163 299.703 221.168 300.038 217.148C300.373 213.128 300.373 211.454 301.043 210.113C301.713 208.774 302.383 206.428 302.383 206.428L303.053 203.748" stroke="#263238" stroke-width="3" stroke-miterlimit="10" stroke-linecap="round" stroke-linejoin="round"/>
<path d="M318.462 214.803L308.078 206.093L337.221 209.443L311.427 201.068L337.891 196.378H308.078L331.191 178.959L305.063 192.024L320.137 166.229L300.038 189.344L307.072 155.51L294.008 186.999L292.668 151.825L289.988 187.669L279.603 155.175L285.634 190.684L267.209 164.22L282.953 196.044L258.788 180.254L281.279 201.068L256.341 190.86L278.934 203.078L255.525 201.057L278.264 206.428L262.459 210.032L278.934 208.773L267.879 216.143L294.008 209.108L318.462 214.803Z" fill="#E39292"/>
<path d="M319.154 272.239L308.77 263.53L337.913 266.879L312.119 258.504L338.583 253.815H308.77L331.883 236.396L305.755 249.46L320.829 223.665L300.73 246.78L307.764 212.946L294.7 244.435L293.36 209.261L290.68 245.105L280.296 212.611L286.326 248.12L267.901 221.656L283.645 253.48L259.48 237.69L281.971 258.504L257.033 248.296L279.626 260.514L256.217 258.493L278.956 263.864L263.151 267.468L279.626 266.209L268.571 273.579L294.7 266.544L319.154 272.239Z" fill="#E39292"/>
<path d="M306.766 253.88C306.766 253.88 301.48 260.677 299.403 266.907C297.326 273.137 283.167 291.073 283.167 291.073L286.376 297.681C286.376 297.681 305.633 279.745 309.787 275.403C313.941 271.06 327.345 255.579 327.534 254.258C327.723 252.936 322.059 243.308 322.059 243.308L306.766 253.88Z" fill="white" stroke="#263238" stroke-miterlimit="10" stroke-linecap="round" stroke-linejoin="round"/>
<path d="M313.42 250.861L323.069 245.599L322.058 243.308L312.543 250.686L313.42 250.861Z" fill="#263238" stroke="#263238" stroke-miterlimit="10" stroke-linecap="round" stroke-linejoin="round"/>
<path d="M278.961 150.643C278.961 150.643 290.48 153.638 293.706 154.79C296.931 155.943 290.711 164.697 290.711 164.697L277.348 164.006L278.961 150.643Z" fill="white" stroke="#263238" stroke-miterlimit="10" stroke-linecap="round" stroke-linejoin="round"/>
<path d="M244.173 222.294C244.173 222.294 239.335 241.185 237.953 249.94C236.57 258.694 235.188 271.365 235.188 271.365C235.188 271.365 242.791 273.669 251.776 272.748C260.761 271.826 264.217 269.753 264.217 269.753L271.07 239.356L275.506 232.661L298.314 259.386C298.314 259.386 309.142 253.856 313.98 250.17C318.818 246.484 323.656 242.798 323.656 242.798C323.656 242.798 307.99 220.911 302.691 215.842C297.392 210.774 290.941 205.705 290.941 205.705L246.246 219.759L244.173 222.294Z" fill="#E39292" stroke="#263238" stroke-miterlimit="10" stroke-linecap="round" stroke-linejoin="round"/>
<path d="M275.505 232.661L279.212 224.358L277.712 231.643L286.069 225L278.141 235.714L275.505 232.661Z" fill="#263238" stroke="#263238" stroke-miterlimit="10" stroke-linecap="round" stroke-linejoin="round"/>
<path d="M296.997 256.07C296.997 256.07 311.353 247.714 320.139 240" stroke="#263238" stroke-miterlimit="10" stroke-linecap="round" stroke-linejoin="round"/>
<path d="M283.569 195.339C283.109 194.417 277.81 181.055 277.81 181.055C277.81 181.055 278.04 178.06 278.04 173.452C278.04 168.844 277.119 165.388 277.119 165.388C277.119 165.388 281.035 162.162 282.417 160.32C283.8 158.476 285.643 152.256 285.643 152.256C285.643 152.256 279.422 150.183 277.119 149.722C274.815 149.261 270.437 148.339 266.751 148.8C263.065 149.261 256.153 152.256 256.153 152.256L254.54 146.957C254.54 146.957 246.937 142.81 244.172 142.349C241.408 141.888 237.03 141.888 236.569 142.81C236.109 143.732 242.329 157.785 242.329 157.785C242.329 157.785 238.421 159.395 234.989 161.396C233.09 162.087 227.394 162.308 225.179 163.919C222.645 165.762 221.134 171.839 222.055 172.76C222.976 173.682 225.971 172.991 225.971 172.991L236.417 179.164C240.332 184.506 246.015 197.265 246.015 200.407C246.015 203.633 243.712 223.676 243.712 223.676C243.712 223.676 261.681 224.829 272.51 219.76C283.338 214.691 291.862 205.706 291.862 205.706C291.862 205.706 284.03 196.26 283.569 195.339Z" fill="#263238" stroke="#263238" stroke-miterlimit="10" stroke-linecap="round" stroke-linejoin="round"/>
<path d="M266.751 148.8C263.065 149.261 256.153 152.256 256.153 152.256L254.54 146.958C254.54 146.958 246.937 142.81 244.172 142.35C241.408 141.889 237.03 141.889 236.569 142.81C236.109 143.732 242.329 157.785 242.329 157.785C242.329 157.785 239.909 158.783 237.205 160.182C240.56 162.939 246.247 165.866 253.618 163.084C263.234 159.455 268.847 151.829 270.799 148.751C269.445 148.65 268.055 148.637 266.751 148.8Z" fill="white" stroke="#263238" stroke-miterlimit="10" stroke-linecap="round" stroke-linejoin="round"/>
<path d="M241.932 146.854C241.932 146.854 245.405 149.306 247.856 150.327C250.307 151.348 255.617 151.144 255.617 151.144L254.541 146.958L241.932 146.854Z" fill="#263238" stroke="#263238" stroke-miterlimit="10" stroke-linecap="round" stroke-linejoin="round"/>
<path d="M225.972 172.992C225.972 172.992 234.496 170.227 236.34 170.918C238.183 171.61 251.775 192.114 251.084 192.805C250.393 193.496 241.638 200.408 241.638 200.408C241.638 200.408 232.884 187.506 228.737 181.286C224.59 175.065 225.972 172.992 225.972 172.992Z" fill="white" stroke="#263238" stroke-miterlimit="10" stroke-linecap="round" stroke-linejoin="round"/>
<path d="M237.722 194.648C237.722 194.648 242.593 202.195 243.482 202.251C244.37 202.307 254.387 192.989 258.27 189.451C262.153 185.913 273.668 169.599 273.668 169.599C273.668 169.599 275.395 169.031 277.807 167.368C280.219 165.705 281.86 160.642 281.86 160.642C281.86 160.642 284.551 154.537 284.87 153.389C285.188 152.24 284.732 148.736 283.996 149.674C283.261 150.612 281.105 153.582 279.163 155.613C277.22 157.643 270.906 165.234 270.906 165.234C270.906 165.234 244.237 186.816 243.61 187.023" fill="white"/>
<path d="M237.722 194.648C237.722 194.648 242.593 202.195 243.482 202.251C244.37 202.307 254.387 192.989 258.27 189.451C262.153 185.913 273.668 169.599 273.668 169.599C273.668 169.599 275.395 169.031 277.807 167.368C280.219 165.706 281.86 160.642 281.86 160.642C281.86 160.642 284.551 154.537 284.87 153.389C285.188 152.24 284.732 148.736 283.996 149.674C283.261 150.612 281.105 153.582 279.163 155.613C277.22 157.643 270.906 165.234 270.906 165.234C270.906 165.234 244.237 186.816 243.61 187.023" stroke="#263238" stroke-miterlimit="10" stroke-linecap="round" stroke-linejoin="round"/>
<path d="M284.5 154.284C284.5 154.284 283.219 153.96 282.733 155.201C282.248 156.442 279.108 160.763 277.942 162.002" fill="white"/>
<path d="M284.5 154.284C284.5 154.284 283.219 153.96 282.733 155.201C282.248 156.442 279.108 160.763 277.942 162.002" stroke="#263238" stroke-miterlimit="10" stroke-linecap="round" stroke-linejoin="round"/>
<path d="M284.628 151.758C284.628 151.758 283.626 151.675 283.062 152.555C282.498 153.436 279.037 157.675 278.031 158.954" fill="white"/>
<path d="M284.628 151.758C284.628 151.758 283.626 151.675 283.062 152.555C282.498 153.436 279.037 157.675 278.031 158.954" stroke="#263238" stroke-miterlimit="10" stroke-linecap="round" stroke-linejoin="round"/>
<path d="M290.637 153.925C290.637 153.925 299.442 157.422 299.696 158.246C300.661 161.375 298.263 165.815 294.434 170.035C291.016 173.803 274.183 190.595 274.183 190.595C274.183 190.595 274.019 192.347 272.969 194.982C271.918 197.616 267.491 200.256 267.491 200.256C267.491 200.256 262.308 204.111 261.292 204.659C260.276 205.208 256.869 205.531 257.597 204.635C258.324 203.738 260.664 201.064 262.162 198.793C263.661 196.522 271.329 185.021 271.329 185.021C271.329 185.021 285.526 161.259 285.586 160.621" fill="white"/>
<path d="M290.637 153.925C290.637 153.925 299.442 157.422 299.696 158.246C300.661 161.375 298.263 165.815 294.434 170.035C291.016 173.803 274.183 190.595 274.183 190.595C274.183 190.595 274.019 192.347 272.969 194.982C271.918 197.616 267.491 200.256 267.491 200.256C267.491 200.256 262.308 204.111 261.292 204.659C260.276 205.208 256.869 205.531 257.597 204.635C258.324 203.738 260.664 201.064 262.162 198.793C263.661 196.522 271.329 185.021 271.329 185.021C271.329 185.021 285.526 161.259 285.586 160.621" stroke="#263238" stroke-miterlimit="10" stroke-linecap="round" stroke-linejoin="round"/>
<path d="M262.815 203.838C262.815 203.838 262.122 202.648 263.328 201.796C264.532 200.944 266.002 198.992 266.773 197.617" fill="white"/>
<path d="M262.815 203.838C262.815 203.838 262.122 202.648 263.328 201.796C264.532 200.944 266.002 198.992 266.773 197.617" stroke="#263238" stroke-miterlimit="10" stroke-linecap="round" stroke-linejoin="round"/>
<path d="M260.32 204.729C260.32 204.729 259.19 204.784 260.599 203.469C262.008 202.155 264.438 198.524 264.817 197.916" fill="white"/>
<path d="M260.32 204.729C260.32 204.729 259.19 204.784 260.599 203.469C262.008 202.155 264.438 198.524 264.817 197.916" stroke="#263238" stroke-miterlimit="10" stroke-linecap="round" stroke-linejoin="round"/>
<path d="M227.816 139.585C227.816 139.585 219.061 145.575 219.292 147.419C219.522 149.261 229.198 151.566 230.35 150.875C231.503 150.183 233.345 137.282 232.885 136.59C232.423 135.899 227.816 139.585 227.816 139.585Z" fill="#E39292" stroke="#263238" stroke-miterlimit="10" stroke-linecap="round" stroke-linejoin="round"/>
<path d="M229.198 136.59C229.198 136.59 228.506 144.424 225.511 149.953C222.516 155.482 222.286 161.472 231.271 164.007C240.256 166.541 247.167 159.399 247.628 158.017C248.089 156.634 248.78 154.791 248.78 154.791C248.78 154.791 246.016 157.325 243.021 152.948C240.026 148.571 238.874 143.964 241.869 141.429C244.864 138.895 249.472 136.591 249.702 133.366C249.933 130.14 249.933 122.537 249.933 122.537L229.198 136.59Z" fill="#263238" stroke="#263238" stroke-miterlimit="10" stroke-linecap="round" stroke-linejoin="round"/>
<path d="M255.001 124.84C255.001 124.84 256.844 129.448 258.457 129.679C260.07 129.909 261.221 129.218 260.991 130.831C260.76 132.444 259.609 134.287 259.609 134.287C259.609 134.287 261.47 146.567 259.858 147.489C258.245 148.41 250.393 149.723 243.482 148.34C241.449 147.934 239.335 144.424 239.335 144.424C239.335 144.424 233.949 144.295 233.257 140.609C232.566 136.923 235.848 135.332 237.691 136.023C239.534 136.714 240.487 139.125 240.487 139.125C240.487 139.125 247.629 134.517 248.09 131.752C248.551 128.988 248.551 125.532 248.551 125.532L255.001 124.84Z" fill="white" stroke="#263238" stroke-miterlimit="10" stroke-linecap="round" stroke-linejoin="round"/>
<path d="M232.952 142.82C232.86 142.82 232.768 142.787 232.696 142.719C232.543 142.578 232.534 142.339 232.676 142.187L234.664 140.046C234.806 139.893 235.045 139.886 235.195 140.027C235.348 140.168 235.357 140.406 235.215 140.559L233.228 142.699C233.154 142.78 233.053 142.82 232.952 142.82Z" fill="#E39292" stroke="#263238" stroke-width="0.5" stroke-miterlimit="10" stroke-linecap="round" stroke-linejoin="round"/>
<path d="M235.245 144.501C235.195 144.501 235.145 144.492 235.096 144.471C234.905 144.389 234.817 144.168 234.898 143.977L235.815 141.837C235.897 141.644 236.12 141.556 236.31 141.639C236.501 141.72 236.589 141.942 236.508 142.133L235.591 144.273C235.53 144.416 235.391 144.501 235.245 144.501Z" fill="#E39292" stroke="#263238" stroke-width="0.5" stroke-miterlimit="10" stroke-linecap="round" stroke-linejoin="round"/>
<path d="M237.539 145.724C237.517 145.724 237.495 145.722 237.472 145.718C237.268 145.683 237.131 145.487 237.167 145.283L237.626 142.684C237.663 142.479 237.86 142.344 238.062 142.379C238.267 142.415 238.403 142.61 238.367 142.815L237.908 145.413C237.877 145.596 237.717 145.724 237.539 145.724Z" fill="#E39292" stroke="#263238" stroke-width="0.5" stroke-miterlimit="10" stroke-linecap="round" stroke-linejoin="round"/>
<path d="M251.315 130.6C251.315 130.6 253.618 128.757 255.231 129.909" stroke="#263238" stroke-width="2" stroke-miterlimit="10" stroke-linecap="round" stroke-linejoin="round"/>
<path d="M250.624 127.835C250.624 127.835 251.315 124.61 253.849 125.07" stroke="#263238" stroke-miterlimit="10" stroke-linecap="round" stroke-linejoin="round"/>
<path d="M259.378 136.59C259.378 136.59 255.923 139.816 251.775 137.512" stroke="#263238" stroke-miterlimit="10" stroke-linecap="round" stroke-linejoin="round"/>
<path d="M227.816 139.585C227.816 139.585 241.178 129.448 246.938 127.144C252.697 124.841 255.001 124.841 255.001 124.841C255.001 124.841 251.775 118.159 250.163 116.086C248.55 114.013 235.419 116.317 232.884 117.468C230.35 118.62 228.276 120.694 225.742 125.762C223.208 130.83 224.821 135.668 227.816 139.585Z" fill="#E39292" stroke="#263238" stroke-miterlimit="10" stroke-linecap="round" stroke-linejoin="round"/>
<path d="M47.0625 226.379C47.0625 226.379 31.5354 251.765 31.7817 253.983C32.008 256.019 46.2189 299.347 48.2693 305.748C48.4333 306.26 48.9426 306.577 49.4755 306.501L56.1477 305.548C56.7262 305.465 57.1407 304.948 57.0909 304.366C56.7075 299.844 55.208 281.748 55.208 275.086C55.208 267.445 52.2386 252.751 52.2386 252.751C52.2386 252.751 74.667 235.252 76.6385 234.02C78.61 232.787 86.7438 232.048 88.7153 232.541C90.6868 233.034 116.319 252.012 116.319 252.012L94.3773 291.744L96.5072 299.991C96.5072 299.991 141.458 253.491 141.705 251.273C141.951 249.055 123.466 227.119 116.072 219.971C108.678 212.824 104.242 209.866 104.242 209.866L52.4843 218.493L47.0625 226.379Z" fill="#263238" stroke="#263238" stroke-miterlimit="10" stroke-linecap="round" stroke-linejoin="round"/>
<path d="M41.5998 148.363C41.5998 148.363 30.3431 166.512 30.1133 169.268C29.8836 172.025 52.3964 214.294 52.3964 214.294L46.194 226.929C46.194 226.929 57.6805 234.28 76.9769 230.834C96.2741 227.388 106.707 211.591 106.707 211.591L97.6525 202.348L80.6528 149.742C80.6528 149.742 77.2067 140.553 75.5992 139.863C73.991 139.174 54.9243 143.999 49.4104 144.228C43.8973 144.458 41.5998 148.363 41.5998 148.363Z" fill="#E39292" stroke="#263238" stroke-miterlimit="10" stroke-linecap="round" stroke-linejoin="round"/>
<path d="M39.0055 188.924C39.0055 188.924 49.373 199.292 50.928 199.81C52.4829 200.328 58.9628 191.517 58.9628 191.517L39.0055 188.924Z" fill="#263238" stroke="#263238" stroke-miterlimit="10" stroke-linecap="round" stroke-linejoin="round"/>
<path d="M70.7074 220.354C69.4507 220.931 68.1407 221.491 66.7761 222.027" stroke="#263238" stroke-miterlimit="10" stroke-linecap="round" stroke-linejoin="round"/>
<path d="M93.4867 203.628C93.4867 203.628 87.7022 211.207 75.6434 217.863" stroke="#263238" stroke-miterlimit="10" stroke-linecap="round" stroke-linejoin="round"/>
<path d="M77.1638 211.344C77.1638 211.344 67.0738 216.983 58.4667 219.654" stroke="#263238" stroke-miterlimit="10" stroke-linecap="round" stroke-linejoin="round"/>
<path d="M62.2616 142.047C62.2616 142.047 74.5294 138.91 79.6509 138.203C84.7717 137.497 101.724 134.199 102.254 134.199C102.784 134.199 99.7818 149.739 99.7818 149.739L78.7679 158.864" fill="#E39292"/>
<path d="M62.2616 142.047C62.2616 142.047 74.5294 138.91 79.6509 138.203C84.7717 137.497 101.724 134.199 102.254 134.199C102.784 134.199 99.7818 149.739 99.7818 149.739L78.7679 158.864" stroke="#263238" stroke-miterlimit="10" stroke-linecap="round" stroke-linejoin="round"/>
<path d="M102.993 134.442C102.676 134.442 96.8595 134.89 92.8203 135.788C92.2439 139.19 91.6764 145.603 93.9234 152.213L99.7818 149.739C99.7818 149.739 103.523 134.442 102.993 134.442Z" fill="#B2B2B2" stroke="#263238" stroke-miterlimit="10" stroke-linecap="round" stroke-linejoin="round"/>
<path d="M41.5998 148.363C41.5998 148.363 39.9944 150.952 37.9841 154.321C39.9231 158.025 48.3627 165.993 57.8736 159.408C65.2254 154.319 62.9819 147.15 62.2623 142.048C57.1179 143.091 51.8919 144.125 49.4111 144.229C43.8973 144.458 41.5998 148.363 41.5998 148.363Z" fill="#B2B2B2" stroke="#263238" stroke-miterlimit="10" stroke-linecap="round" stroke-linejoin="round"/>
<path d="M25.5191 131.134C24.6001 130.904 12.6548 132.512 14.0326 130.674C15.4111 128.836 20.0053 127.688 20.0053 127.688C20.0053 127.688 13.8029 125.85 13.8029 122.634C13.8029 119.418 19.0863 124.472 20.6945 125.391C22.3027 126.31 17.9376 121.256 17.2483 117.81C16.5591 114.364 20.6945 118.959 20.6945 118.959C20.6945 118.959 17.9376 104.716 21.6135 103.338C25.2894 101.959 25.0596 116.661 25.0596 116.661C25.0596 116.661 26.4381 109.31 29.4241 107.702C32.4107 106.094 29.6538 112.296 29.4241 112.985C29.1943 113.675 34.2487 106.324 39.3024 104.945C44.356 103.567 38.1536 110.228 36.086 112.066C34.0183 113.904 33.329 114.364 33.329 114.364C33.329 114.364 43.4371 109.08 42.9776 111.377C42.5181 113.675 41.8289 113.904 41.8289 113.904C41.8289 113.904 49.4097 111.147 49.6395 112.985C49.8692 114.823 36.7752 115.972 34.4777 117.58C32.1803 119.188 31.2613 121.026 30.1133 124.241C28.9653 127.458 25.5191 131.134 25.5191 131.134Z" fill="#263238" stroke="#263238" stroke-miterlimit="10" stroke-linecap="round" stroke-linejoin="round"/>
<path d="M44.5865 153.876L37.4644 144.457C37.4644 144.457 34.8217 143.997 30.3431 141.011C22.7622 135.958 23.4514 126.998 27.5861 122.174C31.7215 117.35 39.9916 115.052 43.2073 116.431C46.4238 117.809 49.18 119.188 50.3287 121.255C51.4774 123.322 50.3287 123.093 50.3287 123.093C50.3287 123.093 54.9229 124.012 55.3824 124.701C55.8419 125.39 54.4634 128.147 54.4634 128.147C54.4634 128.147 59.0576 134.12 59.0576 137.796C59.0576 141.471 56.5304 141.701 56.5304 141.701L57.9089 150.2" fill="#B2B2B2"/>
<path d="M44.5865 153.876L37.4644 144.457C37.4644 144.457 34.8217 143.997 30.3431 141.011C22.7622 135.958 23.4514 126.998 27.5861 122.174C31.7215 117.35 39.9916 115.052 43.2073 116.431C46.4238 117.809 49.18 119.188 50.3287 121.255C51.4774 123.322 50.3287 123.093 50.3287 123.093C50.3287 123.093 54.9229 124.012 55.3824 124.701C55.8419 125.39 54.4634 128.147 54.4634 128.147C54.4634 128.147 59.0576 134.12 59.0576 137.796C59.0576 141.471 56.5304 141.701 56.5304 141.701L57.9089 150.2" stroke="#263238" stroke-miterlimit="10" stroke-linecap="round" stroke-linejoin="round"/>
<path d="M53.8496 127.411C53.8496 127.411 52.521 129.035 52.0781 129.035C51.6352 129.035 49.8637 129.035 50.7495 127.263" stroke="#263238" stroke-miterlimit="10" stroke-linecap="round" stroke-linejoin="round"/>
<path d="M48.7212 121.485C48.7212 121.485 46.194 120.566 45.7345 122.864" stroke="#263238" stroke-miterlimit="10" stroke-linecap="round" stroke-linejoin="round"/>
<path d="M49.3003 123.579C49.7183 124.29 49.7024 125.075 49.265 125.332C48.8277 125.589 48.1343 125.221 47.7163 124.511C47.2984 123.8 47.3143 123.015 47.7516 122.758C48.189 122.5 48.8824 122.868 49.3003 123.579Z" fill="#263238"/>
<path d="M58.3794 134.842C58.3815 134.912 58.3815 134.98 58.3697 135.039C58.14 136.188 55.6128 138.025 53.3161 137.566C51.0186 137.106 50.7889 134.809 51.0186 133.202C51.2442 131.623 55.8827 130.491 56.0564 130.449C55.1865 129.09 54.4648 128.148 54.4648 128.148C54.4648 128.148 48.2624 132.512 48.2624 134.121C48.2624 135.729 51.2491 139.863 50.5598 140.093C49.8706 140.323 46.6542 140.323 45.2764 139.404C43.8979 138.485 37.4658 129.755 37.4658 128.607C37.4658 127.458 39.3038 125.85 38.155 124.702C37.0153 123.562 33.8466 119.935 41.424 116.064C37.5751 115.816 31.0973 118.08 27.5875 122.175C23.4521 126.998 22.7629 135.958 30.3444 141.012C34.8231 143.998 37.4658 144.458 37.4658 144.458L40.0906 137.863C40.0906 137.863 45.0467 142.391 45.7359 142.391C46.4251 142.391 52.7625 143.874 56.8979 143.414C56.9781 143.405 56.6792 141.671 56.7553 141.659C57.3705 141.503 59.0604 140.804 59.0604 137.797C59.059 136.906 58.787 135.883 58.3794 134.842Z" fill="#263238" stroke="#263238" stroke-miterlimit="10" stroke-linecap="round" stroke-linejoin="round"/>
<path d="M56.9912 132.052C56.9912 132.052 52.6261 134.349 51.0186 133.201" stroke="#263238" stroke-miterlimit="10" stroke-linecap="round" stroke-linejoin="round"/>
<path d="M38.3834 135.039C38.3834 135.039 36.3157 134.12 34.4784 134.35C32.6405 134.579 32.6405 137.107 35.3974 138.714C38.1544 140.322 40.4511 140.093 40.4511 138.714C40.4511 137.336 40.4511 137.336 40.4511 137.336L38.3834 135.039Z" fill="#B2B2B2" stroke="#263238" stroke-miterlimit="10" stroke-linecap="round" stroke-linejoin="round"/>
<path d="M34.7961 159.748C34.7961 159.748 28.0858 168.048 26.4962 174.229C24.9067 180.41 29.1452 182.705 31.2641 184.471C33.383 186.237 47.378 194.501 50.8657 195.773C54.3534 197.045 61.2845 182.175 61.108 180.939C60.9315 179.703 43.2724 168.578 43.2724 168.578" fill="#E39292"/>
<path d="M34.7961 159.748C34.7961 159.748 28.0858 168.048 26.4962 174.229C24.9067 180.41 29.1452 182.705 31.2641 184.471C33.383 186.237 47.378 194.501 50.8657 195.773C54.3534 197.045 61.2845 182.175 61.108 180.939C60.9315 179.703 43.2724 168.578 43.2724 168.578" stroke="#263238" stroke-miterlimit="10" stroke-linecap="round" stroke-linejoin="round"/>
<path d="M61.1087 180.939C61.0209 180.322 56.5865 177.247 52.1619 174.319C44.1361 177.657 42.5313 186.711 42.2483 191.285C45.8792 193.361 49.3565 195.222 50.8665 195.772C54.3541 197.045 61.2852 182.175 61.1087 180.939Z" fill="#B2B2B2" stroke="#263238" stroke-miterlimit="10" stroke-linecap="round" stroke-linejoin="round"/>
<path d="M47.5109 194.183C47.5109 194.183 53.4192 197.22 54.3541 197.045C55.2889 196.87 63.5597 188.481 66.653 183.798C69.7462 179.116 77.3935 159.201 77.3935 159.201C77.3935 159.201 79.0335 158.16 81.095 155.805C83.1565 153.451 83.5281 147.776 83.5281 147.776C83.5281 147.776 84.7142 140.748 84.7425 139.475C84.7709 138.202 83.38 134.693 82.8638 135.857C82.3475 137.021 80.8943 140.663 79.4155 143.275C77.936 145.887 70.486 159.193 70.486 159.193C70.486 159.193 51.9923 179.677 51.3958 180.055" fill="#B2B2B2"/>
<path d="M47.5109 194.183C47.5109 194.183 53.4192 197.22 54.3541 197.045C55.2889 196.87 63.5597 188.481 66.653 183.798C69.7462 179.116 77.3935 159.201 77.3935 159.201C77.3935 159.201 79.0335 158.16 81.095 155.805C83.1565 153.451 83.5281 147.776 83.5281 147.776C83.5281 147.776 84.7142 140.748 84.7425 139.475C84.7709 138.202 83.38 134.693 82.8638 135.857C82.3475 137.021 80.8943 140.663 79.4155 143.275C77.936 145.887 70.486 159.193 70.486 159.193C70.486 159.193 51.9923 179.677 51.3958 180.055" stroke="#263238" stroke-miterlimit="10" stroke-linecap="round" stroke-linejoin="round"/>
<path d="M84.5951 140.499C84.5951 140.499 83.1821 140.499 83.0056 141.912C82.8292 143.325 80.7096 148.622 79.8273 150.211" stroke="#263238" stroke-miterlimit="10" stroke-linecap="round" stroke-linejoin="round"/>
<path d="M84.0658 137.85C84.0658 137.85 83.0063 138.027 82.6527 139.086C82.2998 140.146 79.8273 145.444 79.1207 147.033" stroke="#263238" stroke-miterlimit="10" stroke-linecap="round" stroke-linejoin="round"/>
<path d="M100.135 134.552C100.135 134.552 109.726 132.946 110.554 134.376C112.365 137.501 109.735 146.829 105.963 151.859C102.595 156.348 85.8318 176.524 85.8318 176.524C85.8318 176.524 85.8318 178.467 84.9488 181.469C84.0658 184.47 79.4744 187.826 79.4744 187.826C79.4744 187.826 74.1764 192.594 73.117 193.3C72.0575 194.007 68.3491 194.713 69.0556 193.653C69.7621 192.594 72.0575 189.415 73.4706 186.766C74.8836 184.117 82.1233 170.696 82.1233 170.696C82.1233 170.696 95.2755 143.134 95.2755 142.428" fill="#B2B2B2"/>
<path d="M100.135 134.552C100.135 134.552 109.726 132.946 110.554 134.376C112.365 137.501 109.735 146.829 105.963 151.859C102.595 156.348 85.8318 176.524 85.8318 176.524C85.8318 176.524 85.8318 178.467 84.9488 181.469C84.0658 184.47 79.4744 187.826 79.4744 187.826C79.4744 187.826 74.1764 192.594 73.117 193.3C72.0575 194.007 68.3491 194.713 69.0556 193.653C69.7621 192.594 72.0575 189.415 73.4706 186.766C74.8836 184.117 82.1233 170.696 82.1233 170.696C82.1233 170.696 95.2755 143.134 95.2755 142.428" stroke="#263238" stroke-miterlimit="10" stroke-linecap="round" stroke-linejoin="round"/>
<path d="M74.7065 192.241C74.7065 192.241 73.8235 191.005 75.0594 189.946C76.2953 188.886 77.7084 186.59 78.4149 185.001" stroke="#263238" stroke-miterlimit="10" stroke-linecap="round" stroke-linejoin="round"/>
<path d="M72.0575 193.477C72.0575 193.477 70.8216 193.653 72.234 192.064C73.6464 190.474 75.9424 186.237 76.2953 185.53" stroke="#263238" stroke-miterlimit="10" stroke-linecap="round" stroke-linejoin="round"/>
<path d="M228.112 240.681C228.112 240.681 222.219 244.699 220.076 249.254C217.932 253.808 207.752 272.83 204.805 274.973C201.858 277.116 190.338 277.384 189.535 278.991C188.731 280.599 190.875 284.885 192.75 290.779C194.625 296.673 197.304 304.442 199.716 306.586C202.126 308.729 204.806 310.604 205.609 308.461C206.413 306.318 204.806 299.62 204.806 297.745C204.806 295.869 209.628 285.153 210.432 283.813C211.235 282.474 232.132 266.131 237.223 258.898C242.313 251.665 248.207 242.556 248.207 240.145C248.207 237.734 242.045 232.108 242.045 232.108L228.112 240.681Z" fill="white" stroke="#263238" stroke-miterlimit="10" stroke-linecap="round" stroke-linejoin="round"/>
<path d="M154.02 188.988L142.65 218.445C142.65 218.445 131.666 244.699 133.809 251.129C135.953 257.559 143.99 287.832 143.99 292.386C143.99 296.941 141.579 299.084 143.99 300.691C146.401 302.298 149.348 304.442 153.099 304.174C156.85 303.906 164.887 304.174 165.691 303.102C166.494 302.03 169.173 295.333 168.37 292.921C167.567 290.51 164.084 281.669 162.744 272.293C161.404 262.916 156.85 248.181 157.386 246.574C157.922 244.966 174.532 220.855 176.675 218.98C178.818 217.104 187.391 215.497 187.391 215.497C187.391 215.497 205.341 232.375 208.02 235.054C210.698 237.733 219.271 238.269 219.271 238.269L237.489 225.41C237.489 225.41 236.417 220.052 226.773 210.407C217.128 200.763 186.469 178.343 186.469 178.343L154.02 188.988Z" fill="#E39292" stroke="#263238" stroke-miterlimit="10" stroke-linecap="round" stroke-linejoin="round"/>
<path d="M157.385 246.575L155.336 239.986L159.186 243.382L157.385 246.575Z" fill="#263238" stroke="#263238" stroke-miterlimit="10" stroke-linecap="round" stroke-linejoin="round"/>
<path d="M193.477 192.654C193.477 192.654 189.579 202.618 188.484 209.058" stroke="#263238" stroke-miterlimit="10" stroke-linecap="round" stroke-linejoin="round"/>
<path d="M190.981 191.941C190.981 191.941 187.542 202.281 188.37 204.421" stroke="#263238" stroke-miterlimit="10" stroke-linecap="round" stroke-linejoin="round"/>
<path d="M154.02 188.988C154.02 188.988 149.348 195.405 148.009 200.227C146.669 205.05 144.794 208.533 143.186 210.14C141.579 211.747 133.81 218.176 131.13 220.32C128.451 222.463 128.451 222.731 129.79 225.411C131.13 228.089 131.13 229.697 131.934 229.429C132.737 229.161 138.095 223.803 142.65 218.445C147.204 213.087 158.992 208.265 162.475 203.175C165.958 198.084 172.119 188.975 172.119 188.975C172.119 188.975 167.029 213.087 166.761 215.498C166.493 217.909 168.369 218.445 169.441 218.445C170.513 218.445 174.263 216.837 174.263 216.837L175.335 214.159C175.335 214.159 178.282 212.819 178.282 210.408C178.282 207.997 176.675 189.244 176.675 189.244C176.675 189.244 179.354 207.194 180.693 207.461C182.033 207.729 186.587 206.122 186.587 202.639C186.587 199.156 179.086 186.564 179.086 186.564C179.086 186.564 185.784 188.172 188.998 188.172C192.213 188.172 203.733 191.387 203.733 191.387C203.733 191.387 202.661 186.297 201.59 184.421C200.518 182.546 186.469 178.344 186.469 178.344C186.469 178.344 180.392 187.393 154.02 188.988Z" fill="#263238" stroke="#263238" stroke-miterlimit="10" stroke-linecap="round" stroke-linejoin="round"/>
<path d="M156.746 93.5277C156.746 93.5277 158.538 95.32 162.636 98.6499C166.733 101.979 168.014 105.052 177.489 101.467C186.965 97.8817 198.233 104.284 200.281 109.15C202.33 114.015 199.513 121.186 198.488 121.954C197.464 122.722 197.72 121.954 197.208 119.137C196.696 116.32 191.573 114.528 191.573 114.528C191.573 114.528 194.135 118.625 193.11 123.747C192.086 128.869 188.349 134.401 176.72 140.137C165.09 145.873 154.952 144.235 149.574 131.687C144.198 119.137 154.185 93.0156 156.746 93.5277Z" fill="#263238" stroke="#263238" stroke-miterlimit="10" stroke-linecap="round" stroke-linejoin="round"/>
<path d="M177.489 101.466C168.014 105.052 166.733 101.979 162.636 98.6493C158.539 95.3201 156.746 93.5272 156.746 93.5272C156.517 93.4815 156.227 93.6566 155.896 94.0067L156.572 94.7541C156.572 94.7541 159.804 107.951 169.553 107.507C176.477 107.192 183.402 102.411 191.438 102.047C187.225 100.357 182.142 99.706 177.489 101.466Z" fill="#E39292" stroke="#263238" stroke-miterlimit="10" stroke-linecap="round" stroke-linejoin="round"/>
<path d="M159.514 132.502C159.514 132.502 167.926 128.553 175.996 128.382C184.065 128.21 210.848 127.867 213.252 127.867C215.656 127.867 213.081 131.644 211.364 135.422C209.647 139.198 204.153 142.632 201.578 142.976C199.002 143.319 179.086 145.379 179.086 145.379C179.086 145.379 182.005 152.075 181.318 155.166C180.632 158.256 178.228 163.922 178.228 163.922L186.469 178.343C186.469 178.343 179.601 184.181 173.077 186.585C166.553 188.989 155.393 188.989 154.706 188.989C154.02 188.989 154.02 188.989 154.02 188.989C154.02 188.989 138.396 165.639 134.447 161.69C130.499 157.741 128.095 149.843 129.812 146.41C131.529 142.976 141.83 136.624 143.719 135.25C145.607 133.876 155.222 131.816 155.222 131.816L159.514 132.502Z" fill="white" stroke="#263238" stroke-miterlimit="10" stroke-linecap="round" stroke-linejoin="round"/>
<path d="M175.055 144.53L172.024 132.6" stroke="#263238" stroke-miterlimit="10" stroke-linecap="round" stroke-linejoin="round"/>
<path d="M203.308 128.131C203.308 128.131 213.813 127.029 214.193 127.946C215.636 131.433 213.337 140.956 209.397 146.21C205.879 150.9 188.367 171.977 188.367 171.977C188.367 171.977 188.367 174.006 187.444 177.142C186.522 180.278 181.726 183.783 181.726 183.783C181.726 183.783 176.191 188.764 175.085 189.502C173.977 190.24 170.104 190.978 170.841 189.871C171.579 188.764 173.977 185.443 175.453 182.676C176.929 179.909 184.493 165.889 184.493 165.889C184.493 165.889 198.233 137.096 198.233 136.358" fill="white"/>
<path d="M203.308 128.131C203.308 128.131 213.813 127.029 214.193 127.946C215.636 131.433 213.337 140.956 209.397 146.21C205.879 150.9 188.367 171.977 188.367 171.977C188.367 171.977 188.367 174.006 187.444 177.142C186.522 180.278 181.726 183.783 181.726 183.783C181.726 183.783 176.191 188.764 175.085 189.502C173.977 190.24 170.104 190.978 170.841 189.871C171.579 188.764 173.977 185.443 175.453 182.676C176.929 179.909 184.493 165.889 184.493 165.889C184.493 165.889 198.233 137.096 198.233 136.358" stroke="#263238" stroke-miterlimit="10" stroke-linecap="round" stroke-linejoin="round"/>
<path d="M176.744 188.395C176.744 188.395 175.822 187.104 177.113 185.997C178.404 184.89 179.88 182.492 180.618 180.832" fill="white"/>
<path d="M176.744 188.395C176.744 188.395 175.822 187.104 177.113 185.997C178.404 184.89 179.88 182.492 180.618 180.832" stroke="#263238" stroke-miterlimit="10" stroke-linecap="round" stroke-linejoin="round"/>
<path d="M173.977 189.687C173.977 189.687 172.685 189.871 174.161 188.211C175.637 186.551 178.035 182.123 178.405 181.385" fill="white"/>
<path d="M173.977 189.687C173.977 189.687 172.685 189.871 174.161 188.211C175.637 186.551 178.035 182.123 178.405 181.385" stroke="#263238" stroke-miterlimit="10" stroke-linecap="round" stroke-linejoin="round"/>
<path d="M161.595 131.627C164.094 135.053 171.036 145.002 170.331 148.812C169.472 153.448 160.373 157.74 155.737 158.255C151.101 158.77 147.839 155.337 146.294 151.903C145.171 149.408 141.783 141.749 140.015 137.746C139.294 138.234 138.519 138.766 137.729 139.322C139.809 144.133 144.926 156.225 145.607 160.316C146.466 165.466 144.062 169.587 144.062 169.587C144.062 169.587 145.096 174.752 145.93 177.13C146.202 177.522 146.471 177.911 146.738 178.297C149.024 179.009 158.733 176.188 165.008 173.365C169.53 171.329 175.168 167.062 178.492 164.384L178.228 163.922C178.228 163.922 180.598 158.249 181.318 155.166C182.737 149.089 179.086 145.379 179.086 145.379L163 131.099C162.483 131.285 162.012 131.463 161.595 131.627Z" fill="#263238" stroke="#263238" stroke-miterlimit="10" stroke-linecap="round" stroke-linejoin="round"/>
<path d="M161.575 137.481L161.918 124.604L141.83 124.261L142.174 137.996" fill="white"/>
<path d="M161.575 137.481L161.918 124.604L141.83 124.261L142.174 137.996" stroke="#263238" stroke-miterlimit="10" stroke-linecap="round" stroke-linejoin="round"/>
<path d="M149.296 124.728C149.296 124.728 152.79 128.222 161.525 128.698L161.918 124.604L149.296 124.728Z" fill="#263238" stroke="#263238" stroke-miterlimit="10" stroke-linecap="round" stroke-linejoin="round"/>
<path d="M156.572 94.7546C156.572 94.7546 158.763 99.1364 160.223 101.814C161.684 104.491 162.9 105.465 164.848 105.708C166.795 105.952 167.525 106.926 167.039 108.629C166.551 110.333 165.335 111.064 165.335 111.794C165.335 112.524 167.526 120.8 167.039 123.235C166.551 125.669 161.197 126.399 158.276 126.399C155.355 126.399 147.566 124.695 147.566 124.695C147.566 124.695 151.217 100.841 151.217 100.111C151.217 99.38 153.408 93.2945 156.572 94.7546Z" fill="white" stroke="#263238" stroke-miterlimit="10" stroke-linecap="round" stroke-linejoin="round"/>
<path d="M159.781 105.853C160.093 106.812 160.04 107.688 159.665 107.81C159.29 107.932 158.733 107.253 158.422 106.294C158.111 105.335 158.164 104.459 158.539 104.337C158.914 104.215 159.471 104.894 159.781 105.853Z" fill="#263238"/>
<path d="M164.738 114.091C164.738 114.091 162.9 116.899 158.864 113.933" stroke="#263238" stroke-miterlimit="10" stroke-linecap="round" stroke-linejoin="round"/>
<path d="M130.327 145.207C130.327 145.207 125.691 149.671 126.55 156.71C127.408 163.749 139.77 189.674 140.972 190.533C142.174 191.392 151.617 185.211 150.758 181.605C149.899 178 141.487 157.225 141.487 157.74" fill="white"/>
<path d="M130.327 145.207C130.327 145.207 125.691 149.671 126.55 156.71C127.408 163.749 139.77 189.674 140.972 190.533C142.174 191.392 151.617 185.211 150.758 181.605C149.899 178 141.487 157.225 141.487 157.74" stroke="#263238" stroke-miterlimit="10" stroke-linecap="round" stroke-linejoin="round"/>
<path d="M137.38 180.134C137.38 180.134 140.14 190.971 141.143 191.219C142.147 191.468 155.825 181.731 160.995 178.494C166.166 175.258 182.71 159.009 182.71 159.009C182.71 159.009 184.801 158.719 187.902 157.32C191.002 155.92 193.929 150.476 193.929 150.476C193.929 150.476 198.271 144.06 198.873 142.813C199.475 141.567 199.682 137.469 198.647 138.387C197.612 139.306 194.533 142.253 191.892 144.17C189.251 146.086 180.461 153.449 180.461 153.449C180.461 153.449 145.511 172.572 144.75 172.678" fill="white"/>
<path d="M137.38 180.134C137.38 180.134 140.14 190.971 141.143 191.219C142.147 191.468 155.825 181.731 160.995 178.494C166.166 175.258 182.71 159.009 182.71 159.009C182.71 159.009 184.801 158.719 187.902 157.32C191.002 155.92 193.929 150.476 193.929 150.476C193.929 150.476 198.271 144.06 198.873 142.813C199.475 141.567 199.682 137.469 198.647 138.387C197.612 139.306 194.533 142.253 191.892 144.17C189.251 146.086 180.461 153.449 180.461 153.449C180.461 153.449 145.511 172.572 144.75 172.678" stroke="#263238" stroke-miterlimit="10" stroke-linecap="round" stroke-linejoin="round"/>
<path d="M198.265 143.759C198.265 143.759 196.868 143.121 196.056 144.439C195.245 145.757 190.76 150.041 189.17 151.215" stroke="#263238" stroke-miterlimit="10" stroke-linecap="round" stroke-linejoin="round"/>
<path d="M198.936 140.9C198.936 140.9 197.808 140.597 196.981 141.485C196.154 142.374 191.32 146.499 189.904 147.753" stroke="#263238" stroke-miterlimit="10" stroke-linecap="round" stroke-linejoin="round"/>
<path d="M217.396 238.269C217.396 238.269 219.004 243.36 222.219 243.627C225.434 243.895 243.651 234.519 244.187 233.179C244.723 231.839 239.633 224.606 237.489 225.41C235.346 226.214 217.396 238.269 217.396 238.269Z" fill="#E39292" stroke="#263238" stroke-miterlimit="10" stroke-linecap="round" stroke-linejoin="round"/>
<path d="M222.218 243.627L239.632 226.75" stroke="#263238" stroke-miterlimit="10" stroke-linecap="round" stroke-linejoin="round"/>
<path d="M228.38 242.02L242.579 230.232" stroke="#263238" stroke-miterlimit="10" stroke-linecap="round" stroke-linejoin="round"/>
<path d="M157.789 92.0774C157.789 92.0774 159.25 96.2155 156.816 104.491C154.381 112.767 147.566 130.293 149.27 135.891C150.974 141.49 163.145 143.194 165.092 145.871C167.039 148.549 162.415 154.878 159.25 156.338C156.086 157.799 155.599 155.608 155.599 155.608C155.599 155.608 160.224 154.878 159.494 152.443C158.764 150.009 157.059 150.496 151.217 151.957C145.376 153.417 130.284 149.766 125.416 145.628C120.547 141.49 128.58 126.398 126.146 120.556C123.711 114.714 117.139 104.734 127.849 97.1885C138.559 89.6429 152.434 85.5047 155.112 87.9385C157.789 90.3736 157.789 92.0774 157.789 92.0774Z" fill="#263238" stroke="#263238" stroke-miterlimit="10" stroke-linecap="round" stroke-linejoin="round"/>
<path d="M165.092 145.872C163.145 143.195 150.974 141.49 149.27 135.892C147.566 130.294 154.382 112.767 156.816 104.492C159.25 96.2155 157.789 92.0774 157.789 92.0774C157.789 92.0774 157.789 90.3737 155.112 87.9392C154.217 87.1247 152.064 87.0493 149.2 87.5877C151.411 90.9515 155.105 98.8707 150.501 109.723C144.297 124.345 132.048 133.475 137.73 139.322C140.246 141.912 144.231 142.764 147.637 143.436C150.582 144.018 153.478 144.836 156.437 145.356C158.241 145.673 161.358 145.828 161.681 148.25C161.952 150.279 160.735 152.985 159.111 154.067C159.099 154.075 159.087 154.081 159.075 154.088C158.013 155.222 155.599 155.608 155.599 155.608C155.599 155.608 156.086 157.799 159.25 156.338C162.414 154.878 167.039 148.549 165.092 145.872Z" fill="#E39292" stroke="#263238" stroke-miterlimit="10" stroke-linecap="round" stroke-linejoin="round"/>
<path d="M141.176 106.759C141.064 107.514 140.979 108.272 140.851 109.021C140.696 109.764 140.593 110.525 140.428 111.256C140.232 111.969 140.095 112.696 139.889 113.41C139.647 114.114 139.454 114.836 139.193 115.54C138.19 118.38 136.668 121.094 134.942 123.732C133.212 126.374 131.273 128.948 129.497 131.73C128.633 133.143 127.77 134.579 127.137 136.178C126.779 136.95 126.559 137.8 126.321 138.632C126.205 139.05 126.175 139.498 126.101 139.929L126.007 140.579C125.987 140.8 125.991 141.03 125.984 141.254C125.966 143.071 126.581 144.845 127.518 146.298C127.815 146.752 128.146 147.171 128.491 147.575C129.509 148.088 130.652 148.579 131.874 149.037C131.853 149.018 131.83 149.001 131.809 148.982C130.644 147.95 129.624 146.773 128.914 145.469C128.218 144.16 127.862 142.729 127.991 141.321C128.01 141.144 128.014 140.971 128.042 140.793L128.159 140.255C128.246 139.899 128.284 139.538 128.408 139.187C128.662 138.488 128.881 137.787 129.248 137.116C129.883 135.754 130.766 134.467 131.661 133.192C133.51 130.656 135.603 128.207 137.571 125.582C139.546 122.968 141.43 120.171 142.873 117.05C143.219 116.266 143.512 115.451 143.823 114.646C144.083 113.821 144.298 112.976 144.516 112.136C144.69 111.295 144.816 110.462 144.951 109.622C145.05 108.78 145.103 107.934 145.179 107.092C145.33 103.709 145.003 100.334 144.224 97.0917C144.043 96.2793 143.807 95.4793 143.572 94.6849C143.3 93.8974 143.046 93.1113 142.734 92.3438C142.385 91.4989 142.015 90.6665 141.602 89.8547C141.254 89.9897 140.903 90.1295 140.55 90.2741C141.556 95.8447 141.825 101.389 141.176 106.759Z" fill="#E39292" stroke="#263238" stroke-miterlimit="10" stroke-linecap="round" stroke-linejoin="round"/>
<g opacity="0.2">
<path d="M266.759 63.0065C266.759 54.951 266.759 46.9348 266.759 38.8101C273.762 38.8101 280.713 38.8101 287.751 38.8101C287.787 39.0592 287.864 39.3443 287.865 39.6301C287.878 47.6504 287.895 55.6699 287.882 63.6902C287.879 65.9974 286.638 67.7128 284.552 68.4616C282.409 69.2304 280.005 68.6706 278.588 67.0734C277.152 65.4562 276.982 63.0508 278.179 61.2994C279.503 59.3638 282.108 58.5355 284.416 59.3424C284.941 59.5258 285.436 59.7963 286.065 60.0821C286.065 55.0098 286.065 50.0115 286.065 44.8997C280.377 44.8997 274.687 44.8997 268.817 44.8997C268.817 45.4124 268.817 45.9148 268.817 46.4172C268.817 53.1365 268.833 59.8565 268.809 66.5759C268.796 70.1459 265.947 72.5541 262.559 71.9271C259.605 71.3797 257.734 68.9771 258.187 66.3094C258.623 63.7456 261.337 61.8654 264.134 62.2661C264.973 62.3858 265.78 62.7228 266.759 63.0065Z" fill="black"/>
<path d="M221.156 100.425C221.156 94.887 221.156 89.3759 221.156 83.79C225.971 83.79 230.749 83.79 235.587 83.79C235.612 83.9617 235.665 84.1575 235.666 84.3533C235.675 89.8672 235.686 95.381 235.678 100.895C235.675 102.481 234.823 103.66 233.388 104.175C231.916 104.704 230.262 104.319 229.287 103.221C228.3 102.109 228.184 100.455 229.007 99.2514C229.917 97.9207 231.708 97.3512 233.295 97.9061C233.656 98.0321 233.996 98.2182 234.429 98.4148C234.429 94.9278 234.429 91.4913 234.429 87.9766C230.518 87.9766 226.607 87.9766 222.571 87.9766C222.571 88.3289 222.571 88.6742 222.571 89.0202C222.571 93.64 222.583 98.2598 222.565 102.88C222.556 105.333 220.598 106.989 218.269 106.558C216.237 106.182 214.951 104.53 215.263 102.696C215.562 100.934 217.428 99.641 219.351 99.9164C219.927 99.9981 220.482 100.231 221.156 100.425Z" fill="black"/>
<path d="M182.187 66.0507C182.187 62.617 182.187 59.2006 182.187 55.7378C185.172 55.7378 188.135 55.7378 191.135 55.7378C191.15 55.8444 191.182 55.9655 191.183 56.0873C191.189 59.5057 191.196 62.9242 191.191 66.342C191.189 67.3253 190.66 68.0568 189.771 68.3758C188.858 68.7038 187.834 68.4651 187.229 67.7841C186.617 67.0949 186.545 66.0694 187.055 65.3234C187.619 64.4985 188.73 64.1456 189.714 64.4895C189.938 64.5677 190.149 64.6833 190.416 64.8051C190.416 62.6433 190.416 60.5126 190.416 58.3342C187.992 58.3342 185.567 58.3342 183.065 58.3342C183.065 58.5528 183.065 58.7667 183.065 58.9812C183.065 61.8454 183.072 64.7096 183.061 67.5731C183.056 69.0948 181.841 70.121 180.398 69.8539C179.138 69.6207 178.341 68.5965 178.534 67.4596C178.72 66.3669 179.877 65.5656 181.069 65.7365C181.426 65.7863 181.77 65.9303 182.187 66.0507Z" fill="black"/>
<path d="M158.543 51.2593C158.543 45.7212 158.543 40.2101 158.543 34.6243C163.358 34.6243 168.136 34.6243 172.975 34.6243C172.999 34.7959 173.052 34.9917 173.053 35.1876C173.062 40.7014 173.073 46.2153 173.065 51.7291C173.063 53.3152 172.21 54.495 170.775 55.0092C169.303 55.5379 167.65 55.1531 166.675 54.0549C165.688 52.9429 165.571 51.2897 166.394 50.0849C167.304 48.7542 169.095 48.1847 170.683 48.7397C171.043 48.8656 171.383 49.0518 171.816 49.2483C171.816 45.7613 171.816 42.3248 171.816 38.8102C167.906 38.8102 163.994 38.8102 159.958 38.8102C159.958 39.1631 159.958 39.5084 159.958 39.8537C159.958 44.4735 159.97 49.0933 159.953 53.7131C159.944 56.1676 157.986 57.8236 155.657 57.3918C153.625 57.0153 152.339 55.3635 152.65 53.5297C152.949 51.7672 154.816 50.4745 156.739 50.7499C157.315 50.8323 157.87 51.0641 158.543 51.2593Z" fill="black"/>
<path d="M57.7511 80.5371C57.7511 72.8323 57.7511 65.2148 57.7511 57.4941C57.8577 57.6395 57.9102 57.7038 57.9552 57.7737C59.0569 59.4926 60.4118 60.9784 62.0318 62.2247C63.5258 63.3734 64.7334 64.7698 65.4849 66.5088C66.1021 67.9364 66.4371 69.4228 65.9817 70.975C65.4357 72.8358 63.5002 74.2426 61.5239 74.2184C61.8713 73.7859 62.2207 73.3762 62.5418 72.9458C63.1563 72.1244 63.4774 71.2117 63.2843 70.1764C63.2262 69.863 63.1328 69.5398 62.9791 69.2637C62.3653 68.1613 61.4609 67.3731 60.2859 66.9033C60.1821 66.8617 60.0707 66.8375 59.9115 66.7898C59.9115 67.0022 59.9115 67.1676 59.9115 67.3323C59.9115 72.9334 59.9108 78.5337 59.9122 84.1348C59.9122 85.2108 59.9378 86.2883 59.5032 87.309C58.5642 89.513 56.8639 90.8492 54.5935 91.4174C51.6317 92.1578 48.9295 91.5841 46.7386 89.3815C44.0744 86.7028 44.4557 82.5826 47.5074 80.2616C50.3834 78.0749 54.572 78.0957 57.4328 80.3108C57.5123 80.3717 57.5961 80.427 57.7511 80.5371Z" fill="black"/>
<path d="M28.3763 46.9847C28.3763 42.385 28.3763 37.8365 28.3763 33.2271C28.44 33.3136 28.4718 33.3523 28.4981 33.3938C29.1562 34.4201 29.9645 35.3072 30.9319 36.0511C31.8239 36.7369 32.5449 37.5707 32.9933 38.6087C33.3622 39.4606 33.5622 40.3484 33.2902 41.2757C32.9643 42.3864 31.8086 43.2265 30.6288 43.2119C30.8364 42.9538 31.0447 42.7088 31.2364 42.4521C31.6031 41.9615 31.7948 41.4169 31.6799 40.7989C31.6453 40.6121 31.5893 40.419 31.4979 40.2543C31.1312 39.5962 30.5914 39.1257 29.8904 38.8447C29.8281 38.8198 29.7617 38.8053 29.6669 38.7769C29.6669 38.9035 29.6669 39.0025 29.6669 39.1007C29.6669 42.4445 29.6662 45.7882 29.6676 49.1327C29.6676 49.7748 29.6828 50.4184 29.4233 51.0281C28.8628 52.3442 27.8476 53.1421 26.492 53.4812C24.7239 53.9234 23.1102 53.5808 21.8023 52.2654C20.2114 50.6661 20.4391 48.2061 22.2618 46.82C23.9787 45.5142 26.4802 45.5267 28.1881 46.8491C28.2338 46.8857 28.2836 46.919 28.3763 46.9847Z" fill="black"/>
<path d="M299.144 81.0221C299.144 76.4223 299.144 71.8738 299.144 67.2644C299.208 67.3509 299.239 67.3897 299.266 67.4312C299.924 68.4574 300.732 69.3446 301.7 70.0885C302.592 70.7742 303.313 71.6081 303.761 72.6461C304.13 73.4979 304.33 74.3858 304.058 75.3131C303.732 76.4237 302.577 77.2638 301.397 77.25C301.604 76.9918 301.813 76.7469 302.005 76.4901C302.372 75.9995 302.563 75.4549 302.448 74.837C302.414 74.6501 302.358 74.4571 302.266 74.2924C301.9 73.6343 301.36 73.1637 300.659 72.8827C300.597 72.8578 300.53 72.8433 300.435 72.8149C300.435 72.9416 300.435 73.0405 300.435 73.1388C300.435 76.4825 300.435 79.827 300.436 83.1707C300.436 83.8129 300.451 84.4565 300.192 85.0661C299.631 86.3823 298.616 87.1802 297.261 87.5192C295.493 87.9614 293.879 87.6189 292.571 86.3034C290.98 84.7042 291.208 82.2441 293.03 80.8581C294.747 79.5522 297.248 79.5647 298.957 80.8871C299.002 80.9231 299.051 80.9563 299.144 81.0221Z" fill="black"/>
<path d="M101.232 81.7142C101.232 77.1145 101.232 72.566 101.232 67.9565C101.296 68.043 101.327 68.0818 101.354 68.1233C102.012 69.1495 102.82 70.0367 103.788 70.7806C104.68 71.4664 105.401 72.3002 105.849 73.3382C106.218 74.1901 106.418 75.0779 106.146 76.0052C105.82 77.1159 104.664 77.9559 103.485 77.9421C103.692 77.684 103.9 77.439 104.092 77.1823C104.459 76.6917 104.651 76.1471 104.536 75.5291C104.501 75.3423 104.445 75.1492 104.354 74.9845C103.987 74.3264 103.447 73.8558 102.746 73.5749C102.683 73.55 102.617 73.5354 102.522 73.5071C102.522 73.6337 102.522 73.7327 102.522 73.8309C102.522 77.1747 102.521 80.5191 102.523 83.8629C102.523 84.505 102.538 85.1486 102.278 85.7582C101.718 87.0744 100.703 87.8723 99.3471 88.2114C97.5791 88.6536 95.9653 88.311 94.6574 86.9955C93.0665 85.3963 93.2942 82.9363 95.1169 81.5502C96.8338 80.2444 99.3354 80.2568 101.043 81.5793C101.09 81.6152 101.139 81.6485 101.232 81.7142Z" fill="black"/>
</g>
</svg>
