<svg width="72" height="72" viewBox="0 0 72 72" fill="none" xmlns="http://www.w3.org/2000/svg">
<path d="M67.9854 5.0625H59.7197V1.54688C59.7197 1.16016 59.3963 0.84375 59.001 0.84375H13.001C12.6057 0.84375 12.2822 1.16016 12.2822 1.54688V5.0625H4.0166C2.96817 5.0625 1.96267 5.46993 1.22132 6.19517C0.479965 6.92041 0.0634766 7.90405 0.0634766 8.92969V21.9375C0.0634766 29.1182 5.4541 35.0859 12.4799 36.1758C13.8725 46.3887 22.2549 54.4307 32.7666 55.5557V64.8018H15.1572C13.567 64.8018 12.2822 66.0586 12.2822 67.6143V70.4531C12.2822 70.8398 12.6057 71.1562 13.001 71.1562H59.001C59.3963 71.1562 59.7197 70.8398 59.7197 70.4531V67.6143C59.7197 66.0586 58.435 64.8018 56.8447 64.8018H39.2354V55.5557C49.7471 54.4307 58.1295 46.3887 59.5221 36.1758C66.5479 35.0859 71.9385 29.1182 71.9385 21.9375V8.92969C71.9385 7.90405 71.522 6.92041 70.7806 6.19517C70.0393 5.46993 69.0338 5.0625 67.9854 5.0625ZM6.53223 21.9375V11.3906H12.2822V29.6367C10.6134 29.1152 9.15704 28.0885 8.12353 26.7046C7.09001 25.3207 6.53277 23.6514 6.53223 21.9375ZM53.251 33.1875C53.251 37.5029 51.535 41.5723 48.4084 44.6221C45.2818 47.6807 41.1311 49.3594 36.7197 49.3594H35.2822C30.8709 49.3594 26.7111 47.6807 23.5936 44.6221C20.467 41.5635 18.751 37.5029 18.751 33.1875V7.17188H53.251V33.1875ZM65.4697 21.9375C65.4697 25.541 63.0529 28.5996 59.7197 29.6367V11.3906H65.4697V21.9375Z" fill="#937864"/>
</svg>
