<svg width="409" height="409" viewBox="0 0 409 409" fill="none" xmlns="http://www.w3.org/2000/svg">
<path d="M132.084 163.678C132.084 163.678 133.782 186.546 143.298 191.944C143.298 191.944 112.744 186.667 105.23 175.224C97.717 163.78 132.084 163.678 132.084 163.678Z" fill="url(#paint0_linear_2062_15994)"/>
<path d="M162.518 231.151C181.346 236.309 185.794 234.865 189.15 239.912C189.535 240.491 191.502 243.452 191.109 247.253C190.795 250.281 189.108 252.618 188.047 253.645C181.597 259.889 163.849 252.251 153.685 243.896C151.469 242.075 145.523 237.189 146.72 233.718C147.211 232.296 148.735 231.59 149.829 231.1C154.664 228.938 159.679 230.373 162.518 231.151Z" fill="url(#paint1_linear_2062_15994)"/>
<path d="M220.649 104.597H216.642V130.894H220.649V104.597Z" fill="url(#paint2_linear_2062_15994)"/>
<path d="M232.484 145.42H204.808C202.767 145.42 201.113 143.766 201.113 141.725V131.834C201.113 129.793 202.767 128.139 204.808 128.139H232.484C234.525 128.139 236.179 129.793 236.179 131.834V141.725C236.178 143.766 234.524 145.42 232.484 145.42Z" fill="url(#paint3_linear_2062_15994)"/>
<path d="M281.384 202.898C281.384 218.874 268.432 231.825 252.457 231.825H184.835C168.925 231.825 155.908 218.808 155.908 202.898V187.872C155.908 159.565 179.068 136.404 207.376 136.404H229.917C258.224 136.404 281.384 159.564 281.384 187.872L281.384 202.898Z" fill="url(#paint4_linear_2062_15994)"/>
<path d="M261.648 200.159C260.006 200.97 258.166 201.396 256.296 201.396H180.997C179.127 201.396 177.287 200.97 175.645 200.159C171.612 198.165 169.337 194.14 169.906 190.011L169.948 189.711C171.877 175.724 184.545 164.97 200.075 164.162C206.646 163.82 213.542 163.643 220.735 163.685C226.369 163.718 231.815 163.883 237.06 164.153C252.649 164.956 265.41 175.667 267.347 189.707C267.361 189.808 267.375 189.909 267.389 190.01C267.957 194.14 265.681 198.165 261.648 200.159Z" fill="url(#paint5_linear_2062_15994)"/>
<path d="M198.8 198.313C206.642 198.313 212.999 191.956 212.999 184.115C212.999 176.273 206.642 169.916 198.8 169.916C190.959 169.916 184.602 176.273 184.602 184.115C184.602 191.956 190.959 198.313 198.8 198.313Z" fill="url(#paint6_radial_2062_15994)"/>
<path d="M198.801 194.306C204.429 194.306 208.992 189.743 208.992 184.115C208.992 178.486 204.429 173.923 198.801 173.923C193.172 173.923 188.609 178.486 188.609 184.115C188.609 189.743 193.172 194.306 198.801 194.306Z" fill="#EEFDFF"/>
<path d="M198.801 192.674C203.528 192.674 207.36 188.842 207.36 184.115C207.36 179.387 203.528 175.555 198.801 175.555C194.073 175.555 190.241 179.387 190.241 184.115C190.241 188.842 194.073 192.674 198.801 192.674Z" fill="url(#paint7_linear_2062_15994)"/>
<path d="M204.284 181.896C204.284 183.647 202.864 185.067 201.113 185.067C199.362 185.067 197.942 183.647 197.942 181.896C197.942 180.146 199.362 178.726 201.113 178.726C202.864 178.726 204.284 180.146 204.284 181.896Z" fill="#EEFDFF"/>
<path d="M197.535 191.944C198.234 191.944 198.8 191.378 198.8 190.679C198.8 189.98 198.234 189.414 197.535 189.414C196.836 189.414 196.27 189.98 196.27 190.679C196.27 191.378 196.836 191.944 197.535 191.944Z" fill="#EEFDFF"/>
<path d="M194.397 188.781C194.397 189.13 194.114 189.413 193.765 189.413C193.416 189.413 193.133 189.13 193.133 188.781C193.133 188.431 193.416 188.148 193.765 188.148C194.114 188.148 194.397 188.432 194.397 188.781Z" fill="#EEFDFF"/>
<path d="M237.158 198.313C245 198.313 251.357 191.956 251.357 184.115C251.357 176.273 245 169.916 237.158 169.916C229.316 169.916 222.959 176.273 222.959 184.115C222.959 191.956 229.316 198.313 237.158 198.313Z" fill="url(#paint8_radial_2062_15994)"/>
<path d="M237.158 194.306C242.787 194.306 247.35 189.743 247.35 184.115C247.35 178.486 242.787 173.923 237.158 173.923C231.53 173.923 226.967 178.486 226.967 184.115C226.967 189.743 231.53 194.306 237.158 194.306Z" fill="#EEFDFF"/>
<path d="M237.158 192.674C241.886 192.674 245.718 188.842 245.718 184.115C245.718 179.387 241.886 175.555 237.158 175.555C232.431 175.555 228.599 179.387 228.599 184.115C228.599 188.842 232.431 192.674 237.158 192.674Z" fill="url(#paint9_linear_2062_15994)"/>
<path d="M242.642 181.896C242.642 183.647 241.222 185.067 239.471 185.067C237.721 185.067 236.3 183.647 236.3 181.896C236.3 180.146 237.72 178.726 239.471 178.726C241.223 178.726 242.642 180.146 242.642 181.896Z" fill="#EEFDFF"/>
<path d="M235.892 191.944C236.591 191.944 237.158 191.378 237.158 190.679C237.158 189.98 236.591 189.414 235.892 189.414C235.194 189.414 234.627 189.98 234.627 190.679C234.627 191.378 235.194 191.944 235.892 191.944Z" fill="#EEFDFF"/>
<path d="M232.755 188.781C232.755 189.13 232.472 189.413 232.123 189.413C231.773 189.413 231.49 189.13 231.49 188.781C231.49 188.431 231.773 188.148 232.123 188.148C232.472 188.148 232.755 188.432 232.755 188.781Z" fill="#EEFDFF"/>
<path d="M223.78 102.844C223.78 105.679 221.481 107.978 218.645 107.978C215.81 107.978 213.512 105.68 213.512 102.844C213.512 100.009 215.81 97.7092 218.645 97.7092C221.481 97.7092 223.78 100.008 223.78 102.844Z" fill="url(#paint10_linear_2062_15994)"/>
<path d="M222.215 100.84C222.215 101.704 221.514 102.405 220.65 102.405C219.785 102.405 219.084 101.704 219.084 100.84C219.084 99.9751 219.785 99.274 220.65 99.274C221.514 99.2749 222.215 99.9751 222.215 100.84Z" fill="white"/>
<path d="M262.854 152.866C262.922 155.263 260.965 158.13 258.724 158.375C256.623 158.604 254.945 156.458 253.215 154.244C251.51 152.063 247.781 146.458 249.266 144.873C251.223 142.783 262.693 147.211 262.854 152.866Z" fill="white"/>
<path d="M243.662 143.729C244.647 143.729 245.446 142.93 245.446 141.945C245.446 140.96 244.647 140.161 243.662 140.161C242.677 140.161 241.878 140.96 241.878 141.945C241.878 142.93 242.677 143.729 243.662 143.729Z" fill="white"/>
<path d="M262.6 186.116C262.027 186.52 258.036 178.389 247.322 171.34C243.556 168.861 239.838 167.095 240.059 166.582C240.283 166.061 244.471 167.03 247.823 168.585C258.504 173.54 263.281 185.636 262.6 186.116Z" fill="white"/>
<path d="M235.164 133.255C235.037 133.273 234.955 132.523 234.33 131.363C234.33 131.363 234.038 130.821 233.704 130.361C232.628 128.881 228.982 128.914 228.696 128.916C223.016 128.965 219.365 128.605 219.366 128.639C219.367 128.668 222.03 128.614 223.982 128.575C229.488 128.463 232.768 128.167 234.174 129.642C234.758 130.253 235.051 131.05 235.051 131.05C235.449 132.132 235.316 133.233 235.164 133.255Z" fill="white"/>
<path d="M233.983 207.489C233.844 208.849 232.712 209.897 231.351 210.028L212.541 211.841C211.181 211.972 209.869 211.162 209.472 209.853C209.296 209.271 209.16 208.672 209.067 208.055C209.042 207.885 209.087 207.711 209.193 207.575C209.3 207.439 209.457 207.353 209.629 207.336L233.358 205.047C233.527 205.031 233.695 205.085 233.823 205.196C233.952 205.307 234.028 205.467 234.035 205.636C234.064 206.264 234.045 206.882 233.983 207.489Z" fill="#EEFDFF"/>
<path d="M233.983 207.491C233.382 213.321 228.747 218.115 222.691 218.693C216.718 219.271 211.323 215.568 209.55 210.083C210.023 211.255 211.255 211.969 212.54 211.841L231.354 210.03C232.714 209.895 233.841 208.85 233.983 207.491Z" fill="url(#paint11_linear_2062_15994)"/>
<path d="M263.618 249.735C263.618 249.907 263.618 250.072 263.611 250.23C263.551 251.808 263.182 252.995 263.002 253.528C257.825 269.345 254.723 277.685 250.372 284.432C249.621 285.597 248.832 286.716 247.983 287.812C246.871 289.278 245.654 290.705 244.301 292.178C241.296 295.447 236.75 296.927 235.285 297.438C229.928 299.332 225.194 298.986 222.047 299.016H221.498C218.342 298.986 213.616 299.332 208.259 297.438C206.794 296.927 202.241 295.447 199.243 292.178C190.978 283.184 187.8 275.709 180.542 253.528C180.37 253.018 180.024 251.913 179.941 250.433C179.919 250.005 179.911 249.577 179.934 249.148C180.091 246.496 181.166 243.896 183.075 241.522C186.343 237.45 191.392 235.218 196.614 235.195L221.777 235.09L246.481 234.993C251.816 234.97 256.985 237.209 260.373 241.334C262.012 243.332 263.055 245.488 263.439 247.712C263.491 248.028 263.536 248.351 263.567 248.667C263.595 249.02 263.618 249.374 263.618 249.735Z" fill="url(#paint12_linear_2062_15994)"/>
<path d="M221.772 235.094L196.609 235.199C191.387 235.222 186.339 237.454 183.07 241.526C181.161 243.901 180.087 246.5 179.929 249.152C180.056 246.432 181.176 243.765 183.167 241.338C186.548 237.213 191.725 234.974 197.059 234.997L221.772 235.094Z" fill="url(#paint13_linear_2062_15994)"/>
<path d="M246.78 272.165C246.413 252.647 243.771 248.787 247.667 244.144C248.114 243.61 250.399 240.887 254.156 240.192C257.15 239.638 259.867 240.597 261.153 241.325C268.963 245.749 266.646 264.932 261.501 277.042C260.379 279.682 257.37 286.765 253.702 286.596C252.199 286.527 251.091 285.264 250.314 284.353C246.874 280.325 246.835 275.107 246.78 272.165Z" fill="url(#paint14_linear_2062_15994)"/>
<path d="M250.372 284.432C249.621 285.597 248.832 286.716 247.982 287.812C247.712 287.534 247.471 287.256 247.254 287.001C243.812 282.974 243.775 277.759 243.722 274.814C243.354 255.295 240.71 251.44 244.609 246.796C244.894 246.451 245.939 245.211 247.637 244.182C243.79 248.81 246.413 252.702 246.781 272.163C246.833 275.107 246.878 280.322 250.312 284.357C250.334 284.379 250.357 284.401 250.372 284.432Z" fill="url(#paint15_linear_2062_15994)"/>
<path d="M261.386 255.911C261.275 253.814 260.882 252.272 260.095 249.187C259.066 245.15 257.775 243.183 258.614 242.404C259.159 241.896 260.234 242.239 260.478 242.317C264.167 243.494 265.309 250.415 265.15 254.746C265.053 257.398 264.406 260.364 263.434 260.495C263.281 260.515 262.9 260.495 262.627 260.254C261.543 259.296 261.47 257.506 261.386 255.911Z" fill="white"/>
<path d="M263.919 263.313C263.919 263.736 263.576 264.079 263.153 264.079C262.73 264.079 262.388 263.736 262.388 263.313C262.388 262.89 262.73 262.548 263.153 262.548C263.576 262.548 263.919 262.89 263.919 263.313Z" fill="white"/>
<path d="M220.649 334.271C242.817 334.271 260.788 326.914 260.788 317.838C260.788 308.762 242.817 301.405 220.649 301.405C198.481 301.405 180.51 308.762 180.51 317.838C180.51 326.914 198.481 334.271 220.649 334.271Z" fill="url(#paint16_radial_2062_15994)"/>
<path d="M109.244 175.224H54.3892C33.0385 175.224 15.5693 157.755 15.5693 136.404C15.5693 115.053 33.0385 97.5841 54.3892 97.5841H109.244C130.595 97.5841 148.064 115.053 148.064 136.404C148.064 157.755 130.596 175.224 109.244 175.224Z" fill="url(#paint17_linear_2062_15994)"/>
<path d="M57.2109 151.259C57.2314 151.705 55.9144 151.989 53.2616 152.112C50.608 152.234 49.2714 152.072 49.251 151.625L48.8346 142.562L43.318 142.815L43.7344 151.879C43.7548 152.325 42.4387 152.61 39.7851 152.732C37.1315 152.854 35.7949 152.692 35.7744 152.245L34.5736 126.119C34.5482 125.568 35.862 125.231 38.5155 125.109C41.1691 124.987 42.5082 125.202 42.5336 125.754L42.9589 135.014L48.4763 134.761L48.0542 125.579C48.0371 125.211 48.6817 124.918 49.988 124.701C50.6686 124.617 51.3369 124.56 51.9945 124.53L54.0077 124.516C55.3287 124.613 55.9978 124.846 56.0142 125.214L57.2109 151.259Z" fill="url(#paint18_linear_2062_15994)"/>
<path d="M75.8306 150.007C74.22 151.055 72.1144 151.639 69.514 151.759C66.9136 151.878 64.6788 151.092 62.8113 149.401C60.943 147.71 59.9369 145.296 59.7929 142.156C59.6489 139.017 60.3925 136.449 62.0252 134.451C63.6571 132.455 65.7872 131.395 68.4146 131.275C71.0412 131.154 73.1009 131.731 74.5946 133.005C76.0883 134.28 76.8785 135.875 76.9668 137.793C77.1623 142.049 74.8171 144.289 69.9312 144.514L67.2122 144.639C67.2482 145.427 67.4903 145.962 67.9369 146.244C68.3844 146.527 69.0281 146.649 69.869 146.609C71.7079 146.525 73.4355 146.024 75.0519 145.107C75.0764 145.08 75.2032 145.258 75.4314 145.642C76.1136 146.743 76.4727 147.681 76.5087 148.455C76.5455 149.232 76.3181 149.749 75.8306 150.007ZM70.3819 138.846C70.3312 137.742 69.7668 137.215 68.6903 137.265C68.1905 137.288 67.7709 137.459 67.4306 137.777C67.0895 138.096 66.9324 138.545 66.9594 139.122L67.0158 140.343L69.1435 140.245C70.0097 140.206 70.4228 139.74 70.3819 138.846Z" fill="url(#paint19_linear_2062_15994)"/>
<path d="M87.293 150.231C87.3036 150.468 85.9695 150.648 83.2897 150.77C81.1866 150.841 80.1314 150.784 80.1224 150.6L78.8889 123.765C78.8709 123.371 80.1355 123.115 82.6844 122.998C84.92 122.975 86.0431 123.055 86.0521 123.238L87.293 150.231Z" fill="url(#paint20_linear_2062_15994)"/>
<path d="M98.0108 149.739C98.0214 149.975 96.6872 150.155 94.0075 150.278C91.9044 150.348 90.8492 150.292 90.8402 150.108L89.6066 123.272C89.5886 122.878 90.8533 122.623 93.4022 122.506C95.6386 122.482 96.7609 122.562 96.7699 122.747L98.0108 149.739Z" fill="url(#paint21_linear_2062_15994)"/>
<path d="M103.179 147.487C101.453 145.749 100.517 143.279 100.37 140.073C100.222 136.868 100.928 134.322 102.487 132.434C104.045 130.546 106.217 129.538 109.001 129.41C111.786 129.282 114.034 130.087 115.746 131.825C117.458 133.562 118.389 136.034 118.536 139.239C118.683 142.445 117.984 144.99 116.438 146.878C114.892 148.765 112.727 149.773 109.944 149.901C107.159 150.028 104.904 149.224 103.179 147.487ZM109.323 135.99C107.839 136.058 107.153 137.301 107.264 139.718C107.375 142.135 108.173 143.309 109.656 143.241C111.14 143.173 111.827 141.93 111.716 139.513C111.606 137.096 110.807 135.921 109.323 135.99Z" fill="url(#paint22_linear_2062_15994)"/>
<path d="M121.513 143.051C121.505 142.867 122.715 142.719 125.146 142.608C127.575 142.496 128.794 142.518 128.801 142.676L129.062 148.351C129.075 148.614 127.865 148.801 125.435 148.913C123.005 149.025 121.786 149.001 121.78 148.844L121.513 143.051ZM127.906 140.388C127.914 140.545 126.978 140.667 125.1 140.753C123.221 140.84 122.279 140.818 122.273 140.686L120.592 121.295C120.582 121.086 121.779 120.925 124.183 120.814C126.586 120.704 127.793 120.741 127.801 120.925L127.906 140.388Z" fill="url(#paint23_linear_2062_15994)"/>
<path d="M126.905 136.625C126.905 136.625 125.351 122.556 126.123 122.172C126.896 121.789 127.263 129.474 126.905 136.625Z" fill="white"/>
<path d="M128.444 143.729C128.444 144.196 128.065 144.574 127.599 144.574C127.132 144.574 126.754 144.195 126.754 143.729C126.754 143.262 127.133 142.884 127.599 142.884C128.065 142.884 128.444 143.263 128.444 143.729Z" fill="white"/>
<path d="M117.375 137.568C117.38 136.783 117.286 134.547 115.662 132.734C114.266 131.176 112.398 130.667 111.548 130.766C111.386 130.785 110.837 130.88 110.801 131.11C110.726 131.585 112.972 131.917 114.651 133.176C115.591 133.88 116.705 135.138 117.375 137.568Z" fill="white"/>
<path d="M95.5178 122.999C96.3808 122.99 96.7096 138.768 96.4585 141.622C96.2074 144.476 95.1702 123.002 95.5178 122.999Z" fill="white"/>
<path d="M75.9995 136.508C75.6216 134.375 73.1864 131.979 71.6665 132.354C70.1459 132.729 73.4678 133.882 74.6588 134.911C75.849 135.941 75.9995 136.508 75.9995 136.508Z" fill="white"/>
<path d="M62.6541 148.659C64.4201 150.618 66.9428 150.995 66.978 150.912C67.0156 150.824 64.2156 150.449 62.7432 148.201C62.0504 147.144 61.3641 145.235 60.9076 145.234C60.897 145.234 60.879 145.235 60.8626 145.247C60.6287 145.417 61.5228 147.405 62.6541 148.659Z" fill="white"/>
<path d="M56.1872 148.261C55.6236 149.035 55.5483 129.124 55.1876 127.178C55.1876 127.178 55.1876 127.178 55.1876 127.05C55.1802 126.922 55.1729 126.667 55.1647 126.156C55.163 126.043 55.0583 125.653 54.9683 125.571C54.2305 124.904 50.988 125.24 52.3704 125.059C53.5917 124.9 55.0011 125.019 55.3602 125.148C55.5172 125.205 55.5262 125.51 55.5639 125.623C56.2698 129.567 56.9381 147.239 56.1872 148.261Z" fill="white"/>
<path d="M143.192 126.781C142.329 127.422 136.325 115.799 121.332 107.834C112.897 103.353 106.016 102.365 106.196 101.551C106.407 100.597 116.239 100.244 125.154 104.704C138.543 111.403 144.125 126.088 143.192 126.781Z" fill="white"/>
<path d="M144.319 132.286C144.886 132.286 145.345 131.826 145.345 131.26C145.345 130.693 144.886 130.233 144.319 130.233C143.752 130.233 143.292 130.693 143.292 131.26C143.292 131.826 143.752 132.286 144.319 132.286Z" fill="white"/>
<path d="M63.9712 103.362C67.9486 103.362 71.1729 102.629 71.1729 101.726C71.1729 100.822 67.9486 100.09 63.9712 100.09C59.9938 100.09 56.7695 100.822 56.7695 101.726C56.7695 102.629 59.9938 103.362 63.9712 103.362Z" fill="white"/>
<path d="M79.9842 101.726C79.9842 102.215 79.1114 102.612 78.0341 102.612C76.9568 102.612 76.084 102.215 76.084 101.726C76.084 101.236 76.9568 100.84 78.0341 100.84C79.1114 100.84 79.9842 101.236 79.9842 101.726Z" fill="white"/>
<path d="M42.2283 130.607C42.3698 133.116 42.3477 135.157 42.1784 135.167C42.0091 135.177 41.7572 133.151 41.6156 130.641C41.4741 128.132 41.4962 126.091 41.6655 126.081C41.8349 126.072 42.0868 128.098 42.2283 130.607Z" fill="white"/>
<path d="M133.879 180.232C135.05 183.519 136.275 185.44 135.992 185.617C135.673 185.818 133.562 183.726 132.311 180.982C130.123 176.18 131.298 170.977 131.765 170.961C132.159 170.949 131.877 174.611 133.879 180.232Z" fill="white"/>
<defs>
<linearGradient id="paint0_linear_2062_15994" x1="116.126" y1="161.796" x2="126.645" y2="190.347" gradientUnits="userSpaceOnUse">
<stop stop-color="#AEF0EB"/>
<stop offset="0.0131" stop-color="#B0F0EB"/>
<stop offset="0.1379" stop-color="#C2F4EB"/>
<stop offset="0.2895" stop-color="#CEF6EA"/>
<stop offset="0.4961" stop-color="#D5F8EA"/>
<stop offset="1" stop-color="#D7F8EA"/>
</linearGradient>
<linearGradient id="paint1_linear_2062_15994" x1="173.234" y1="243.017" x2="246.235" y2="299.753" gradientUnits="userSpaceOnUse">
<stop offset="0.0397" stop-color="#06BED8"/>
<stop offset="1" stop-color="#DEFA8E"/>
</linearGradient>
<linearGradient id="paint2_linear_2062_15994" x1="210.479" y1="118.936" x2="222.5" y2="117.183" gradientUnits="userSpaceOnUse">
<stop offset="0.0397" stop-color="#06CFF1"/>
<stop offset="1" stop-color="#DEFA8E"/>
</linearGradient>
<linearGradient id="paint3_linear_2062_15994" x1="207.413" y1="149.462" x2="228.747" y2="125.375" gradientUnits="userSpaceOnUse">
<stop offset="0.0397" stop-color="#06CFF1"/>
<stop offset="1" stop-color="#DEFA8E"/>
</linearGradient>
<linearGradient id="paint4_linear_2062_15994" x1="176.512" y1="232.894" x2="261.051" y2="148.355" gradientUnits="userSpaceOnUse">
<stop offset="0.0397" stop-color="#06CFF1"/>
<stop offset="1" stop-color="#DEFA8E"/>
</linearGradient>
<linearGradient id="paint5_linear_2062_15994" x1="218.424" y1="201.274" x2="219.175" y2="167.463" gradientUnits="userSpaceOnUse">
<stop stop-color="#030D14"/>
<stop offset="1" stop-color="#0B2F45"/>
</linearGradient>
<radialGradient id="paint6_radial_2062_15994" cx="0" cy="0" r="1" gradientUnits="userSpaceOnUse" gradientTransform="translate(198.8 184.115) scale(14.0519 14.0519)">
<stop offset="0.1296" stop-color="#3280FC"/>
<stop offset="1"/>
</radialGradient>
<linearGradient id="paint7_linear_2062_15994" x1="190.241" y1="184.115" x2="207.36" y2="184.115" gradientUnits="userSpaceOnUse">
<stop stop-color="#030D14"/>
<stop offset="1" stop-color="#0B2F45"/>
</linearGradient>
<radialGradient id="paint8_radial_2062_15994" cx="0" cy="0" r="1" gradientUnits="userSpaceOnUse" gradientTransform="translate(237.158 184.115) scale(14.0519)">
<stop offset="0.1296" stop-color="#3280FC"/>
<stop offset="1"/>
</radialGradient>
<linearGradient id="paint9_linear_2062_15994" x1="228.598" y1="184.115" x2="245.718" y2="184.115" gradientUnits="userSpaceOnUse">
<stop stop-color="#030D14"/>
<stop offset="1" stop-color="#0B2F45"/>
</linearGradient>
<linearGradient id="paint10_linear_2062_15994" x1="207.838" y1="104.42" x2="223.748" y2="102.099" gradientUnits="userSpaceOnUse">
<stop offset="0.0397" stop-color="#06CFF1"/>
<stop offset="1" stop-color="#DEFA8E"/>
</linearGradient>
<linearGradient id="paint11_linear_2062_15994" x1="218.132" y1="214.406" x2="242.609" y2="189.929" gradientUnits="userSpaceOnUse">
<stop offset="0.0714" stop-color="#0DA9AB"/>
<stop offset="1" stop-color="#DEFA8E"/>
</linearGradient>
<linearGradient id="paint12_linear_2062_15994" x1="195.015" y1="288.684" x2="259.866" y2="212.954" gradientUnits="userSpaceOnUse">
<stop offset="0.0397" stop-color="#06CFF1"/>
<stop offset="0.0408" stop-color="#06CFF1"/>
<stop offset="0.1607" stop-color="#37D9DB"/>
<stop offset="0.2745" stop-color="#5DE0CA"/>
<stop offset="0.3793" stop-color="#78E6BD"/>
<stop offset="0.4719" stop-color="#88E9B6"/>
<stop offset="0.5423" stop-color="#8EEAB3"/>
<stop offset="0.8004" stop-color="#B9F39F"/>
<stop offset="1" stop-color="#DEFA8E"/>
</linearGradient>
<linearGradient id="paint13_linear_2062_15994" x1="191.579" y1="250.929" x2="230.579" y2="205.388" gradientUnits="userSpaceOnUse">
<stop offset="0.0397" stop-color="#06CFF1"/>
<stop offset="1" stop-color="#DEFA8E"/>
</linearGradient>
<linearGradient id="paint14_linear_2062_15994" x1="275.374" y1="277.376" x2="226.818" y2="241.863" gradientUnits="userSpaceOnUse">
<stop offset="0.0397" stop-color="#06CFF1"/>
<stop offset="0.0734" stop-color="#0FD1ED"/>
<stop offset="0.4151" stop-color="#67E2C5"/>
<stop offset="0.6937" stop-color="#A7EFA7"/>
<stop offset="0.8955" stop-color="#CFF795"/>
<stop offset="1" stop-color="#DEFA8E"/>
</linearGradient>
<linearGradient id="paint15_linear_2062_15994" x1="232.585" y1="273.932" x2="266.996" y2="255.999" gradientUnits="userSpaceOnUse">
<stop offset="0.0397" stop-color="#06BED8"/>
<stop offset="1" stop-color="#DEFA8E"/>
</linearGradient>
<radialGradient id="paint16_radial_2062_15994" cx="0" cy="0" r="1" gradientUnits="userSpaceOnUse" gradientTransform="translate(220.649 317.838) scale(40.1391 16.4325)">
<stop stop-color="#BCD7D6"/>
<stop offset="1" stop-color="white"/>
</radialGradient>
<linearGradient id="paint17_linear_2062_15994" x1="15.5695" y1="136.404" x2="148.064" y2="136.404" gradientUnits="userSpaceOnUse">
<stop stop-color="#D7F8EA"/>
<stop offset="0.5053" stop-color="#ECF8F2"/>
<stop offset="1" stop-color="#D7F8EA"/>
</linearGradient>
<linearGradient id="paint18_linear_2062_15994" x1="36.4584" y1="141.091" x2="142.249" y2="113.499" gradientUnits="userSpaceOnUse">
<stop offset="0.0397" stop-color="#06CFF1"/>
<stop offset="1" stop-color="#DEFA8E"/>
</linearGradient>
<linearGradient id="paint19_linear_2062_15994" x1="38.6534" y1="149.509" x2="144.445" y2="121.916" gradientUnits="userSpaceOnUse">
<stop offset="0.0397" stop-color="#06CFF1"/>
<stop offset="1" stop-color="#DEFA8E"/>
</linearGradient>
<linearGradient id="paint20_linear_2062_15994" x1="38.4126" y1="148.578" x2="144.202" y2="120.986" gradientUnits="userSpaceOnUse">
<stop offset="0.0397" stop-color="#06CFF1"/>
<stop offset="1" stop-color="#DEFA8E"/>
</linearGradient>
<linearGradient id="paint21_linear_2062_15994" x1="38.9759" y1="150.734" x2="144.764" y2="123.142" gradientUnits="userSpaceOnUse">
<stop offset="0.0397" stop-color="#06CFF1"/>
<stop offset="1" stop-color="#DEFA8E"/>
</linearGradient>
<linearGradient id="paint22_linear_2062_15994" x1="40.7588" y1="157.577" x2="146.551" y2="129.984" gradientUnits="userSpaceOnUse">
<stop offset="0.0397" stop-color="#06CFF1"/>
<stop offset="1" stop-color="#DEFA8E"/>
</linearGradient>
<linearGradient id="paint23_linear_2062_15994" x1="40.5643" y1="156.822" x2="146.353" y2="129.23" gradientUnits="userSpaceOnUse">
<stop offset="0.0397" stop-color="#06CFF1"/>
<stop offset="1" stop-color="#DEFA8E"/>
</linearGradient>
</defs>
</svg>
