<svg width="93" height="92" viewBox="0 0 93 92" fill="none" xmlns="http://www.w3.org/2000/svg">
<path d="M87.8711 6.125H77.1797V1.59375C77.1797 1.09531 76.7613 0.6875 76.25 0.6875H16.75C16.2387 0.6875 15.8203 1.09531 15.8203 1.59375V6.125H5.12891C3.77278 6.125 2.4722 6.65014 1.51327 7.58489C0.554344 8.51964 0.015625 9.78744 0.015625 11.1094V27.875C0.015625 37.1301 6.98828 44.8219 16.076 46.2266C17.8772 59.3898 28.7197 69.7551 42.3164 71.2051V83.1223H19.5391C17.4821 83.1223 15.8203 84.7422 15.8203 86.7473V90.4062C15.8203 90.9047 16.2387 91.3125 16.75 91.3125H76.25C76.7613 91.3125 77.1797 90.9047 77.1797 90.4062V86.7473C77.1797 84.7422 75.5179 83.1223 73.4609 83.1223H50.6836V71.2051C64.2803 69.7551 75.1228 59.3898 76.924 46.2266C86.0117 44.8219 92.9844 37.1301 92.9844 27.875V11.1094C92.9844 9.78744 92.4456 8.51964 91.4867 7.58489C90.5278 6.65014 89.2272 6.125 87.8711 6.125ZM8.38281 27.875V14.2812H15.8203V37.7984C13.6617 37.1263 11.778 35.8029 10.4411 34.0192C9.1043 32.2356 8.38351 30.084 8.38281 27.875ZM68.8125 42.375C68.8125 47.9371 66.5929 53.182 62.5487 57.1129C58.5046 61.0551 53.1356 63.2188 47.4297 63.2188H45.5703C39.8644 63.2188 34.4838 61.0551 30.4513 57.1129C26.4071 53.1707 24.1875 47.9371 24.1875 42.375V8.84375H68.8125V42.375ZM84.6172 27.875C84.6172 32.5195 81.4911 36.4617 77.1797 37.7984V14.2812H84.6172V27.875Z" fill="#FFB660"/>
</svg>
