<svg width="333" height="297" viewBox="0 0 333 297" fill="none" xmlns="http://www.w3.org/2000/svg">
<rect x="141" width="6" height="101" fill="white"/>
<rect x="152" width="8" height="116" fill="white"/>
<g style="mix-blend-mode:luminosity" clip-path="url(#clip0_2310_14852)">
<path style="mix-blend-mode:overlay" d="M229.836 262.701C275.506 216.968 275.506 142.82 229.836 97.0867C184.165 51.3537 110.119 51.3537 64.4484 97.0867C18.7781 142.82 18.778 216.968 64.4484 262.701C110.119 308.434 184.165 308.434 229.836 262.701Z" fill="url(#paint0_radial_2310_14852)"/>
<path d="M140.382 88.7448H140.16C142.469 88.5691 144.799 88.4797 147.151 88.4797C144.873 88.4797 142.617 88.5691 140.382 88.7448Z" fill="#E48A8F"/>
<path d="M140.932 88.7448H140.381C142.616 88.5691 144.872 88.4797 147.15 88.4797C145.057 88.4797 142.985 88.5691 140.935 88.7448" fill="#E48A8F"/>
<path d="M141.773 88.7448H140.933C142.986 88.5691 145.058 88.4797 147.148 88.4797L141.773 88.7448Z" fill="#E48A8F"/>
<path d="M142.865 88.7448H141.772L147.147 88.4797C145.707 88.4797 144.278 88.5691 142.862 88.7448" fill="#E48A8F"/>
<path d="M144.167 88.7448H142.865C144.281 88.5691 145.707 88.4797 147.15 88.4797C146.147 88.4797 145.152 88.5691 144.167 88.7448Z" fill="#E48B90"/>
<path d="M145.636 88.7448H144.164C145.149 88.5691 146.143 88.4797 147.147 88.4797C146.639 88.4797 146.134 88.5691 145.636 88.7448Z" fill="#E48B90"/>
<path d="M147.236 88.7448H145.636C146.134 88.5691 146.639 88.4797 147.147 88.4797C147.175 88.4797 147.206 88.5691 147.233 88.7448" fill="#E58C91"/>
<path d="M148.816 88.7448H147.237C147.209 88.5691 147.178 88.4797 147.15 88.4797C147.711 88.4797 148.268 88.5691 148.816 88.7448Z" fill="#E58C91"/>
<path d="M150.266 88.7448H148.813C148.265 88.5691 147.708 88.4797 147.147 88.4797C148.194 88.4797 149.235 88.5691 150.263 88.7448" fill="#E58D91"/>
<path d="M151.546 88.7448H150.266C149.238 88.5691 148.197 88.4797 147.15 88.4797C148.631 88.4797 150.096 88.5691 151.549 88.7448" fill="#E58D91"/>
<path d="M152.618 88.7448H151.549C150.099 88.5691 148.631 88.4797 147.15 88.4797C148.991 88.4797 150.814 88.5691 152.618 88.7448Z" fill="#E58E93"/>
<path d="M153.43 88.7448H152.615C150.811 88.5691 148.988 88.4797 147.147 88.4797C149.259 88.4797 151.356 88.5691 153.43 88.7448Z" fill="#E58E93"/>
<path d="M153.954 88.7448H153.43C151.359 88.5691 149.262 88.4797 147.147 88.4797C149.438 88.4797 151.706 88.5691 153.954 88.7448Z" fill="#E58E93"/>
<path d="M154.141 88.7448H153.954C151.706 88.5691 149.438 88.4797 147.147 88.4797C149.499 88.4797 151.83 88.5691 154.138 88.7448" fill="#E58E93"/>
<path d="M123.527 91.5746H123.518C126.405 90.8009 129.348 90.1659 132.34 89.6789C134.686 89.3922 137.801 88.9329 140.156 88.7479C134.449 89.1795 128.889 90.1412 123.524 91.5777" fill="#DC7284"/>
<path d="M124.272 91.5747H123.527C128.893 90.1382 134.452 89.1795 140.16 88.7449H140.381C134.856 89.1764 129.469 90.1382 124.272 91.5747Z" fill="#E28289"/>
<path d="M126.138 91.5747H124.275C129.472 90.1382 134.856 89.1795 140.384 88.7449H140.935C135.859 89.1764 130.912 90.1382 126.138 91.5747Z" fill="#E3848B"/>
<path d="M128.982 91.5747H126.138C130.912 90.1382 135.856 89.1795 140.935 88.7449H141.776C137.386 89.1764 133.11 90.1382 128.982 91.5747Z" fill="#E3868C"/>
<path d="M132.67 91.5747H128.982C133.11 90.1382 137.386 89.1795 141.776 88.7449H142.869C139.369 89.1764 135.961 90.1382 132.673 91.5747" fill="#BB5162"/>
<path d="M137.066 91.5747H132.667C135.958 90.1382 139.365 89.1795 142.862 88.7449H144.165C141.73 89.1764 139.356 90.1382 137.066 91.5747Z" fill="#E48A8F"/>
<path d="M142.037 91.5745H137.065C139.356 90.1381 141.729 89.1794 144.164 88.7448H145.636C144.401 89.1763 143.197 90.1381 142.037 91.5745Z" fill="#FFA6B1"/>
<path d="M147.443 91.5747H142.037C143.198 90.1382 144.401 89.1795 145.636 88.7449H147.236C147.307 89.1764 147.375 90.1382 147.443 91.5747Z" fill="#E58E93"/>
<path d="M152.777 91.5747H147.44C147.375 90.1382 147.304 89.1795 147.233 88.7449H148.813C150.173 89.1764 151.497 90.1382 152.777 91.5747Z" fill="#E59097"/>
<path d="M157.681 91.5747H152.78C151.5 90.1382 150.176 89.1795 148.815 88.7449H150.268C152.811 89.1764 155.292 90.1382 157.684 91.5747" fill="#FFF0F3"/>
<path d="M162.01 91.5747H157.678C155.287 90.1382 152.808 89.1795 150.263 88.7449H151.543C155.136 89.1764 158.633 90.1382 162.007 91.5747" fill="#E69198"/>
<path d="M165.626 91.5745H162.009C158.632 90.1381 155.135 89.1794 151.546 88.7448H152.614C157.078 89.1763 161.427 90.1381 165.623 91.5745" fill="#E69299"/>
<path d="M168.381 91.5747H165.626C161.43 90.1382 157.081 89.1795 152.617 88.7449H153.433C158.561 89.1764 163.561 90.1382 168.381 91.5747Z" fill="#E69399"/>
<path d="M170.149 91.5747H168.382C163.558 90.1382 158.562 89.1795 153.434 88.7449H153.957C159.513 89.1764 164.925 90.1382 170.149 91.5747Z" fill="#E69499"/>
<path d="M170.776 91.5747H170.148C164.924 90.1382 159.509 89.1795 153.956 88.7449H154.144C159.851 89.1764 165.414 90.1382 170.779 91.5747" fill="#E69499"/>
<path d="M108.061 97.2681H108.046C111.358 95.6929 114.778 94.3119 118.294 93.1406C120.011 92.5672 121.754 92.0432 123.518 91.5715H123.527C118.161 93.008 112.99 94.9223 108.061 97.2681Z" fill="#D57887"/>
<path d="M109.296 97.2681H108.062C112.99 94.9254 118.162 93.008 123.527 91.5715H124.272C119.076 93.008 114.067 94.9223 109.296 97.2681Z" fill="#E27E87"/>
<path d="M112.38 97.2681H109.299C114.07 94.9254 119.079 93.008 124.275 91.5715H126.137C121.366 93.008 116.764 94.9223 112.38 97.2681Z" fill="#E38189"/>
<path d="M117.084 97.2681H112.38C116.763 94.9254 121.366 93.008 126.137 91.5715H128.981C124.853 93.008 120.876 94.9223 117.087 97.2681" fill="#E28389"/>
<path d="M123.188 97.2681H117.084C120.873 94.9254 124.851 93.008 128.979 91.5715H132.667C129.379 93.008 126.208 94.9223 123.185 97.2681" fill="#E3868C"/>
<path d="M130.466 97.2681H123.188C126.208 94.9254 129.379 93.008 132.67 91.5715H137.069C134.778 93.008 132.571 94.9223 130.466 97.2681Z" fill="#E48B90"/>
<path d="M138.691 97.2681H130.466C132.568 94.9254 134.775 93.008 137.069 91.5715H142.04C140.88 93.008 139.759 94.9223 138.694 97.2681" fill="#E69095"/>
<path d="M147.633 97.2681H138.69C139.759 94.9254 140.876 93.008 142.037 91.5715H147.442C147.51 93.008 147.575 94.9223 147.633 97.2681Z" fill="#FFBFC8"/>
<path d="M156.466 97.2681H147.634C147.573 94.9254 147.511 93.008 147.443 91.5715H152.781C154.059 93.008 155.293 94.9223 156.466 97.2681Z" fill="#CD6878"/>
<path d="M164.577 97.2681H156.462C155.289 94.9254 154.055 93.008 152.777 91.5715H157.678C160.073 93.008 162.379 94.9223 164.574 97.2681" fill="#E8999E"/>
<path d="M171.742 97.2681H164.579C162.381 94.9254 160.075 93.008 157.684 91.5715H162.015C165.392 93.008 168.646 94.9223 171.745 97.2681" fill="#D98995"/>
<path d="M177.725 97.2681H171.743C168.643 94.9254 165.39 93.008 162.013 91.5715H165.63C169.826 93.008 173.874 94.9223 177.728 97.2681" fill="#E8999E"/>
<path d="M182.281 97.2681H177.725C173.871 94.9254 169.826 93.008 165.627 91.5715H168.382C173.203 93.008 177.851 94.9223 182.281 97.2681Z" fill="#D27886"/>
<path d="M185.205 97.2681H182.281C177.851 94.9254 173.203 93.008 168.382 91.5715H170.149C175.373 93.008 180.409 94.9223 185.208 97.2681" fill="#E7989D"/>
<path d="M186.245 97.2681H185.205C180.406 94.9254 175.373 93.008 170.146 91.5715H170.774C176.139 93.008 181.311 94.9223 186.242 97.2681" fill="#E7979B"/>
<path d="M94.0546 105.542H94.0361C97.5762 103.002 101.304 100.708 105.195 98.6892C106.137 98.2022 107.088 97.7275 108.046 97.2712H108.061C103.133 99.614 98.4474 102.388 94.0546 105.542Z" fill="#DC7284"/>
<path d="M95.7334 105.542H94.0557C98.4515 102.388 103.134 99.614 108.062 97.2712H109.297C104.525 99.614 99.9876 102.388 95.7334 105.542Z" fill="#E0747D"/>
<path d="M99.919 105.542H95.7324C99.9867 102.388 104.524 99.614 109.296 97.2712H112.377C107.993 99.614 103.825 102.388 99.919 105.542Z" fill="#AE4759"/>
<path d="M106.31 105.542H99.9189C103.828 102.388 107.997 99.614 112.377 97.2712H117.081C113.291 99.614 109.687 102.388 106.307 105.542" fill="#E27F86"/>
<path d="M114.602 105.542H106.312C109.693 102.388 113.297 99.614 117.087 97.2712H123.191C120.168 99.614 117.299 102.388 114.606 105.542" fill="#FFE0E3"/>
<path d="M124.487 105.542H114.603C117.296 102.388 120.168 99.614 123.188 97.2712H130.465C128.363 99.614 126.362 102.388 124.487 105.542Z" fill="#E69198"/>
<path d="M135.659 105.542H124.487C126.362 102.388 128.363 99.614 130.465 97.2712H138.691C137.623 99.614 136.61 102.388 135.659 105.542Z" fill="#C55C6D"/>
<path d="M147.806 105.542H135.659C136.61 102.388 137.623 99.614 138.691 97.2712H147.634C147.696 99.614 147.754 102.388 147.809 105.542" fill="#EA9FA3"/>
<path d="M159.802 105.542H147.809C147.754 102.388 147.698 99.614 147.634 97.2712H156.466C157.638 99.614 158.756 102.388 159.802 105.542Z" fill="#D98B98"/>
<path d="M170.822 105.542H159.802C158.755 102.388 157.638 99.614 156.465 97.2712H164.579C166.777 99.614 168.864 102.388 170.825 105.542" fill="#EAA3A5"/>
<path d="M180.553 105.542H170.822C168.861 102.388 166.774 99.614 164.576 97.2712H171.739C174.839 99.614 177.788 102.388 180.553 105.542Z" fill="#FFC1CA"/>
<path d="M188.68 105.542H180.554C177.789 102.388 174.843 99.614 171.74 97.2712H177.721C181.576 99.614 185.242 102.388 188.677 105.542" fill="#EAA0A4"/>
<path d="M194.871 105.542H188.68C185.242 102.388 181.579 99.614 177.725 97.2712H182.281C186.71 99.614 190.921 102.388 194.871 105.542Z" fill="#C36272"/>
<path d="M198.842 105.542H194.871C190.921 102.388 186.71 99.614 182.28 97.2712H185.205C190.004 99.614 194.563 102.388 198.842 105.542Z" fill="#E8999E"/>
<path d="M200.254 105.542H198.841C194.562 102.388 190.003 99.614 185.204 97.2712H186.245C191.173 99.614 195.858 102.388 200.254 105.542Z" fill="#FFC8CF"/>
<path d="M81.8215 116.069H81.7969C82.0616 115.797 82.3263 115.529 82.5911 115.261C85.8972 111.954 89.4527 108.896 93.2298 106.121C93.4977 105.927 93.7624 105.733 94.0333 105.539H94.0518C89.6682 108.683 85.574 112.209 81.8184 116.066" fill="#D57887"/>
<path d="M83.8869 116.069H81.8213C85.5769 112.212 89.6711 108.686 94.0546 105.542H95.7323C91.4873 108.686 87.5255 112.212 83.8869 116.069Z" fill="#FF9CAA"/>
<path d="M89.0408 116.069H83.8877C87.5263 112.212 91.4881 108.686 95.7332 105.542H99.9197C96.0225 108.686 92.3808 112.212 89.0378 116.069" fill="#E0747D"/>
<path d="M96.9021 116.069H89.04C92.38 112.212 96.0217 108.686 99.922 105.542H106.313C102.942 108.686 99.7927 112.212 96.9052 116.069" fill="#E27C83"/>
<path d="M107.104 116.069H96.9023C99.7898 112.212 102.939 108.686 106.31 105.542H114.6C111.912 108.686 109.404 112.212 107.101 116.069" fill="#E3848B"/>
<path d="M119.267 116.069H107.104C109.407 112.212 111.916 108.686 114.603 105.542H124.488C122.616 108.686 120.871 112.212 119.267 116.069Z" fill="#E7959A"/>
<path d="M133.012 116.069H119.264C120.867 112.212 122.613 108.686 124.485 105.542H135.656C134.708 108.686 133.821 112.212 133.008 116.069" fill="#FFC8CF"/>
<path d="M147.957 116.069H133.012C133.824 112.212 134.711 108.686 135.659 105.542H147.806C147.859 108.686 147.911 112.212 147.957 116.069Z" fill="#EBAAAC"/>
<path d="M162.717 116.069H147.957C147.91 112.212 147.858 108.686 147.806 105.542H159.799C160.846 108.686 161.821 112.212 162.714 116.069" fill="#EDB1B3"/>
<path d="M176.277 116.069H162.717C161.821 112.212 160.845 108.686 159.802 105.542H170.822C172.777 108.686 174.602 112.212 176.277 116.069Z" fill="#EEB5B8"/>
<path d="M188.249 116.069H176.274C174.6 112.212 172.774 108.686 170.819 105.542H180.55C183.308 108.686 185.885 112.212 188.246 116.069" fill="#D77B8A"/>
<path d="M198.248 116.069H188.25C185.885 112.212 183.312 108.686 180.554 105.542H188.681C192.11 108.686 195.311 112.212 198.248 116.069Z" fill="#EBAAAC"/>
<path d="M205.863 116.069H198.247C195.31 112.212 192.106 108.686 188.68 105.542H194.87C198.807 108.686 202.489 112.212 205.863 116.069Z" fill="#EAA3A5"/>
<path d="M210.752 116.069H205.864C202.487 112.212 198.808 108.686 194.871 105.542H198.842C203.109 108.686 207.095 112.212 210.752 116.069Z" fill="#E89B9F"/>
<path d="M212.488 116.069H210.752C207.095 112.212 203.108 108.686 198.842 105.542H200.255C204.638 108.686 208.733 112.212 212.488 116.069Z" fill="#E8989C"/>
<path d="M71.5922 128.618H71.5645C72.1832 127.705 72.8173 126.805 73.4669 125.914C76.0127 122.437 78.7986 119.148 81.7969 116.069H81.8215C78.0567 119.934 74.6305 124.133 71.5891 128.618" fill="#DC7284"/>
<path d="M73.9775 128.618H71.5918C74.6301 124.136 78.0563 119.934 81.8242 116.069H83.8898C80.2419 119.934 76.9235 124.133 73.9806 128.618" fill="#DC646E"/>
<path d="M79.9372 128.618H73.9775C76.9204 124.136 80.2389 119.934 83.8867 116.069H89.0399C85.6906 119.934 82.6431 124.133 79.9372 128.618Z" fill="#CA5266"/>
<path d="M89.0339 128.618H79.9404C82.6432 124.136 85.6908 119.934 89.0431 116.069H96.9052C94.0085 119.934 91.3734 124.133 89.0369 128.618" fill="#E17981"/>
<path d="M100.831 128.618H89.0312C91.3677 124.136 94.0059 119.934 96.8995 116.069H107.101C104.792 119.934 102.693 124.133 100.831 128.618Z" fill="#CD6B7B"/>
<path d="M114.899 128.618H100.831C102.693 124.136 104.793 119.934 107.102 116.069H119.264C117.657 119.934 116.195 124.133 114.896 128.618" fill="#E8999E"/>
<path d="M130.798 128.618H114.898C116.194 124.136 117.66 119.934 119.267 116.069H133.015C132.199 119.934 131.457 124.133 130.801 128.618" fill="#EBAAAC"/>
<path d="M148.083 128.618H130.795C131.454 124.136 132.196 119.934 133.008 116.069H147.954C148 119.934 148.043 124.133 148.08 128.618" fill="#F0BCBF"/>
<path d="M165.156 128.618H148.083C148.046 124.136 148.003 119.934 147.957 116.069H162.718C163.617 119.934 164.432 124.133 165.156 128.618Z" fill="#F2C6C8"/>
<path d="M180.837 128.618H165.156C164.432 124.136 163.617 119.934 162.718 116.069H176.278C177.959 119.934 179.486 124.133 180.84 128.618" fill="#F3C7C9"/>
<path d="M194.686 128.618H180.837C179.482 124.136 177.955 119.934 176.274 116.069H188.249C190.62 119.934 192.774 124.133 194.686 128.618Z" fill="#EFBABC"/>
<path d="M206.251 128.618H194.686C192.774 124.136 190.619 119.934 188.249 116.069H198.247C201.193 119.934 203.872 124.133 206.251 128.618Z" fill="#D07686"/>
<path d="M215.059 128.618H206.252C203.875 124.136 201.194 119.934 198.248 116.069H205.864C209.25 119.934 212.328 124.133 215.059 128.618Z" fill="#EBA5A8"/>
<path d="M220.714 128.618H215.059C212.329 124.136 209.247 119.934 205.864 116.069H210.753C214.419 119.934 217.756 124.133 220.714 128.618Z" fill="#E89B9F"/>
<path d="M222.724 128.618H220.713C217.755 124.136 214.418 119.934 210.752 116.069H212.488C216.256 119.934 219.682 124.133 222.724 128.618Z" fill="#FFC6CD"/>
<path d="M63.6812 142.875H63.6504C64.3984 141.185 65.1957 139.527 66.0423 137.893C67.7046 134.684 69.5485 131.589 71.5648 128.615H71.5925C68.5542 133.1 65.9007 137.869 63.6843 142.875" fill="#D57887"/>
<path d="M66.3188 142.875H63.6807C65.8971 137.869 68.5506 133.1 71.5889 128.615H73.9747C71.0318 133.1 68.4644 137.869 66.3157 142.875" fill="#BB4A5E"/>
<path d="M72.9039 142.875H66.3193C68.468 137.869 71.0354 133.1 73.9783 128.615H79.9379C77.2351 133.1 74.8741 137.869 72.9039 142.875Z" fill="#DC646E"/>
<path d="M82.948 142.875H72.9033C74.8765 137.869 77.2345 133.1 79.9373 128.615H89.0308C86.6943 133.1 84.6534 137.869 82.948 142.875Z" fill="#DE6C75"/>
<path d="M95.982 142.875H82.9482C84.6536 137.869 86.6946 133.1 89.0311 128.615H100.83C98.9649 133.1 97.3395 137.869 95.982 142.875Z" fill="#E2838A"/>
<path d="M111.521 142.875H95.9814C97.3421 137.869 98.9674 133.1 100.83 128.615H114.898C113.602 133.1 112.469 137.869 111.521 142.875Z" fill="#E7969B"/>
<path d="M129.087 142.875H111.521C112.47 137.869 113.599 133.1 114.898 128.615H130.798C130.142 133.1 129.567 137.869 129.087 142.875Z" fill="#EEB3B6"/>
<path d="M148.182 142.875H129.087C129.567 137.869 130.14 133.1 130.798 128.615H148.086C148.123 133.1 148.157 137.869 148.185 142.875" fill="#F3CCCE"/>
<path d="M167.039 142.875H148.182C148.154 137.869 148.123 133.1 148.083 128.615H165.156C165.882 133.1 166.513 137.869 167.039 142.875Z" fill="#F7DBDD"/>
<path d="M184.364 142.875H167.039C166.51 137.869 165.879 133.1 165.155 128.615H180.836C182.194 133.1 183.376 137.869 184.364 142.875Z" fill="white"/>
<path d="M199.663 142.875H184.364C183.376 137.869 182.193 133.1 180.836 128.615H194.685C196.597 133.1 198.269 137.869 199.663 142.875Z" fill="#F2C3C5"/>
<path d="M212.439 142.875H199.667C198.27 137.869 196.601 133.1 194.689 128.615H206.255C208.634 133.1 210.706 137.869 212.442 142.875" fill="#EEB5B8"/>
<path d="M222.166 142.875H212.436C210.702 137.869 208.628 133.1 206.248 128.615H215.055C217.789 133.1 220.171 137.869 222.163 142.875" fill="#EBA5A8"/>
<path d="M228.412 142.875H222.167C220.175 137.869 217.789 133.1 215.059 128.615H220.714C223.675 133.1 226.255 137.869 228.412 142.875Z" fill="#E8989C"/>
<path d="M230.635 142.875H228.416C226.258 137.869 223.675 133.1 220.717 128.615H222.727C225.765 133.1 228.419 137.869 230.638 142.875" fill="#E69198"/>
<path d="M58.3862 158.553H58.3555C58.9681 155.997 59.6853 153.482 60.5072 151.013C61.4307 148.239 62.4804 145.526 63.6533 142.878H63.6841C61.4677 147.884 59.6853 153.124 58.3893 158.553" fill="#DC7284"/>
<path d="M61.1901 158.553H58.3857C59.6817 153.124 61.4641 147.881 63.6805 142.878H66.3186C64.173 147.884 62.4461 153.124 61.1901 158.553Z" fill="#DC646E"/>
<path d="M68.1906 158.553H61.1904C62.4464 153.124 64.1703 147.881 66.319 142.878H72.9035C70.9303 147.884 69.348 153.124 68.1937 158.553" fill="#CA5467"/>
<path d="M78.8763 158.553H68.1914C69.3458 153.124 70.9311 147.881 72.9013 142.878H82.9459C81.2405 147.884 79.8706 153.124 78.8733 158.553" fill="#DD6A73"/>
<path d="M92.7368 158.553H78.875C79.8724 153.124 81.2422 147.881 82.9476 142.878H95.9814C94.6238 147.884 93.531 153.124 92.7368 158.553Z" fill="#964652"/>
<path d="M109.262 158.553H92.7373C93.5315 153.124 94.6243 147.881 95.9819 142.878H111.521C110.576 147.884 109.816 153.124 109.262 158.553Z" fill="#E8999E"/>
<path d="M127.941 158.553H109.262C109.816 153.124 110.576 147.881 111.521 142.878H129.086C128.606 147.884 128.221 153.124 127.941 158.553Z" fill="#D6949D"/>
<path d="M148.246 158.553H127.941C128.222 153.124 128.609 147.881 129.087 142.878H148.182C148.209 147.884 148.231 153.124 148.246 158.553Z" fill="#F6D9DB"/>
<path d="M168.302 158.553H148.246C148.231 153.124 148.209 147.881 148.182 142.878H167.04C167.569 147.884 167.994 153.124 168.302 158.553Z" fill="#FCF3F4"/>
<path d="M186.726 158.553H168.302C167.994 153.124 167.57 147.881 167.04 142.878H184.365C185.353 147.884 186.147 153.124 186.726 158.553Z" fill="#F9E6E7"/>
<path d="M202.997 158.553H186.728C186.15 153.124 185.355 147.881 184.367 142.878H199.667C201.061 147.884 202.182 153.124 202.997 158.553Z" fill="#F3CBCB"/>
<path d="M216.58 158.553H202.995C202.179 153.124 201.055 147.881 199.664 142.878H212.436C214.169 147.884 215.564 153.124 216.58 158.553Z" fill="#D6818E"/>
<path d="M226.928 158.553H216.582C215.566 153.124 214.175 147.881 212.438 142.878H222.169C224.161 147.884 225.765 153.124 226.928 158.553Z" fill="#EAA0A4"/>
<path d="M233.569 158.553H226.926C225.759 153.124 224.159 147.881 222.167 142.878H228.413C230.571 147.884 232.307 153.124 233.569 158.553Z" fill="#E69399"/>
<path d="M235.93 158.553H233.569C232.307 153.124 230.571 147.881 228.413 142.878H230.633C232.849 147.884 234.631 153.124 235.927 158.553" fill="#E58C91"/>
<path d="M55.9938 175.356H55.96C56.1293 171.875 56.4956 168.448 57.0435 165.078C57.4037 162.874 57.8408 160.698 58.3549 158.553H58.3857C57.0897 163.981 56.274 169.597 55.9938 175.356Z" fill="#D57887"/>
<path d="M58.8724 175.356H55.9941C56.2773 169.597 57.09 163.981 58.386 158.553H61.1904C59.9344 163.981 59.1464 169.597 58.8724 175.356Z" fill="#F28293"/>
<path d="M66.0631 175.356H58.8721C59.146 169.598 59.9341 163.981 61.1901 158.553H68.1902C67.0358 163.981 66.3124 169.598 66.06 175.356" fill="#DC646E"/>
<path d="M77.0347 175.356H66.0635C66.3159 169.597 67.0393 163.981 68.1937 158.553H78.8786C77.8812 163.981 77.2563 169.597 77.0378 175.356" fill="#C35164"/>
<path d="M91.2694 175.356H77.0352C77.2537 169.597 77.8786 163.981 78.876 158.553H92.7378C91.9436 163.981 91.4449 169.597 91.2725 175.356" fill="#E0767E"/>
<path d="M108.239 175.356H91.2686C91.4409 169.598 91.9396 163.981 92.7339 158.553H109.258C108.704 163.981 108.356 169.598 108.236 175.356" fill="#E8999E"/>
<path d="M127.421 175.356H108.24C108.36 169.597 108.708 163.981 109.262 158.553H127.942C127.662 163.981 127.486 169.597 127.421 175.356Z" fill="#EFBABC"/>
<path d="M148.277 175.356H127.421C127.482 169.598 127.658 163.981 127.941 158.553H148.246C148.264 163.981 148.274 169.598 148.277 175.356Z" fill="#F6D9DB"/>
<path d="M168.874 175.356H148.277C148.274 169.598 148.265 163.981 148.246 158.553H168.302C168.609 163.981 168.803 169.598 168.871 175.356" fill="#FAECEB"/>
<path d="M187.794 175.356H168.874C168.806 169.598 168.613 163.981 168.305 158.553H186.729C187.307 163.981 187.671 169.598 187.794 175.356Z" fill="#F6D9DB"/>
<path d="M204.5 175.356H187.791C187.664 169.597 187.304 163.981 186.726 158.553H202.995C203.81 163.981 204.321 169.597 204.5 175.356Z" fill="#E58E9B"/>
<path d="M218.451 175.356H204.499C204.324 169.597 203.81 163.981 202.994 158.553H216.579C217.595 163.981 218.232 169.597 218.451 175.356Z" fill="#ECA8AC"/>
<path d="M229.077 175.356H218.451C218.232 169.597 217.595 163.981 216.579 158.553H226.925C228.092 163.981 228.822 169.597 229.077 175.356Z" fill="#B34E5E"/>
<path d="M235.899 175.356H229.078C228.822 169.597 228.092 163.981 226.926 158.553H233.569C234.831 163.981 235.622 169.597 235.899 175.356Z" fill="#E58C91"/>
<path d="M238.324 175.356H235.899C235.625 169.597 234.834 163.981 233.568 158.553H235.929C237.229 163.981 238.041 169.597 238.324 175.356Z" fill="#FFB7BF"/>
<path d="M56.7546 192.578H56.7208C56.1451 188.435 55.8496 184.203 55.8496 179.906C55.8496 178.38 55.8865 176.863 55.9604 175.356H55.9943C55.9204 176.863 55.8835 178.38 55.8835 179.906C55.8835 184.206 56.179 188.438 56.7546 192.578Z" fill="#DC646E"/>
<path d="M59.6078 192.578H56.7511C56.1754 188.435 55.8799 184.203 55.8799 179.906C55.8799 178.38 55.9168 176.863 55.9907 175.356H58.869C58.7982 176.863 58.7612 178.38 58.7612 179.906C58.7612 184.206 59.0475 188.438 59.6047 192.578" fill="#D05A6E"/>
<path d="M66.7415 192.578H59.612C59.0548 188.435 58.7686 184.203 58.7686 179.906C58.7686 178.38 58.8055 176.863 58.8763 175.356H66.0673C66.0027 176.863 65.9688 178.38 65.9688 179.906C65.9688 184.206 66.2335 188.438 66.7445 192.578" fill="#FFE2E5"/>
<path d="M77.6196 192.578H66.7377C66.2267 188.435 65.9619 184.203 65.9619 179.906C65.9619 178.38 65.9958 176.863 66.0604 175.356H77.0316C76.9762 176.863 76.9455 178.38 76.9455 179.906C76.9455 184.206 77.1732 188.438 77.6165 192.578" fill="#DC646E"/>
<path d="M91.7335 192.578H77.6193C77.1791 188.435 76.9482 184.203 76.9482 179.906C76.9482 178.38 76.9759 176.863 77.0344 175.356H91.2687C91.2225 176.863 91.201 178.38 91.201 179.906C91.201 184.206 91.3826 188.438 91.7335 192.578Z" fill="#FFACB7"/>
<path d="M108.566 192.578H91.7367C91.3857 188.435 91.2041 184.203 91.2041 179.906C91.2041 178.38 91.2287 176.863 91.2718 175.356H108.243C108.212 176.863 108.193 178.38 108.193 179.906C108.193 184.206 108.32 188.438 108.566 192.578Z" fill="#D76477"/>
<path d="M127.587 192.578H108.566C108.32 188.435 108.193 184.203 108.193 179.906C108.193 178.38 108.209 176.863 108.243 175.356H127.424C127.408 176.863 127.399 178.38 127.399 179.906C127.399 184.206 127.464 188.438 127.587 192.578Z" fill="#EBA9AC"/>
<path d="M148.268 192.578H127.587C127.464 188.435 127.399 184.203 127.399 179.906C127.399 178.38 127.406 176.863 127.424 175.356H148.28C148.28 176.863 148.28 178.38 148.28 179.906C148.28 184.206 148.277 188.438 148.271 192.578" fill="#F1BFC2"/>
<path d="M168.692 192.578H148.268C148.274 188.435 148.277 184.203 148.277 179.906C148.277 178.38 148.277 176.863 148.277 175.356H168.874C168.892 176.863 168.899 178.38 168.899 179.906C168.899 184.206 168.828 188.438 168.692 192.578Z" fill="#F4D0D2"/>
<path d="M187.455 192.578H168.692C168.831 188.435 168.899 184.203 168.899 179.906C168.899 178.38 168.889 176.863 168.874 175.356H187.794C187.827 176.863 187.843 178.38 187.843 179.906C187.843 184.206 187.71 188.438 187.455 192.578Z" fill="#F3CBCB"/>
<path d="M204.023 192.578H187.455C187.711 188.435 187.843 184.203 187.843 179.906C187.843 178.38 187.828 176.863 187.794 175.356H204.503C204.549 176.863 204.574 178.38 204.574 179.906C204.574 184.206 204.389 188.438 204.026 192.578" fill="#EEB7BA"/>
<path d="M217.86 192.578H204.022C204.386 188.435 204.57 184.203 204.57 179.906C204.57 178.38 204.549 176.863 204.5 175.356H218.451C218.506 176.863 218.537 178.38 218.537 179.906C218.537 184.206 218.306 188.438 217.857 192.578" fill="#EAA2A5"/>
<path d="M228.394 192.578H217.856C218.306 188.435 218.537 184.203 218.537 179.906C218.537 178.38 218.506 176.863 218.451 175.356H229.077C229.142 176.863 229.176 178.38 229.176 179.906C229.176 184.206 228.908 188.438 228.394 192.578Z" fill="#E48A8F"/>
<path d="M235.161 192.578H228.397C228.915 188.435 229.179 184.203 229.179 179.906C229.179 178.38 229.145 176.863 229.081 175.356H235.902C235.973 176.863 236.013 178.38 236.013 179.906C236.013 184.206 235.724 188.438 235.164 192.578" fill="#E2838A"/>
<path d="M238.436 179.906C238.436 184.206 238.137 188.438 237.564 192.578H235.16C235.72 188.435 236.01 184.203 236.01 179.906C236.01 178.38 235.973 176.863 235.899 175.356H238.325C238.399 176.863 238.436 178.38 238.436 179.906Z" fill="#E27C83"/>
<path d="M60.5656 208.879H60.5348C60.5255 208.848 60.5132 208.817 60.504 208.789C58.9925 204.249 57.8289 199.554 57.0439 194.727C56.93 194.011 56.8192 193.296 56.7207 192.578H56.7546C57.5334 198.188 58.8201 203.638 60.5686 208.879" fill="#D57887"/>
<path d="M63.3027 208.879H60.566C58.8175 203.638 57.5308 198.191 56.752 192.578H59.6087C60.3629 198.188 61.6096 203.638 63.2996 208.879" fill="#FA8297"/>
<path d="M70.1302 208.879H63.2993C61.6062 203.638 60.3595 198.191 59.6084 192.578H66.7378C67.4305 198.188 68.5756 203.638 70.1302 208.879Z" fill="#DC646E"/>
<path d="M80.5537 208.879H70.1335C68.579 203.638 67.4338 198.191 66.7412 192.578H77.6232C78.2204 198.188 79.2116 203.638 80.5568 208.879" fill="#B64558"/>
<path d="M94.0739 208.879H80.5538C79.2085 203.638 78.2204 198.191 77.6201 192.578H91.7343C92.2115 198.188 92.9995 203.638 94.0708 208.879" fill="#DE6E77"/>
<path d="M110.191 208.879H94.0699C92.9986 203.638 92.2105 198.191 91.7334 192.578H108.563C108.895 198.188 109.443 203.638 110.191 208.879Z" fill="#C5586C"/>
<path d="M128.413 208.879H110.195C109.447 203.638 108.899 198.191 108.566 192.578H127.588C127.757 198.188 128.034 203.638 128.413 208.879Z" fill="#E89B9F"/>
<path d="M148.221 208.879H128.412C128.033 203.638 127.756 198.191 127.587 192.578H148.267C148.258 198.188 148.24 203.638 148.221 208.879Z" fill="#DE95A0"/>
<path d="M167.785 208.879H148.222C148.243 203.638 148.259 198.191 148.268 192.578H168.693C168.508 198.188 168.2 203.638 167.785 208.879Z" fill="#EFB7BA"/>
<path d="M185.753 208.879H167.781C168.197 203.638 168.505 198.191 168.689 192.578H187.452C187.104 198.188 186.531 203.638 185.753 208.879Z" fill="#D17C8A"/>
<path d="M201.625 208.879H185.753C186.532 203.638 187.107 198.191 187.452 192.578H204.02C203.53 198.188 202.721 203.638 201.622 208.879" fill="#EBA4A8"/>
<path d="M214.874 208.879H201.625C202.724 203.638 203.534 198.191 204.023 192.578H217.86C217.251 198.188 216.244 203.638 214.877 208.879" fill="#D77788"/>
<path d="M224.968 208.879H214.874C216.241 203.638 217.251 198.191 217.857 192.578H228.394C227.695 198.188 226.538 203.638 224.968 208.879Z" fill="#E2838A"/>
<path d="M231.448 208.879H224.968C226.541 203.638 227.695 198.191 228.394 192.578H235.157C234.4 198.188 233.147 203.638 231.445 208.879" fill="#F78A9E"/>
<path d="M233.75 208.879H231.447C233.15 203.638 234.402 198.191 235.16 192.578H237.564C236.785 198.188 235.498 203.638 233.75 208.879Z" fill="#D26273"/>
<path d="M67.1444 223.909H67.1136C66.7473 223.243 66.3902 222.575 66.0423 221.899C63.8844 217.735 62.0405 213.385 60.5352 208.876H60.5659C62.3144 214.113 64.5216 219.141 67.1444 223.906" fill="#DC7284"/>
<path d="M69.6712 223.909H67.1439C64.5242 219.141 62.3139 214.116 60.5654 208.879H63.3021C64.9952 214.116 67.1346 219.144 69.6712 223.909Z" fill="#B14959"/>
<path d="M75.9815 223.909H69.6709C67.1312 219.141 64.9948 214.116 63.3018 208.879H70.1326C71.6872 214.116 73.6512 219.144 75.9845 223.909" fill="#F1748A"/>
<path d="M85.6109 223.909H75.9818C73.6484 219.141 71.6844 214.116 70.1299 208.879H80.5501C81.8953 214.116 83.5946 219.144 85.6109 223.909Z" fill="#CD586C"/>
<path d="M98.1064 223.909H85.6145C83.5982 219.141 81.8989 214.116 80.5537 208.879H94.0738C95.1451 214.116 96.4995 219.144 98.1064 223.909Z" fill="#DC646E"/>
<path d="M112.999 223.909H98.1029C96.4961 219.141 95.1416 214.116 94.0703 208.879H110.192C110.937 214.116 111.882 219.144 112.999 223.909Z" fill="#DE6E77"/>
<path d="M129.837 223.909H113.002C111.884 219.141 110.939 214.116 110.194 208.879H128.412C128.791 214.116 129.268 219.144 129.837 223.909Z" fill="#E28189"/>
<path d="M148.138 223.909H129.834C129.265 219.141 128.788 214.116 128.409 208.879H148.218C148.197 214.116 148.169 219.144 148.135 223.909" fill="#FFB3BE"/>
<path d="M166.214 223.909H148.138C148.172 219.141 148.199 214.116 148.221 208.879H167.784C167.368 214.116 166.842 219.144 166.217 223.909" fill="#E89A9F"/>
<path d="M182.822 223.909H166.218C166.843 219.141 167.369 214.116 167.785 208.879H185.756C184.977 214.116 183.992 219.144 182.822 223.909Z" fill="#E7989D"/>
<path d="M197.487 223.909H182.822C183.989 219.141 184.977 214.116 185.756 208.879H201.628C200.529 214.116 199.137 219.144 197.487 223.909Z" fill="#FAA1AF"/>
<path d="M209.73 223.909H197.487C199.137 219.141 200.526 214.116 201.628 208.879H214.877C213.51 214.116 211.783 219.144 209.733 223.909" fill="#D0687A"/>
<path d="M219.058 223.909H209.73C211.781 219.141 213.508 214.116 214.874 208.879H224.968C223.398 214.116 221.413 219.144 219.058 223.909Z" fill="#BE5062"/>
<path d="M225.045 223.909H219.058C221.416 219.141 223.398 214.116 224.968 208.879H231.448C229.746 214.116 227.597 219.144 225.045 223.909Z" fill="#FFC6CD"/>
<path d="M227.172 223.909H225.045C227.597 219.141 229.746 214.116 231.448 208.879H233.75C232.002 214.116 229.795 219.144 227.172 223.909Z" fill="#DC656E"/>
<path d="M76.1985 237.389H76.1738C75.2442 236.243 74.3422 235.068 73.468 233.875C71.1438 230.703 69.0198 227.374 67.1143 223.909H67.145C69.7647 228.678 72.8 233.188 76.1985 237.389Z" fill="#D57887"/>
<path d="M78.438 237.389H76.197C72.7985 233.188 69.7632 228.678 67.1436 223.909H69.6709C72.2105 228.678 75.1473 233.188 78.438 237.389Z" fill="#EE7387"/>
<path d="M84.0345 237.389H78.438C75.1473 233.188 72.2075 228.678 69.6709 223.909H75.9815C78.3118 228.678 81.0115 233.188 84.0345 237.389Z" fill="#CD5C70"/>
<path d="M92.5776 237.389H84.0383C81.0154 233.188 78.3157 228.678 75.9854 223.909H85.6144C87.6307 228.678 89.9641 233.188 92.5776 237.389Z" fill="#E97085"/>
<path d="M103.656 237.389H92.5775C89.964 233.188 87.6306 228.678 85.6143 223.909H98.1062C99.7131 228.678 101.572 233.188 103.656 237.389Z" fill="#C55063"/>
<path d="M116.866 237.389H103.657C101.573 233.188 99.7133 228.678 98.1064 223.909H113.003C114.12 228.678 115.416 233.188 116.869 237.389" fill="#DC646E"/>
<path d="M131.795 237.389H116.865C115.416 233.188 114.12 228.678 112.999 223.909H129.834C130.401 228.678 131.057 233.188 131.792 237.389" fill="#DF727B"/>
<path d="M148.028 237.389H131.793C131.057 233.188 130.401 228.678 129.835 223.909H148.139C148.108 228.678 148.068 233.188 148.028 237.389Z" fill="#E27D83"/>
<path d="M164.056 237.389H148.027C148.067 233.188 148.107 228.678 148.138 223.909H166.214C165.589 228.678 164.866 233.188 164.056 237.389Z" fill="#D77989"/>
<path d="M178.783 237.389H164.057C164.866 233.188 165.59 228.678 166.215 223.909H182.819C181.649 228.678 180.298 233.188 178.783 237.389Z" fill="#B14959"/>
<path d="M191.789 237.389H178.783C180.298 233.188 181.652 228.678 182.819 223.909H197.484C195.834 228.678 193.926 233.188 191.789 237.389Z" fill="#FA90A2"/>
<path d="M202.647 237.389H191.79C193.929 233.188 195.838 228.678 197.485 223.909H209.728C207.677 228.678 205.304 233.188 202.644 237.389" fill="#D26779"/>
<path d="M210.918 237.389H202.646C205.306 233.188 207.68 228.678 209.73 223.909H219.057C216.702 228.678 213.975 233.188 210.921 237.389" fill="#DE6B75"/>
<path d="M216.228 237.389H210.918C213.972 233.188 216.702 228.678 219.054 223.909H225.041C222.489 228.678 219.534 233.188 216.225 237.389" fill="#DC646E"/>
<path d="M218.116 237.389H216.229C219.538 233.188 222.49 228.678 225.045 223.909H227.172C224.549 228.678 221.514 233.188 218.116 237.389Z" fill="#DC646E"/>
<path d="M87.4396 249.023H87.4181C85.7557 247.583 84.1488 246.082 82.5943 244.529C80.3317 242.266 78.1892 239.88 76.1729 237.389H76.1975C79.596 241.591 83.3608 245.484 87.4396 249.023Z" fill="#DC7284"/>
<path d="M89.3264 249.023H87.4394C83.3606 245.484 79.5958 241.591 76.1973 237.389H78.4383C81.7291 241.591 85.3738 245.484 89.3233 249.023" fill="#FFAAB4"/>
<path d="M94.0334 249.023H89.3235C85.374 245.484 81.7292 241.591 78.4385 237.389H84.0349C87.0578 241.591 90.404 245.484 94.0334 249.023Z" fill="#BE4A5F"/>
<path d="M101.222 249.023H94.0336C90.4043 245.484 87.0581 241.591 84.0352 237.389H92.5745C95.188 241.591 98.0847 245.484 101.222 249.023Z" fill="#FFA2B0"/>
<path d="M110.546 249.023H101.221C98.0845 245.484 95.1908 241.591 92.5742 237.389H103.653C105.737 241.591 108.043 245.484 110.543 249.023" fill="#FF8A9B"/>
<path d="M121.664 249.023H110.549C108.049 245.484 105.74 241.591 103.659 237.389H116.868C118.318 241.591 119.925 245.484 121.667 249.023" fill="#D2596E"/>
<path d="M134.227 249.023H121.664C119.922 245.484 118.318 241.591 116.865 237.389H131.795C132.531 241.591 133.347 245.484 134.227 249.023Z" fill="#CA5266"/>
<path d="M147.889 249.023H134.227C133.343 245.484 132.531 241.591 131.795 237.389H148.03C147.987 241.591 147.941 245.484 147.892 249.023" fill="#E97085"/>
<path d="M161.378 249.023H147.886C147.935 245.484 147.981 241.591 148.024 237.389H164.053C163.244 241.591 162.345 245.484 161.375 249.023" fill="#FFCDD4"/>
<path d="M173.771 249.023H161.378C162.351 245.484 163.246 241.591 164.056 237.389H178.783C177.268 241.591 175.591 245.484 173.771 249.023Z" fill="#DE6B74"/>
<path d="M184.719 249.023H173.775C175.595 245.484 177.272 241.591 178.787 237.389H191.793C189.653 241.591 187.286 245.484 184.722 249.023" fill="#DD6873"/>
<path d="M193.855 249.023H184.719C187.283 245.484 189.653 241.591 191.79 237.389H202.647C199.99 241.591 197.044 245.484 193.855 249.023Z" fill="#DC646E"/>
<path d="M200.815 249.023H193.854C197.047 245.484 199.99 241.591 202.646 237.389H210.918C207.861 241.591 204.481 245.484 200.815 249.023Z" fill="#DC646E"/>
<path d="M205.285 249.023H200.818C204.485 245.484 207.865 241.591 210.921 237.389H216.232C212.922 241.591 209.259 245.484 205.288 249.023" fill="#DC646E"/>
<path d="M206.871 249.023H205.282C209.253 245.484 212.917 241.591 216.226 237.389H218.113C214.714 241.591 210.949 245.484 206.871 249.023Z" fill="#DC646E"/>
<path d="M100.575 258.52H100.556C98.0323 257.019 95.588 255.398 93.23 253.665C91.2291 252.195 89.2867 250.647 87.415 249.023H87.4366C91.5154 252.562 95.9113 255.743 100.572 258.52" fill="#DC646E"/>
<path d="M102.046 258.52H100.575C95.9111 255.743 91.5183 252.562 87.4395 249.023H89.3265C93.276 252.562 97.5334 255.743 102.049 258.52" fill="#FF9DAC"/>
<path d="M105.719 258.52H102.046C97.5301 255.743 93.2758 252.562 89.3232 249.023H94.0331C97.6625 252.562 101.572 255.743 105.719 258.52Z" fill="#DC646E"/>
<path d="M111.327 258.52H105.722C101.575 255.743 97.6655 252.562 94.0361 249.023H101.224C104.361 252.562 107.741 255.743 111.327 258.52Z" fill="#E67487"/>
<path d="M118.598 258.52H111.324C107.738 255.743 104.358 252.562 101.221 249.023H110.545C113.045 252.562 115.738 255.743 118.598 258.52Z" fill="#FC97A7"/>
<path d="M127.271 258.52H118.599C115.739 255.743 113.046 252.562 110.546 249.023H121.662C123.404 252.562 125.279 255.743 127.267 258.52" fill="#CD596C"/>
<path d="M137.071 258.52H127.27C125.281 255.743 123.403 252.562 121.664 249.023H134.227C135.11 252.562 136.061 255.743 137.071 258.52Z" fill="#EE7F91"/>
<path d="M147.726 258.52H137.072C136.062 255.743 135.111 252.562 134.228 249.023H147.889C147.837 252.562 147.785 255.743 147.726 258.52Z" fill="#9E3F4D"/>
<path d="M158.247 258.52H147.726C147.784 255.743 147.836 252.562 147.889 249.023H161.381C160.408 252.562 159.362 255.743 158.25 258.52" fill="#E16E81"/>
<path d="M167.917 258.52H158.248C159.359 255.743 160.406 252.562 161.379 249.023H173.772C171.953 252.562 169.992 255.743 167.914 258.52" fill="#D05368"/>
<path d="M176.45 258.52H167.914C169.992 255.743 171.95 252.562 173.772 249.023H184.716C182.148 252.562 179.384 255.743 176.45 258.52Z" fill="#BE4A69"/>
<path d="M183.58 258.52H176.45C179.384 255.743 182.148 252.562 184.716 249.023H193.852C190.66 252.562 187.224 255.743 183.577 258.52" fill="#D0576C"/>
<path d="M189.009 258.52H183.579C187.227 255.743 190.662 252.562 193.855 249.023H200.815C197.148 252.562 193.199 255.743 189.006 258.52" fill="#DC646E"/>
<path d="M192.494 258.52H189.01C193.199 255.743 197.152 252.562 200.818 249.023H205.285C201.314 252.562 197.035 255.743 192.494 258.52Z" fill="#F78597"/>
<path d="M193.732 258.52H192.491C197.032 255.743 201.311 252.562 205.282 249.023H206.87C202.791 252.562 198.395 255.743 193.732 258.52Z" fill="#FFA5B1"/>
<path d="M115.28 265.576H115.268C111.805 264.285 108.443 262.79 105.196 261.1C103.623 260.283 102.077 259.423 100.56 258.52H100.578C105.229 261.291 110.146 263.659 115.283 265.576" fill="#DC7284"/>
<path d="M116.286 265.576H115.279C110.145 263.659 105.226 261.291 100.574 258.52H102.046C106.549 261.291 111.311 263.659 116.286 265.576Z" fill="#DC646E"/>
<path d="M118.801 265.576H116.289C111.315 263.659 106.552 261.291 102.049 258.52H105.721C109.859 261.291 114.233 263.659 118.801 265.576Z" fill="#B64558"/>
<path d="M122.637 265.576H118.802C114.233 263.659 109.859 261.291 105.722 258.52H111.327C114.904 261.291 118.688 263.659 122.637 265.576Z" fill="#F67D92"/>
<path d="M127.612 265.576H122.637C118.684 263.659 114.904 261.291 111.327 258.52H118.601C121.452 261.291 124.469 263.659 127.615 265.576" fill="#853442"/>
<path d="M133.547 265.576H127.612C124.463 263.659 121.449 261.291 118.599 258.52H127.27C129.256 261.291 131.355 263.659 133.547 265.576Z" fill="#C55568"/>
<path d="M140.252 265.576H133.547C131.355 263.659 129.256 261.291 127.271 258.52H137.072C138.079 261.291 139.141 263.659 140.255 265.576" fill="#FFDADF"/>
<path d="M147.544 265.576H140.251C139.14 263.659 138.075 261.291 137.068 258.52H147.723C147.664 261.291 147.606 263.659 147.541 265.576" fill="#F16167"/>
<path d="M154.745 265.576H147.545C147.61 263.659 147.668 261.291 147.727 258.52H158.248C157.14 261.291 155.967 263.659 154.745 265.576Z" fill="#C55264"/>
<path d="M161.36 265.576H154.744C155.969 263.659 157.139 261.291 158.247 258.52H167.916C165.842 261.291 163.65 263.659 161.36 265.576Z" fill="#CA5A6D"/>
<path d="M167.2 265.576H161.357C163.648 263.659 165.839 261.291 167.914 258.52H176.451C173.523 261.291 170.429 263.659 167.2 265.576Z" fill="#E46F83"/>
<path d="M172.078 265.576H167.202C170.431 263.659 173.525 261.291 176.453 258.52H183.582C179.943 261.291 176.095 263.659 172.078 265.576Z" fill="#D0586C"/>
<path d="M175.791 265.576H172.075C176.092 263.659 179.94 261.291 183.579 258.52H189.009C184.829 261.291 180.408 263.659 175.794 265.576" fill="#F17F91"/>
<path d="M178.177 265.576H175.791C180.409 263.659 184.826 261.291 189.006 258.52H192.491C187.963 261.291 183.176 263.659 178.174 265.576" fill="#C04C60"/>
<path d="M179.023 265.576C178.87 265.576 178.669 265.576 178.516 265.576H178.174C183.176 263.659 187.963 261.288 192.491 258.52H193.732C189.08 261.291 184.161 263.659 179.023 265.576Z" fill="#FFDEE3"/>
<path d="M131.34 269.941H131.333C126.867 269.158 122.514 268.052 118.294 266.646C117.278 266.307 116.268 265.949 115.268 265.576H115.28C120.43 267.5 125.799 268.97 131.34 269.941Z" fill="#D57887"/>
<path d="M131.838 269.941H131.339C125.798 268.97 120.429 267.5 115.279 265.576H116.286C121.273 267.5 126.472 268.97 131.838 269.941Z" fill="#C35164"/>
<path d="M133.086 269.941H131.839C126.473 268.97 121.274 267.5 116.287 265.576H118.799C123.38 267.5 128.157 268.97 133.083 269.941" fill="#C35164"/>
<path d="M134.988 269.941H133.085C128.157 268.97 123.379 267.5 118.802 265.576H122.637C126.596 267.5 130.727 268.97 134.988 269.941Z" fill="#C35164"/>
<path d="M137.457 269.941H134.988C130.728 268.97 126.596 267.5 122.638 265.576H127.612C130.771 267.5 134.061 268.97 137.457 269.941Z" fill="#AE4355"/>
<path d="M140.4 269.941H137.457C134.061 268.97 130.771 267.5 127.612 265.576H133.547C135.745 267.5 138.036 268.97 140.4 269.941Z" fill="#C55568"/>
<path d="M143.727 269.941H140.399C138.035 268.97 135.745 267.5 133.547 265.576H140.252C141.366 267.5 142.529 268.97 143.727 269.941Z" fill="#C04E60"/>
<path d="M147.344 269.941H143.727C142.527 268.97 141.366 267.5 140.252 265.576H147.545C147.48 267.5 147.415 268.97 147.344 269.941Z" fill="#CA5C6F"/>
<path d="M150.918 269.941H147.344C147.411 268.97 147.479 267.5 147.544 265.576H154.744C153.516 267.5 152.238 268.97 150.918 269.941Z" fill="#A94454"/>
<path d="M154.199 269.941H150.918C152.239 268.97 153.516 267.5 154.744 265.576H161.36C159.063 267.5 156.668 268.97 154.199 269.941Z" fill="#AE4E5F"/>
<path d="M157.096 269.941H154.196C156.668 268.97 159.06 267.5 161.357 265.576H167.199C163.958 267.5 160.581 268.97 157.096 269.941Z" fill="#813A45"/>
<path d="M159.515 269.941H157.096C160.58 268.97 163.96 267.5 167.199 265.576H172.075C168.048 267.5 163.847 268.97 159.515 269.941Z" fill="#CD5F71"/>
<path d="M161.36 269.941H159.516C163.85 268.97 168.049 267.5 172.075 265.576H175.791C171.164 267.5 166.337 268.97 161.356 269.941" fill="#C55566"/>
<path d="M162.541 269.941H161.359C166.34 268.97 171.164 267.5 175.794 265.576H178.179C173.168 267.5 167.938 268.97 162.545 269.941" fill="#AE4759"/>
<path d="M162.964 269.941H162.542C167.935 268.97 173.165 267.5 178.177 265.576C178.408 265.576 178.719 265.576 178.95 265.576H179.023C173.873 267.5 168.502 268.97 162.961 269.941" fill="#DC646E"/>
<path d="M147.15 271.307C142.698 271.125 136.766 270.65 132.343 270.111C132.007 270.055 131.669 270 131.333 269.941H131.339C136.474 270.841 141.756 271.31 147.15 271.31" fill="#DC7284"/>
<path d="M147.15 271.307C141.757 271.307 136.475 270.838 131.34 269.938H131.839C136.813 270.838 141.926 271.307 147.15 271.307Z" fill="#DC646E"/>
<path d="M147.15 271.307C141.929 271.307 136.812 270.838 131.838 269.938H133.085C137.653 270.838 142.35 271.307 147.15 271.307Z" fill="#DC646E"/>
<path d="M147.15 271.307C142.354 271.307 137.653 270.838 133.085 269.938H134.987C138.937 270.838 143 271.307 147.147 271.307" fill="#DC646E"/>
<path d="M147.15 271.307C143.003 271.307 138.94 270.838 134.99 269.938H137.459C140.608 270.838 143.847 271.307 147.153 271.307" fill="#DC646E"/>
<path d="M147.15 271.307C143.844 271.307 140.605 270.838 137.456 269.938H140.399C142.591 270.838 144.847 271.307 147.147 271.307" fill="#DC646E"/>
<path d="M147.15 271.307C144.847 271.307 142.594 270.838 140.402 269.938H143.73C144.841 270.838 145.983 271.307 147.15 271.307Z" fill="#DC646E"/>
<path d="M147.151 271.307C145.984 271.307 144.842 270.838 143.73 269.938H147.348C147.283 270.838 147.218 271.307 147.151 271.307Z" fill="#DC646E"/>
<path d="M147.15 271.307C147.218 271.307 147.283 270.838 147.347 269.938H150.921C149.696 270.838 148.437 271.307 147.153 271.307" fill="#DC646E"/>
<path d="M147.15 271.307C148.434 271.307 149.693 270.838 150.918 269.938H154.2C149.832 271.248 149.749 271.273 147.15 271.307Z" fill="#DC646E"/>
<path d="M147.15 271.307C151.257 270.992 151.469 270.672 154.2 269.938H157.1C153.867 270.838 150.543 271.307 147.153 271.307" fill="#C35668"/>
<path d="M147.151 271.307C150.543 271.307 153.867 270.838 157.097 269.938H159.516C155.499 270.838 151.368 271.307 147.147 271.307" fill="#DC646E"/>
<path d="M147.15 271.307C151.368 271.307 155.499 270.838 159.519 269.938H161.363C156.749 270.838 151.999 271.307 147.153 271.307" fill="#DC646E"/>
<path d="M147.15 271.307C151.996 271.307 156.746 270.838 161.36 269.938H162.542C153.184 271.224 152.818 271.273 147.15 271.307Z" fill="#DC646E"/>
<path d="M147.15 271.307C156.672 270.909 157.167 270.487 162.542 269.938H162.964C157.826 270.838 152.544 271.307 147.15 271.307Z" fill="#C55368"/>
<path style="mix-blend-mode:overlay" d="M211.684 244.524C247.33 208.83 247.33 150.958 211.684 115.263C176.039 79.5689 118.246 79.5689 82.6005 115.263C46.955 150.958 46.955 208.83 82.6005 244.524C118.246 280.218 176.039 280.218 211.684 244.524Z" fill="url(#paint1_radial_2310_14852)"/>
<path style="mix-blend-mode:overlay" d="M210.868 243.707C246.063 208.464 246.063 151.324 210.868 116.081C175.674 80.8378 118.612 80.8378 83.417 116.081C48.2223 151.324 48.2223 208.464 83.417 243.707C118.612 278.95 175.674 278.95 210.868 243.707Z" fill="url(#paint2_linear_2310_14852)"/>
<path style="mix-blend-mode:screen" d="M205.39 146.435C208.819 131.546 225.633 122.758 242.912 126.821C260.227 130.893 271.423 146.232 268 161.136C264.54 176.012 247.72 184.782 230.463 180.723C213.172 176.678 201.942 161.302 205.39 146.435Z" fill="url(#paint3_radial_2310_14852)"/>
<path style="mix-blend-mode:screen" d="M140.431 68.2643C141.939 66.5442 190.02 107.105 247.806 158.907C305.596 210.663 298.645 208.574 324.796 231.403C354.046 256.936 300.074 216.924 242.311 165.156C184.509 113.362 138.888 70.0029 140.431 68.2643Z" fill="url(#paint4_radial_2310_14852)"/>
<path style="mix-blend-mode:screen" d="M229.358 91.2202C230.368 91.1 234.471 119.016 238.531 153.556C242.561 188.099 245.011 216.221 244.002 216.323C242.98 216.468 238.901 188.552 234.853 153.984C230.786 119.457 228.327 91.3528 229.358 91.2172V91.2202Z" fill="url(#paint5_radial_2310_14852)"/>
<path style="mix-blend-mode:screen" d="M174.604 161.271C174.481 160.257 202.189 156.071 236.46 151.913C270.756 147.788 298.674 145.273 298.784 146.281C298.92 147.311 271.215 151.472 236.9 155.621C202.635 159.78 174.736 162.313 174.604 161.271Z" fill="url(#paint6_radial_2310_14852)"/>
<path style="mix-blend-mode:screen" d="M209.705 130.412C213.843 125.529 229.299 132.064 244.207 144.974C259.11 157.865 267.852 172.282 263.678 177.134C259.538 182.008 244.097 175.501 229.188 162.582C214.289 149.672 205.531 135.27 209.708 130.412H209.705Z" fill="url(#paint7_radial_2310_14852)"/>
<path style="mix-blend-mode:screen" d="M257.469 124.691C262.653 128.414 257.518 144.484 246.042 160.563C234.581 176.62 221.077 186.629 215.908 182.856C210.733 179.113 215.834 163.066 227.323 147.002C238.814 130.93 252.3 120.915 257.466 124.691H257.469Z" fill="url(#paint8_radial_2310_14852)"/>
<path style="mix-blend-mode:screen" d="M234.824 137.875C237.641 137.542 240.775 144.394 241.803 153.177C242.8 161.95 241.35 169.351 238.549 169.665C235.729 170.011 232.608 163.161 231.574 154.379C230.533 145.594 232.005 138.214 234.827 137.872L234.824 137.875Z" fill="url(#paint9_radial_2310_14852)"/>
<path style="mix-blend-mode:screen" d="M220.834 154.872C220.64 152.033 227.579 149.2 236.346 148.605C245.107 148.013 252.356 149.835 252.55 152.671C252.753 155.529 245.815 158.334 237.054 158.941C228.29 159.564 221.037 157.742 220.834 154.875V154.872Z" fill="url(#paint10_radial_2310_14852)"/>
<path style="mix-blend-mode:screen" d="M177.789 202.831C179.827 193.981 189.819 188.759 200.088 191.175C210.379 193.595 217.032 202.71 214.997 211.57C212.941 220.41 202.945 225.623 192.691 223.209C182.416 220.808 175.742 211.668 177.792 202.834L177.789 202.831Z" fill="url(#paint11_radial_2310_14852)"/>
<path style="mix-blend-mode:screen" d="M147.178 265.86C146.138 264.975 169.456 235.697 199.276 200.475C229.077 165.248 227.929 169.44 241.064 153.497C255.751 135.683 232.845 168.482 203.032 203.688C173.218 238.921 148.215 266.76 147.178 265.86Z" fill="url(#paint12_radial_2310_14852)"/>
<path style="mix-blend-mode:screen" d="M139.184 156.376C140.079 155.353 168.653 179.459 202.995 210.244C237.337 241.002 233.205 239.76 248.748 253.326C266.131 268.498 234.058 244.723 199.728 213.956C165.38 183.176 138.269 157.409 139.184 156.376Z" fill="url(#paint13_radial_2310_14852)"/>
<path style="mix-blend-mode:screen" d="M192.033 170.017C192.633 169.946 195.071 186.536 197.485 207.06C199.88 227.587 201.336 244.3 200.736 244.362C200.129 244.448 197.703 227.858 195.299 207.316C192.883 186.795 191.42 170.097 192.033 170.014V170.017Z" fill="url(#paint14_radial_2310_14852)"/>
<path style="mix-blend-mode:screen" d="M159.491 211.647C159.418 211.043 175.884 208.558 196.253 206.086C216.635 203.635 233.224 202.14 233.292 202.738C233.372 203.348 216.906 205.824 196.515 208.29C176.151 210.762 159.571 212.266 159.491 211.647Z" fill="url(#paint15_radial_2310_14852)"/>
<path style="mix-blend-mode:screen" d="M180.353 193.309C182.813 190.408 191.995 194.292 200.855 201.964C209.711 209.625 214.908 218.194 212.426 221.076C209.967 223.971 200.79 220.105 191.931 212.427C183.078 204.754 177.872 196.197 180.353 193.309Z" fill="url(#paint16_radial_2310_14852)"/>
<path style="mix-blend-mode:screen" d="M208.74 189.908C211.821 192.122 208.767 201.672 201.949 211.228C195.139 220.771 187.111 226.717 184.042 224.476C180.967 222.254 183.999 212.716 190.827 203.17C197.658 193.62 205.67 187.664 208.743 189.908H208.74Z" fill="url(#paint17_radial_2310_14852)"/>
<path style="mix-blend-mode:screen" d="M195.28 197.744C196.954 197.547 198.814 201.619 199.426 206.838C200.017 212.054 199.158 216.449 197.493 216.637C195.818 216.841 193.962 212.772 193.346 207.553C192.728 202.334 193.602 197.948 195.28 197.744Z" fill="url(#paint18_radial_2310_14852)"/>
<path style="mix-blend-mode:screen" d="M186.966 207.843C186.852 206.157 190.974 204.474 196.186 204.119C201.391 203.768 205.701 204.85 205.815 206.536C205.938 208.234 201.81 209.902 196.608 210.263C191.399 210.633 187.089 209.551 186.969 207.846L186.966 207.843Z" fill="url(#paint19_radial_2310_14852)"/>
<path style="mix-blend-mode:screen" d="M200.39 241.276C181.705 243.499 164.762 230.04 162.548 211.218C160.335 192.39 173.695 175.331 192.381 173.105C211.072 170.883 228.022 184.335 230.232 203.163C232.445 221.986 219.085 239.051 200.387 241.276H200.39Z" fill="url(#paint20_radial_2310_14852)"/>
<path style="mix-blend-mode:screen" d="M38.6268 168.509C40.6647 159.659 50.657 154.437 60.9263 156.854C71.2173 159.274 77.8696 168.389 75.8348 177.248C73.7784 186.089 63.783 191.302 53.5291 188.888C43.2536 186.487 36.5797 177.347 38.6299 168.512L38.6268 168.509Z" fill="url(#paint21_radial_2310_14852)"/>
<path style="mix-blend-mode:screen" d="M8.01593 231.539C6.97545 230.654 30.2939 201.376 60.1138 166.154C89.9153 130.927 88.7702 135.119 101.902 119.176C116.589 101.362 93.6832 134.16 63.8694 169.366C34.0557 204.6 9.05641 232.439 8.01593 231.539Z" fill="url(#paint22_radial_2310_14852)"/>
<path style="mix-blend-mode:screen" d="M0.0214841 122.055C0.917283 121.032 29.4905 145.137 63.8325 175.923C98.1745 206.681 94.0434 205.439 109.586 219.005C126.969 234.177 94.8961 210.401 60.5664 179.634C26.2182 148.855 -0.892784 123.088 0.0214841 122.055Z" fill="url(#paint23_radial_2310_14852)"/>
<path style="mix-blend-mode:screen" d="M52.8709 135.696C53.4712 135.625 55.9093 152.215 58.3227 172.739C60.7176 193.266 62.1737 209.979 61.5734 210.041C60.967 210.127 58.5412 193.537 56.1371 172.995C53.7206 152.474 52.2583 135.776 52.8709 135.696Z" fill="url(#paint24_radial_2310_14852)"/>
<path style="mix-blend-mode:screen" d="M20.3323 177.326C20.2615 176.721 36.7244 174.237 57.0939 171.765C77.4756 169.314 94.0648 167.819 94.1325 168.42C94.2126 169.03 77.7465 171.506 57.3555 173.972C36.9923 176.444 20.4123 177.948 20.3323 177.329V177.326Z" fill="url(#paint25_radial_2310_14852)"/>
<path style="mix-blend-mode:screen" d="M41.1911 158.987C43.6507 156.087 52.8334 159.968 61.6929 167.643C70.5493 175.303 75.7455 183.873 73.2644 186.755C70.8048 189.65 61.6282 185.784 52.7687 178.105C43.9154 170.433 38.7099 161.876 41.1911 158.987Z" fill="url(#paint26_radial_2310_14852)"/>
<path style="mix-blend-mode:screen" d="M69.5775 155.587C72.6558 157.801 69.6052 167.35 62.7866 176.906C55.9773 186.45 47.949 192.396 44.8799 190.155C41.8046 187.933 44.8368 178.395 51.6646 168.849C58.4954 159.299 66.5083 153.343 69.5805 155.587H69.5775Z" fill="url(#paint27_radial_2310_14852)"/>
<path style="mix-blend-mode:screen" d="M56.1214 163.423C57.796 163.226 59.6553 167.298 60.2679 172.517C60.859 177.733 60.0001 182.128 58.3347 182.316C56.6601 182.52 54.8039 178.451 54.1882 173.232C53.5695 168.01 54.4437 163.627 56.1214 163.423Z" fill="url(#paint28_radial_2310_14852)"/>
<path style="mix-blend-mode:screen" d="M47.8041 173.525C47.6902 171.839 51.8121 170.156 57.0237 169.801C62.2292 169.45 66.5389 170.532 66.6528 172.218C66.7759 173.916 62.6478 175.581 57.4454 175.942C52.2369 176.311 47.9272 175.229 47.8071 173.525H47.8041Z" fill="url(#paint29_radial_2310_14852)"/>
</g>
<defs>
<radialGradient id="paint0_radial_2310_14852" cx="0" cy="0" r="1" gradientUnits="userSpaceOnUse" gradientTransform="translate(147.142 179.894) scale(116.946 117.107)">
<stop offset="0.79" stop-color="#FF8DFF" stop-opacity="0.9216"/>
<stop offset="0.8" stop-color="#FF8DFF" stop-opacity="0.6084"/>
<stop offset="0.81" stop-color="#FF8DFF" stop-opacity="0.3721"/>
<stop offset="0.82" stop-color="#FF8DFF" stop-opacity="0.2209"/>
<stop offset="0.83" stop-color="#FF8DFF" stop-opacity="0.1156"/>
<stop offset="0.84" stop-color="#FF8DFF" stop-opacity="0.0529"/>
<stop offset="0.86" stop-color="#FF8DFF" stop-opacity="0.0225"/>
<stop offset="0.87" stop-color="#FF8DFF" stop-opacity="0.01"/>
<stop offset="0.89" stop-color="#FF8DFF" stop-opacity="0.01"/>
<stop offset="0.92" stop-color="#FF8DFF" stop-opacity="0"/>
<stop offset="1" stop-color="#FF8DFF" stop-opacity="0"/>
</radialGradient>
<radialGradient id="paint1_radial_2310_14852" cx="0" cy="0" r="1" gradientUnits="userSpaceOnUse" gradientTransform="translate(147.142 179.894) scale(91.276 91.4012)">
<stop stop-color="#FF8DFF" stop-opacity="0"/>
<stop offset="0.37" stop-color="#FF8DFF" stop-opacity="0"/>
<stop offset="0.51" stop-color="#FF8DFF" stop-opacity="0.01"/>
<stop offset="0.6" stop-color="#FF8DFF" stop-opacity="0.01"/>
<stop offset="0.68" stop-color="#FF8DFF" stop-opacity="0.0225"/>
<stop offset="0.75" stop-color="#FF8DFF" stop-opacity="0.0529"/>
<stop offset="0.8" stop-color="#FF8DFF" stop-opacity="0.1156"/>
<stop offset="0.86" stop-color="#FF8DFF" stop-opacity="0.2209"/>
<stop offset="0.91" stop-color="#FF8DFF" stop-opacity="0.3721"/>
<stop offset="0.95" stop-color="#FF8DFF" stop-opacity="0.6084"/>
<stop offset="0.99" stop-color="#FF8DFF" stop-opacity="0.9216"/>
<stop offset="1" stop-color="#FF8DFF"/>
</radialGradient>
<linearGradient id="paint2_linear_2310_14852" x1="147.143" y1="270.143" x2="147.143" y2="89.6492" gradientUnits="userSpaceOnUse">
<stop stop-color="#FF00BF"/>
<stop offset="1" stop-color="#FFFC66"/>
</linearGradient>
<radialGradient id="paint3_radial_2310_14852" cx="0" cy="0" r="1" gradientUnits="userSpaceOnUse" gradientTransform="translate(237.853 157.864) rotate(-166.752) scale(31.8879 27.3661)">
<stop stop-color="#B351B0"/>
<stop offset="0.04" stop-color="#A44AA1"/>
<stop offset="0.19" stop-color="#723370"/>
<stop offset="0.34" stop-color="#492148"/>
<stop offset="0.48" stop-color="#291228"/>
<stop offset="0.62" stop-color="#120812"/>
<stop offset="0.74" stop-color="#040204"/>
<stop offset="0.86"/>
</radialGradient>
<radialGradient id="paint4_radial_2310_14852" cx="0" cy="0" r="1" gradientUnits="userSpaceOnUse" gradientTransform="translate(230.12 162.939) rotate(-138.141) scale(134.012 3.67212)">
<stop stop-color="#B351B0"/>
<stop offset="0.04" stop-color="#A44AA1"/>
<stop offset="0.19" stop-color="#723370"/>
<stop offset="0.34" stop-color="#492148"/>
<stop offset="0.48" stop-color="#291228"/>
<stop offset="0.62" stop-color="#120812"/>
<stop offset="0.74" stop-color="#040204"/>
<stop offset="0.86"/>
</radialGradient>
<radialGradient id="paint5_radial_2310_14852" cx="0" cy="0" r="1" gradientUnits="userSpaceOnUse" gradientTransform="translate(216.454 153.631) rotate(-96.6909) scale(63.2058 1.70599)">
<stop stop-color="#B351B0"/>
<stop offset="0.04" stop-color="#A44AA1"/>
<stop offset="0.19" stop-color="#723370"/>
<stop offset="0.34" stop-color="#492148"/>
<stop offset="0.48" stop-color="#291228"/>
<stop offset="0.62" stop-color="#120812"/>
<stop offset="0.74" stop-color="#040204"/>
<stop offset="0.86"/>
</radialGradient>
<radialGradient id="paint6_radial_2310_14852" cx="0" cy="0" r="1" gradientUnits="userSpaceOnUse" gradientTransform="translate(237.453 155.577) rotate(173.111) scale(62.5069 1.7148)">
<stop stop-color="#B351B0"/>
<stop offset="0.04" stop-color="#A44AA1"/>
<stop offset="0.19" stop-color="#723370"/>
<stop offset="0.34" stop-color="#492148"/>
<stop offset="0.48" stop-color="#291228"/>
<stop offset="0.62" stop-color="#120812"/>
<stop offset="0.74" stop-color="#040204"/>
<stop offset="0.86"/>
</radialGradient>
<radialGradient id="paint7_radial_2310_14852" cx="0" cy="0" r="1" gradientUnits="userSpaceOnUse" gradientTransform="translate(237.03 160.31) rotate(-139.101) scale(35.3275 11.277)">
<stop stop-color="#B351B0"/>
<stop offset="0.04" stop-color="#A44AA1"/>
<stop offset="0.19" stop-color="#723370"/>
<stop offset="0.34" stop-color="#492148"/>
<stop offset="0.48" stop-color="#291228"/>
<stop offset="0.62" stop-color="#120812"/>
<stop offset="0.74" stop-color="#040204"/>
<stop offset="0.86"/>
</radialGradient>
<radialGradient id="paint8_radial_2310_14852" cx="0" cy="0" r="1" gradientUnits="userSpaceOnUse" gradientTransform="translate(243.019 148.422) rotate(-54.4472) scale(36.0966 11.2752)">
<stop stop-color="#B351B0"/>
<stop offset="0.04" stop-color="#A44AA1"/>
<stop offset="0.19" stop-color="#723370"/>
<stop offset="0.34" stop-color="#492148"/>
<stop offset="0.48" stop-color="#291228"/>
<stop offset="0.62" stop-color="#120812"/>
<stop offset="0.74" stop-color="#040204"/>
<stop offset="0.86"/>
</radialGradient>
<radialGradient id="paint9_radial_2310_14852" cx="0" cy="0" r="1" gradientUnits="userSpaceOnUse" gradientTransform="translate(234.208 149.985) rotate(-96.6809) scale(16.1395 5.03688)">
<stop stop-color="#B351B0"/>
<stop offset="0.04" stop-color="#A44AA1"/>
<stop offset="0.19" stop-color="#723370"/>
<stop offset="0.34" stop-color="#492148"/>
<stop offset="0.48" stop-color="#291228"/>
<stop offset="0.62" stop-color="#120812"/>
<stop offset="0.74" stop-color="#040204"/>
<stop offset="0.86"/>
</radialGradient>
<radialGradient id="paint10_radial_2310_14852" cx="0" cy="0" r="1" gradientUnits="userSpaceOnUse" gradientTransform="translate(236.121 151.471) rotate(176.025) scale(15.7777 5.04228)">
<stop stop-color="#B351B0"/>
<stop offset="0.04" stop-color="#A44AA1"/>
<stop offset="0.19" stop-color="#723370"/>
<stop offset="0.34" stop-color="#492148"/>
<stop offset="0.48" stop-color="#291228"/>
<stop offset="0.62" stop-color="#120812"/>
<stop offset="0.74" stop-color="#040204"/>
<stop offset="0.86"/>
</radialGradient>
<radialGradient id="paint11_radial_2310_14852" cx="0" cy="0" r="1" gradientUnits="userSpaceOnUse" gradientTransform="translate(197.708 210.632) rotate(-166.752) scale(18.9502 16.2629)">
<stop stop-color="#B351B0"/>
<stop offset="0.04" stop-color="#A44AA1"/>
<stop offset="0.19" stop-color="#723370"/>
<stop offset="0.34" stop-color="#492148"/>
<stop offset="0.48" stop-color="#291228"/>
<stop offset="0.62" stop-color="#120812"/>
<stop offset="0.74" stop-color="#040204"/>
<stop offset="0.86"/>
</radialGradient>
<radialGradient id="paint12_radial_2310_14852" cx="0" cy="0" r="1" gradientUnits="userSpaceOnUse" gradientTransform="translate(185.224 194.862) rotate(130.231) scale(79.6074 2.18053)">
<stop stop-color="#B351B0"/>
<stop offset="0.04" stop-color="#A44AA1"/>
<stop offset="0.19" stop-color="#723370"/>
<stop offset="0.34" stop-color="#492148"/>
<stop offset="0.48" stop-color="#291228"/>
<stop offset="0.62" stop-color="#120812"/>
<stop offset="0.74" stop-color="#040204"/>
<stop offset="0.86"/>
</radialGradient>
<radialGradient id="paint13_radial_2310_14852" cx="0" cy="0" r="1" gradientUnits="userSpaceOnUse" gradientTransform="translate(193.199 211.901) rotate(-138.141) scale(79.6463 2.18242)">
<stop stop-color="#B351B0"/>
<stop offset="0.04" stop-color="#A44AA1"/>
<stop offset="0.19" stop-color="#723370"/>
<stop offset="0.34" stop-color="#492148"/>
<stop offset="0.48" stop-color="#291228"/>
<stop offset="0.62" stop-color="#120812"/>
<stop offset="0.74" stop-color="#040204"/>
<stop offset="0.86"/>
</radialGradient>
<radialGradient id="paint14_radial_2310_14852" cx="0" cy="0" r="1" gradientUnits="userSpaceOnUse" gradientTransform="translate(179.879 206.765) rotate(-96.6909) scale(37.5644 1.0139)">
<stop stop-color="#B351B0"/>
<stop offset="0.04" stop-color="#A44AA1"/>
<stop offset="0.19" stop-color="#723370"/>
<stop offset="0.34" stop-color="#492148"/>
<stop offset="0.48" stop-color="#291228"/>
<stop offset="0.62" stop-color="#120812"/>
<stop offset="0.74" stop-color="#040204"/>
<stop offset="0.86"/>
</radialGradient>
<radialGradient id="paint15_radial_2310_14852" cx="0" cy="0" r="1" gradientUnits="userSpaceOnUse" gradientTransform="translate(196.783 205.125) rotate(173.111) scale(37.1446 1.01902)">
<stop stop-color="#B351B0"/>
<stop offset="0.04" stop-color="#A44AA1"/>
<stop offset="0.19" stop-color="#723370"/>
<stop offset="0.34" stop-color="#492148"/>
<stop offset="0.48" stop-color="#291228"/>
<stop offset="0.62" stop-color="#120812"/>
<stop offset="0.74" stop-color="#040204"/>
<stop offset="0.86"/>
</radialGradient>
<radialGradient id="paint16_radial_2310_14852" cx="0" cy="0" r="1" gradientUnits="userSpaceOnUse" gradientTransform="translate(197.551 212.202) rotate(-139.101) scale(20.9941 6.70157)">
<stop stop-color="#B351B0"/>
<stop offset="0.04" stop-color="#A44AA1"/>
<stop offset="0.19" stop-color="#723370"/>
<stop offset="0.34" stop-color="#492148"/>
<stop offset="0.48" stop-color="#291228"/>
<stop offset="0.62" stop-color="#120812"/>
<stop offset="0.74" stop-color="#040204"/>
<stop offset="0.86"/>
</radialGradient>
<radialGradient id="paint17_radial_2310_14852" cx="0" cy="0" r="1" gradientUnits="userSpaceOnUse" gradientTransform="translate(202.375 202.384) rotate(-54.4471) scale(21.4521 6.70082)">
<stop stop-color="#B351B0"/>
<stop offset="0.04" stop-color="#A44AA1"/>
<stop offset="0.19" stop-color="#723370"/>
<stop offset="0.34" stop-color="#492148"/>
<stop offset="0.48" stop-color="#291228"/>
<stop offset="0.62" stop-color="#120812"/>
<stop offset="0.74" stop-color="#040204"/>
<stop offset="0.86"/>
</radialGradient>
<radialGradient id="paint18_radial_2310_14852" cx="0" cy="0" r="1" gradientUnits="userSpaceOnUse" gradientTransform="translate(194.923 203.613) rotate(-96.6809) scale(9.59227 2.99359)">
<stop stop-color="#B351B0"/>
<stop offset="0.04" stop-color="#A44AA1"/>
<stop offset="0.19" stop-color="#723370"/>
<stop offset="0.34" stop-color="#492148"/>
<stop offset="0.48" stop-color="#291228"/>
<stop offset="0.62" stop-color="#120812"/>
<stop offset="0.74" stop-color="#040204"/>
<stop offset="0.86"/>
</radialGradient>
<radialGradient id="paint19_radial_2310_14852" cx="0" cy="0" r="1" gradientUnits="userSpaceOnUse" gradientTransform="translate(196.087 203.535) rotate(176.025) scale(9.37548 2.99623)">
<stop stop-color="#B351B0"/>
<stop offset="0.04" stop-color="#A44AA1"/>
<stop offset="0.19" stop-color="#723370"/>
<stop offset="0.34" stop-color="#492148"/>
<stop offset="0.48" stop-color="#291228"/>
<stop offset="0.62" stop-color="#120812"/>
<stop offset="0.74" stop-color="#040204"/>
<stop offset="0.86"/>
</radialGradient>
<radialGradient id="paint20_radial_2310_14852" cx="0" cy="0" r="1" gradientUnits="userSpaceOnUse" gradientTransform="translate(197.259 207.302) rotate(83.2991) scale(34.3549 34.3092)">
<stop stop-color="#B351B0"/>
<stop offset="0.04" stop-color="#A44AA1"/>
<stop offset="0.19" stop-color="#723370"/>
<stop offset="0.34" stop-color="#492148"/>
<stop offset="0.48" stop-color="#291228"/>
<stop offset="0.62" stop-color="#120812"/>
<stop offset="0.74" stop-color="#040204"/>
<stop offset="0.86"/>
</radialGradient>
<radialGradient id="paint21_radial_2310_14852" cx="0" cy="0" r="1" gradientUnits="userSpaceOnUse" gradientTransform="translate(59.6809 176.593) rotate(-166.752) scale(18.9502 16.2629)">
<stop stop-color="#B351B0"/>
<stop offset="0.04" stop-color="#A44AA1"/>
<stop offset="0.19" stop-color="#723370"/>
<stop offset="0.34" stop-color="#492148"/>
<stop offset="0.48" stop-color="#291228"/>
<stop offset="0.62" stop-color="#120812"/>
<stop offset="0.74" stop-color="#040204"/>
<stop offset="0.86"/>
</radialGradient>
<radialGradient id="paint22_radial_2310_14852" cx="0" cy="0" r="1" gradientUnits="userSpaceOnUse" gradientTransform="translate(53.587 167.804) rotate(130.231) scale(79.6074 2.18053)">
<stop stop-color="#B351B0"/>
<stop offset="0.04" stop-color="#A44AA1"/>
<stop offset="0.19" stop-color="#723370"/>
<stop offset="0.34" stop-color="#492148"/>
<stop offset="0.48" stop-color="#291228"/>
<stop offset="0.62" stop-color="#120812"/>
<stop offset="0.74" stop-color="#040204"/>
<stop offset="0.86"/>
</radialGradient>
<radialGradient id="paint23_radial_2310_14852" cx="0" cy="0" r="1" gradientUnits="userSpaceOnUse" gradientTransform="translate(57.757 173.649) rotate(-138.141) scale(79.6463 2.18242)">
<stop stop-color="#B351B0"/>
<stop offset="0.04" stop-color="#A44AA1"/>
<stop offset="0.19" stop-color="#723370"/>
<stop offset="0.34" stop-color="#492148"/>
<stop offset="0.48" stop-color="#291228"/>
<stop offset="0.62" stop-color="#120812"/>
<stop offset="0.74" stop-color="#040204"/>
<stop offset="0.86"/>
</radialGradient>
<radialGradient id="paint24_radial_2310_14852" cx="0" cy="0" r="1" gradientUnits="userSpaceOnUse" gradientTransform="translate(51.3946 170.501) rotate(-96.6909) scale(37.5644 1.0139)">
<stop stop-color="#B351B0"/>
<stop offset="0.04" stop-color="#A44AA1"/>
<stop offset="0.19" stop-color="#723370"/>
<stop offset="0.34" stop-color="#492148"/>
<stop offset="0.48" stop-color="#291228"/>
<stop offset="0.62" stop-color="#120812"/>
<stop offset="0.74" stop-color="#040204"/>
<stop offset="0.86"/>
</radialGradient>
<radialGradient id="paint25_radial_2310_14852" cx="0" cy="0" r="1" gradientUnits="userSpaceOnUse" gradientTransform="translate(58.3464 174.846) rotate(173.111) scale(37.1468 1.01908)">
<stop stop-color="#B351B0"/>
<stop offset="0.04" stop-color="#A44AA1"/>
<stop offset="0.19" stop-color="#723370"/>
<stop offset="0.34" stop-color="#492148"/>
<stop offset="0.48" stop-color="#291228"/>
<stop offset="0.62" stop-color="#120812"/>
<stop offset="0.74" stop-color="#040204"/>
<stop offset="0.86"/>
</radialGradient>
<radialGradient id="paint26_radial_2310_14852" cx="0" cy="0" r="1" gradientUnits="userSpaceOnUse" gradientTransform="translate(60.2285 177.287) rotate(-139.101) scale(20.9941 6.70157)">
<stop stop-color="#B351B0"/>
<stop offset="0.04" stop-color="#A44AA1"/>
<stop offset="0.19" stop-color="#723370"/>
<stop offset="0.34" stop-color="#492148"/>
<stop offset="0.48" stop-color="#291228"/>
<stop offset="0.62" stop-color="#120812"/>
<stop offset="0.74" stop-color="#040204"/>
<stop offset="0.86"/>
</radialGradient>
<radialGradient id="paint27_radial_2310_14852" cx="0" cy="0" r="1" gradientUnits="userSpaceOnUse" gradientTransform="translate(65.0963 170.907) rotate(-54.4472) scale(21.4521 6.70082)">
<stop stop-color="#B351B0"/>
<stop offset="0.04" stop-color="#A44AA1"/>
<stop offset="0.19" stop-color="#723370"/>
<stop offset="0.34" stop-color="#492148"/>
<stop offset="0.48" stop-color="#291228"/>
<stop offset="0.62" stop-color="#120812"/>
<stop offset="0.74" stop-color="#040204"/>
<stop offset="0.86"/>
</radialGradient>
<radialGradient id="paint28_radial_2310_14852" cx="0" cy="0" r="1" gradientUnits="userSpaceOnUse" gradientTransform="translate(58.5392 168.446) rotate(-96.6809) scale(9.59227 2.99359)">
<stop stop-color="#B351B0"/>
<stop offset="0.04" stop-color="#A44AA1"/>
<stop offset="0.19" stop-color="#723370"/>
<stop offset="0.34" stop-color="#492148"/>
<stop offset="0.48" stop-color="#291228"/>
<stop offset="0.62" stop-color="#120812"/>
<stop offset="0.74" stop-color="#040204"/>
<stop offset="0.86"/>
</radialGradient>
<radialGradient id="paint29_radial_2310_14852" cx="0" cy="0" r="1" gradientUnits="userSpaceOnUse" gradientTransform="translate(58.031 170.296) rotate(176.025) scale(9.37547 2.99623)">
<stop stop-color="#B351B0"/>
<stop offset="0.04" stop-color="#A44AA1"/>
<stop offset="0.19" stop-color="#723370"/>
<stop offset="0.34" stop-color="#492148"/>
<stop offset="0.48" stop-color="#291228"/>
<stop offset="0.62" stop-color="#120812"/>
<stop offset="0.74" stop-color="#040204"/>
<stop offset="0.86"/>
</radialGradient>
<clipPath id="clip0_2310_14852">
<rect width="333" height="242" fill="white" transform="translate(0 55)"/>
</clipPath>
</defs>
</svg>
