<svg width="669" height="1119" viewBox="0 0 669 1119" fill="none" xmlns="http://www.w3.org/2000/svg">
<rect x="293" width="6" height="700" fill="white"/>
<rect x="304" width="8" height="803" fill="white"/>
<g style="mix-blend-mode:luminosity" clip-path="url(#clip0_2307_14852)">
<path style="mix-blend-mode:overlay" d="M461.742 1050.17C553.494 958.555 553.494 810.02 461.742 718.407C369.99 626.794 221.23 626.794 129.478 718.408C37.7256 810.021 37.7256 958.555 129.478 1050.17C221.23 1141.78 369.99 1141.78 461.742 1050.17Z" fill="url(#paint0_radial_2307_14852)"/>
<path d="M282.028 701.697H281.583C286.221 701.345 290.903 701.166 295.628 701.166C291.051 701.166 286.518 701.345 282.028 701.697Z" fill="#E48A8F"/>
<path d="M283.134 701.697H282.027C286.517 701.345 291.05 701.166 295.627 701.166C291.421 701.166 287.259 701.345 283.141 701.697" fill="#E48A8F"/>
<path d="M284.823 701.697H283.135C287.26 701.345 291.422 701.166 295.621 701.166L284.823 701.697Z" fill="#E48A8F"/>
<path d="M287.019 701.697H284.823L295.621 701.166C292.727 701.166 289.857 701.345 287.013 701.697" fill="#E48A8F"/>
<path d="M289.635 701.697H287.019C289.863 701.345 292.727 701.166 295.627 701.166C293.611 701.166 291.614 701.345 289.635 701.697Z" fill="#E48B90"/>
<path d="M292.584 701.697H289.628C291.607 701.345 293.605 701.166 295.621 701.166C294.6 701.166 293.586 701.345 292.584 701.697Z" fill="#E48B90"/>
<path d="M295.8 701.697H292.584C293.586 701.345 294.6 701.166 295.621 701.166C295.676 701.166 295.738 701.345 295.794 701.697" fill="#E58C91"/>
<path d="M298.973 701.697H295.8C295.744 701.345 295.683 701.166 295.627 701.166C296.753 701.166 297.872 701.345 298.973 701.697Z" fill="#E58C91"/>
<path d="M301.886 701.697H298.967C297.866 701.345 296.747 701.166 295.621 701.166C297.724 701.166 299.814 701.345 301.88 701.697" fill="#E58D91"/>
<path d="M304.458 701.697H301.886C299.82 701.345 297.73 701.166 295.627 701.166C298.602 701.166 301.545 701.345 304.464 701.697" fill="#E58D91"/>
<path d="M306.61 701.697H304.465C301.552 701.345 298.602 701.166 295.627 701.166C299.325 701.166 302.986 701.345 306.61 701.697Z" fill="#E58E93"/>
<path d="M308.244 701.697H306.605C302.981 701.345 299.319 701.166 295.621 701.166C299.864 701.166 304.075 701.345 308.244 701.697Z" fill="#E58E93"/>
<path d="M309.295 701.697H308.244C304.081 701.345 299.87 701.166 295.621 701.166C300.222 701.166 304.78 701.345 309.295 701.697Z" fill="#E58E93"/>
<path d="M309.672 701.697H309.295C304.78 701.345 300.222 701.166 295.621 701.166C300.346 701.166 305.028 701.345 309.666 701.697" fill="#E58E93"/>
<path d="M248.168 707.366H248.149C253.95 705.816 259.863 704.544 265.874 703.568C270.587 702.994 276.845 702.074 281.576 701.703C270.11 702.568 258.941 704.494 248.162 707.372" fill="#DC7284"/>
<path d="M249.665 707.365H248.168C258.947 704.488 270.116 702.567 281.582 701.697H282.028C270.927 702.561 260.104 704.488 249.665 707.365Z" fill="#E28289"/>
<path d="M253.412 707.365H249.671C260.11 704.488 270.927 702.567 282.034 701.697H283.141C272.943 702.561 263.005 704.488 253.412 707.365Z" fill="#E3848B"/>
<path d="M259.127 707.365H253.412C263.004 704.488 272.936 702.567 283.141 701.697H284.829C276.01 702.561 267.42 704.488 259.127 707.365Z" fill="#E3868C"/>
<path d="M266.536 707.365H259.127C267.42 704.488 276.01 702.567 284.829 701.697H287.025C279.993 702.561 273.147 704.488 266.542 707.365" fill="#BB5162"/>
<path d="M275.367 707.365H266.529C273.14 704.488 279.987 702.567 287.012 701.697H289.628C284.736 702.561 279.968 704.488 275.367 707.365Z" fill="#E48A8F"/>
<path d="M285.354 707.365H275.366C279.967 704.488 284.736 702.567 289.627 701.697H292.584C290.104 702.561 287.686 704.488 285.354 707.365Z" fill="#FFA6B1"/>
<path d="M296.215 707.365H285.355C287.687 704.488 290.105 702.567 292.585 701.697H295.801C295.943 702.561 296.079 704.488 296.215 707.365Z" fill="#E58E93"/>
<path d="M306.932 707.365H296.208C296.078 704.488 295.936 702.567 295.794 701.697H298.967C301.7 702.561 304.359 704.488 306.932 707.365Z" fill="#E59097"/>
<path d="M316.784 707.365H306.938C304.365 704.488 301.706 702.567 298.973 701.697H301.892C307 702.561 311.985 704.488 316.79 707.365" fill="#FFF0F3"/>
<path d="M325.48 707.365H316.778C311.973 704.488 306.994 702.567 301.88 701.697H304.453C311.67 702.561 318.695 704.488 325.473 707.365" fill="#E69198"/>
<path d="M332.746 707.365H325.479C318.695 704.488 311.669 702.567 304.458 701.697H306.604C315.571 702.561 324.31 704.488 332.739 707.365" fill="#E69299"/>
<path d="M338.281 707.365H332.746C324.316 704.488 315.578 702.567 306.61 701.697H308.249C318.552 702.561 328.596 704.488 338.281 707.365Z" fill="#E69399"/>
<path d="M341.831 707.365H338.282C328.591 704.488 318.553 702.567 308.25 701.697H309.301C320.464 702.561 331.336 704.488 341.831 707.365Z" fill="#E69499"/>
<path d="M343.092 707.365H341.83C331.335 704.488 320.457 702.567 309.3 701.697H309.677C321.143 702.561 332.318 704.488 343.098 707.365" fill="#E69499"/>
<path d="M217.096 718.771H217.065C223.72 715.615 230.591 712.849 237.653 710.502C241.104 709.354 244.605 708.304 248.148 707.359H248.167C237.387 710.237 226.998 714.072 217.096 718.771Z" fill="#D57887"/>
<path d="M219.577 718.771H217.097C226.998 714.078 237.388 710.237 248.167 707.359H249.664C239.225 710.237 229.162 714.072 219.577 718.771Z" fill="#E27E87"/>
<path d="M225.774 718.771H219.583C229.169 714.078 239.231 710.237 249.67 707.359H253.412C243.826 710.237 234.58 714.072 225.774 718.771Z" fill="#E38189"/>
<path d="M235.223 718.771H225.773C234.58 714.078 243.826 710.237 253.412 707.359H259.126C250.833 710.237 242.842 714.072 235.229 718.771" fill="#E28389"/>
<path d="M247.487 718.771H235.224C242.837 714.078 250.827 710.237 259.12 707.359H266.529C259.924 710.237 253.554 714.072 247.481 718.771" fill="#E3868C"/>
<path d="M262.107 718.771H247.487C253.554 714.078 259.924 710.237 266.535 707.359H275.373C270.772 710.237 266.337 714.072 262.107 718.771Z" fill="#E48B90"/>
<path d="M278.632 718.771H262.107C266.331 714.078 270.766 710.237 275.373 707.359H285.361C283.029 710.237 280.778 714.072 278.638 718.771" fill="#E69095"/>
<path d="M296.598 718.771H278.632C280.778 714.078 283.023 710.237 285.354 707.359H296.214C296.35 710.237 296.48 714.072 296.598 718.771Z" fill="#FFBFC8"/>
<path d="M314.341 718.771H296.598C296.475 714.078 296.351 710.237 296.215 707.359H306.939C309.505 710.237 311.985 714.072 314.341 718.771Z" fill="#CD6878"/>
<path d="M330.638 718.771H314.335C311.979 714.078 309.499 710.237 306.933 707.359H316.778C321.59 710.237 326.222 714.072 330.631 718.771" fill="#E8999E"/>
<path d="M345.033 718.771H330.642C326.227 714.078 321.594 710.237 316.789 707.359H325.491C332.275 710.237 338.812 714.072 345.04 718.771" fill="#D98995"/>
<path d="M357.051 718.771H345.034C338.807 714.078 332.27 710.237 325.485 707.359H332.752C341.181 710.237 349.314 714.072 357.057 718.771" fill="#E8999E"/>
<path d="M366.204 718.771H357.051C349.308 714.078 341.182 710.237 332.746 707.359H338.281C347.966 710.237 357.304 714.072 366.204 718.771Z" fill="#D27886"/>
<path d="M372.078 718.771H366.203C357.304 714.078 347.965 710.237 338.28 707.359H341.83C352.325 710.237 362.443 714.072 372.084 718.771" fill="#E7989D"/>
<path d="M374.17 718.771H372.079C362.438 714.078 352.326 710.237 341.825 707.359H343.087C353.866 710.237 364.256 714.072 374.164 718.771" fill="#E7979B"/>
<path d="M188.958 735.345H188.921C196.033 730.256 203.522 725.662 211.339 721.617C213.232 720.642 215.143 719.691 217.066 718.777H217.097C207.196 723.47 197.783 729.028 188.958 735.345Z" fill="#DC7284"/>
<path d="M192.329 735.345H188.959C197.79 729.028 207.197 723.47 217.098 718.777H219.578C209.992 723.47 200.876 729.028 192.329 735.345Z" fill="#E0747D"/>
<path d="M200.739 735.345H192.328C200.875 729.028 209.991 723.47 219.577 718.777H225.767C216.961 723.47 208.587 729.028 200.739 735.345Z" fill="#AE4759"/>
<path d="M213.578 735.345H200.739C208.593 729.028 216.967 723.47 225.768 718.777H235.217C227.604 723.47 220.362 729.028 213.572 735.345" fill="#E27F86"/>
<path d="M230.239 735.345H213.584C220.374 729.028 227.616 723.47 235.229 718.777H247.493C241.42 723.47 235.656 729.028 230.245 735.345" fill="#FFE0E3"/>
<path d="M250.097 735.345H230.239C235.651 729.028 241.421 723.47 247.488 718.777H262.108C257.884 723.47 253.864 729.028 250.097 735.345Z" fill="#E69198"/>
<path d="M272.541 735.345H250.098C253.864 729.028 257.884 723.47 262.108 718.777H278.633C276.487 723.47 274.452 729.028 272.541 735.345Z" fill="#C55C6D"/>
<path d="M296.945 735.345H272.541C274.452 729.028 276.487 723.47 278.633 718.777H296.598C296.722 723.47 296.84 729.028 296.951 735.345" fill="#EA9FA3"/>
<path d="M321.045 735.345H296.95C296.839 729.028 296.728 723.47 296.598 718.777H314.341C316.697 723.47 318.942 729.028 321.045 735.345Z" fill="#D98B98"/>
<path d="M343.185 735.345H321.045C318.942 729.028 316.697 723.47 314.341 718.777H330.643C335.059 723.47 339.252 729.028 343.191 735.345" fill="#EAA3A5"/>
<path d="M362.734 735.345H343.185C339.245 729.028 335.052 723.47 330.637 718.777H345.028C351.256 723.47 357.18 729.028 362.734 735.345Z" fill="#FFC1CA"/>
<path d="M379.061 735.345H362.734C357.181 729.028 351.262 723.47 345.028 718.777H357.045C364.788 723.47 372.153 729.028 379.055 735.345" fill="#EAA0A4"/>
<path d="M391.498 735.345H379.061C372.153 729.028 364.794 723.47 357.051 718.777H366.204C375.103 723.47 383.563 729.028 391.498 735.345Z" fill="#C36272"/>
<path d="M399.475 735.345H391.497C383.563 729.028 375.103 723.47 366.203 718.777H372.078C381.72 723.47 390.879 729.028 399.475 735.345Z" fill="#E8999E"/>
<path d="M402.314 735.345H399.475C390.879 729.028 381.72 723.47 372.078 718.777H374.168C384.07 723.47 393.482 729.028 402.314 735.345Z" fill="#FFC8CF"/>
<path d="M164.381 756.432H164.332C164.864 755.889 165.396 755.352 165.928 754.815C172.57 748.189 179.713 742.063 187.301 736.506C187.839 736.117 188.371 735.728 188.915 735.339H188.952C180.146 741.637 171.92 748.701 164.375 756.426" fill="#D57887"/>
<path d="M168.531 756.432H164.381C171.926 748.707 180.151 741.643 188.958 735.345H192.328C183.8 741.643 175.841 748.707 168.531 756.432Z" fill="#FF9CAA"/>
<path d="M178.884 756.432H168.531C175.841 748.707 183.801 741.643 192.329 735.345H200.74C192.91 741.643 185.594 748.707 178.878 756.432" fill="#E0747D"/>
<path d="M194.678 756.432H178.883C185.593 748.707 192.909 741.643 200.745 735.345H213.584C206.812 741.643 200.485 748.707 194.684 756.432" fill="#E27C83"/>
<path d="M215.173 756.432H194.678C200.479 748.707 206.805 741.643 213.577 735.345H230.232C224.833 741.643 219.793 748.707 215.167 756.432" fill="#E3848B"/>
<path d="M239.608 756.432H215.174C219.8 748.707 224.84 741.643 230.239 735.345H250.097C246.337 741.643 242.831 748.707 239.608 756.432Z" fill="#E7959A"/>
<path d="M267.221 756.432H239.602C242.824 748.707 246.33 741.643 250.09 735.345H272.534C270.629 741.643 268.848 748.707 267.215 756.432" fill="#FFC8CF"/>
<path d="M297.248 756.432H267.223C268.855 748.707 270.636 741.643 272.541 735.345H296.945C297.05 741.643 297.155 748.707 297.248 756.432Z" fill="#EBAAAC"/>
<path d="M326.902 756.432H297.247C297.155 748.707 297.049 741.643 296.944 735.345H321.039C323.142 741.643 325.102 748.707 326.896 756.432" fill="#EDB1B3"/>
<path d="M354.143 756.432H326.901C325.101 748.707 323.14 741.643 321.044 735.345H343.184C347.111 741.643 350.779 748.707 354.143 756.432Z" fill="#EEB5B8"/>
<path d="M378.195 756.432H354.138C350.773 748.707 347.106 741.643 343.179 735.345H362.728C368.269 741.643 373.445 748.707 378.189 756.432" fill="#D77B8A"/>
<path d="M398.282 756.432H378.195C373.446 748.707 368.276 741.643 362.734 735.345H379.061C385.951 741.643 392.382 748.707 398.282 756.432Z" fill="#EBAAAC"/>
<path d="M413.582 756.432H398.282C392.382 748.707 385.944 741.643 379.061 735.345H391.497C399.407 741.643 406.804 748.707 413.582 756.432Z" fill="#EAA3A5"/>
<path d="M423.404 756.432H413.583C406.798 748.707 399.408 741.643 391.498 735.345H399.476C408.048 741.643 416.056 748.707 423.404 756.432Z" fill="#E89B9F"/>
<path d="M426.891 756.432H423.403C416.056 748.707 408.047 741.643 399.476 735.345H402.314C411.121 741.643 419.346 748.707 426.891 756.432Z" fill="#E8989C"/>
<path d="M143.83 781.571H143.774C145.017 779.743 146.291 777.94 147.596 776.155C152.711 769.19 158.308 762.601 164.331 756.432H164.381C156.817 764.176 149.934 772.586 143.824 781.571" fill="#DC7284"/>
<path d="M148.623 781.571H143.83C149.934 772.592 156.817 764.176 164.387 756.432H168.537C161.208 764.176 154.541 772.586 148.629 781.571" fill="#DC646E"/>
<path d="M160.596 781.571H148.623C154.535 772.592 161.202 764.176 168.531 756.432H178.883C172.155 764.176 166.032 772.586 160.596 781.571Z" fill="#CA5266"/>
<path d="M178.87 781.571H160.602C166.031 772.592 172.154 764.176 178.889 756.432H194.684C188.864 764.176 183.57 772.586 178.877 781.571" fill="#E17981"/>
<path d="M202.57 781.571H178.865C183.559 772.592 188.859 764.176 194.673 756.432H215.168C210.529 764.176 206.312 772.586 202.57 781.571Z" fill="#CD6B7B"/>
<path d="M230.833 781.571H202.57C206.312 772.592 210.53 764.176 215.168 756.432H239.603C236.374 764.176 233.437 772.586 230.827 781.571" fill="#E8999E"/>
<path d="M262.776 781.571H230.833C233.437 772.592 236.38 764.176 239.609 756.432H267.228C265.589 764.176 264.099 772.586 262.782 781.571" fill="#EBAAAC"/>
<path d="M297.501 781.571H262.77C264.093 772.592 265.583 764.176 267.216 756.432H297.242C297.334 764.176 297.421 772.586 297.495 781.571" fill="#F0BCBF"/>
<path d="M331.799 781.571H297.501C297.426 772.592 297.34 764.176 297.247 756.432H326.901C328.707 764.176 330.346 772.586 331.799 781.571Z" fill="#F2C6C8"/>
<path d="M363.303 781.571H331.799C330.346 772.592 328.707 764.176 326.901 756.432H354.144C357.52 764.176 360.588 772.586 363.309 781.571" fill="#F3C7C9"/>
<path d="M391.127 781.571H363.303C360.582 772.592 357.514 764.176 354.138 756.432H378.195C382.957 764.176 387.286 772.586 391.127 781.571Z" fill="#EFBABC"/>
<path d="M414.362 781.571H391.127C387.286 772.592 382.957 764.176 378.195 756.432H398.282C404.201 764.176 409.581 772.586 414.362 781.571Z" fill="#D07686"/>
<path d="M432.055 781.571H414.362C409.587 772.592 404.201 764.176 398.282 756.432H413.582C420.385 764.176 426.57 772.586 432.055 781.571Z" fill="#EBA5A8"/>
<path d="M443.417 781.571H432.056C426.57 772.592 420.38 764.176 413.583 756.432H423.404C430.77 764.176 437.473 772.586 443.417 781.571Z" fill="#E89B9F"/>
<path d="M447.455 781.571H443.416C437.473 772.592 430.769 764.176 423.403 756.432H426.891C434.461 764.176 441.344 772.586 447.455 781.571Z" fill="#FFC6CD"/>
<path d="M127.937 810.131H127.875C129.378 806.747 130.98 803.424 132.68 800.152C136.02 793.723 139.724 787.524 143.775 781.565H143.831C137.727 790.55 132.396 800.102 127.943 810.131" fill="#D57887"/>
<path d="M133.236 810.131H127.936C132.388 800.102 137.719 790.55 143.823 781.565H148.616C142.704 790.55 137.546 800.102 133.229 810.131" fill="#BB4A5E"/>
<path d="M146.465 810.131H133.236C137.553 800.102 142.711 790.55 148.623 781.565H160.596C155.166 790.55 150.423 800.102 146.465 810.131Z" fill="#DC646E"/>
<path d="M166.644 810.131H146.464C150.428 800.102 155.165 790.55 160.595 781.565H178.864C174.17 790.55 170.07 800.102 166.644 810.131Z" fill="#DE6C75"/>
<path d="M192.829 810.131H166.645C170.071 800.102 174.171 790.55 178.865 781.565H202.57C198.822 790.55 195.557 800.102 192.829 810.131Z" fill="#E2838A"/>
<path d="M224.048 810.131H192.829C195.563 800.102 198.828 790.55 202.57 781.565H230.832C228.229 790.55 225.953 800.102 224.048 810.131Z" fill="#E7969B"/>
<path d="M259.337 810.131H224.049C225.954 800.102 228.223 790.55 230.833 781.565H262.776C261.458 790.55 260.302 800.102 259.337 810.131Z" fill="#EEB3B6"/>
<path d="M297.699 810.131H259.337C260.302 800.102 261.452 790.55 262.775 781.565H297.507C297.581 790.55 297.649 800.102 297.705 810.131" fill="#F3CCCE"/>
<path d="M335.584 810.131H297.698C297.642 800.102 297.58 790.55 297.5 781.565H331.799C333.258 790.55 334.526 800.102 335.584 810.131Z" fill="#F7DBDD"/>
<path d="M370.391 810.131H335.585C334.521 800.102 333.253 790.55 331.8 781.565H363.303C366.031 790.55 368.405 800.102 370.391 810.131Z" fill="white"/>
<path d="M401.127 810.131H370.39C368.405 800.102 366.03 790.55 363.303 781.565H391.126C394.967 790.55 398.325 800.102 401.127 810.131Z" fill="#F2C3C5"/>
<path d="M426.793 810.131H401.134C398.326 800.102 394.974 790.55 391.134 781.565H414.369C419.149 790.55 423.311 800.102 426.799 810.131" fill="#EEB5B8"/>
<path d="M446.335 810.131H426.786C423.304 800.102 419.136 790.55 414.355 781.565H432.049C437.541 790.55 442.328 800.102 446.329 810.131" fill="#EBA5A8"/>
<path d="M458.884 810.131H446.336C442.334 800.102 437.541 790.55 432.056 781.565H443.416C449.366 790.55 454.548 800.102 458.884 810.131Z" fill="#E8989C"/>
<path d="M463.348 810.131H458.889C454.554 800.102 449.365 790.55 443.422 781.565H447.46C453.564 790.55 458.895 800.102 463.354 810.131" fill="#E69198"/>
<path d="M117.299 841.537H117.237C118.468 836.418 119.909 831.379 121.56 826.433C123.416 820.875 125.524 815.441 127.881 810.137H127.943C123.49 820.165 119.909 830.663 117.305 841.537" fill="#DC7284"/>
<path d="M122.933 841.537H117.299C119.902 830.663 123.483 820.159 127.936 810.137H133.236C128.926 820.165 125.456 830.663 122.933 841.537Z" fill="#DC646E"/>
<path d="M136.996 841.537H122.933C125.456 830.663 128.919 820.159 133.236 810.137H146.464C142.5 820.165 139.321 830.663 137.002 841.537" fill="#CA5467"/>
<path d="M158.463 841.537H136.997C139.316 830.663 142.501 820.159 146.459 810.137H166.639C163.213 820.165 160.461 830.663 158.457 841.537" fill="#DD6A73"/>
<path d="M186.31 841.537H158.462C160.466 830.663 163.218 820.159 166.644 810.137H192.829C190.101 820.165 187.906 830.663 186.31 841.537Z" fill="#964652"/>
<path d="M219.51 841.537H186.312C187.907 830.663 190.103 820.159 192.83 810.137H224.049C222.15 820.165 220.623 830.663 219.51 841.537Z" fill="#E8999E"/>
<path d="M257.036 841.537H219.509C220.622 830.663 222.15 820.159 224.048 810.137H259.336C258.372 820.165 257.599 830.663 257.036 841.537Z" fill="#D6949D"/>
<path d="M297.829 841.537H257.036C257.599 830.663 258.378 820.159 259.337 810.137H297.699C297.754 820.165 297.798 830.663 297.829 841.537Z" fill="#F6D9DB"/>
<path d="M338.12 841.537H297.828C297.797 830.663 297.754 820.159 297.698 810.137H335.584C336.648 820.165 337.501 830.663 338.12 841.537Z" fill="#FCF3F4"/>
<path d="M375.134 841.537H338.121C337.502 830.663 336.649 820.159 335.585 810.137H370.391C372.376 820.165 373.972 830.663 375.134 841.537Z" fill="#F9E6E7"/>
<path d="M407.825 841.537H375.14C373.977 830.663 372.382 820.159 370.396 810.137H401.133C403.935 820.165 406.186 830.663 407.825 841.537Z" fill="#F3CBCB"/>
<path d="M435.11 841.537H407.819C406.18 830.663 403.922 820.159 401.127 810.137H426.786C430.268 820.165 433.07 830.663 435.11 841.537Z" fill="#D6818E"/>
<path d="M455.902 841.537H435.116C433.075 830.663 430.28 820.159 426.792 810.137H446.341C450.342 820.165 453.564 830.663 455.902 841.537Z" fill="#EAA0A4"/>
<path d="M469.243 841.537H455.897C453.553 830.663 450.337 820.159 446.336 810.137H458.884C463.219 820.165 466.707 830.663 469.243 841.537Z" fill="#E69399"/>
<path d="M473.986 841.537H469.243C466.707 830.663 463.219 820.159 458.884 810.137H463.343C467.796 820.165 471.376 830.663 473.98 841.537" fill="#E58C91"/>
<path d="M112.494 875.197H112.426C112.766 868.225 113.502 861.359 114.603 854.609C115.326 850.194 116.204 845.835 117.237 841.537H117.299C114.695 852.411 113.057 863.662 112.494 875.197Z" fill="#D57887"/>
<path d="M118.277 875.197H112.494C113.063 863.662 114.696 852.411 117.299 841.537H122.933C120.41 852.411 118.827 863.662 118.277 875.197Z" fill="#F28293"/>
<path d="M132.722 875.197H118.275C118.826 863.662 120.409 852.411 122.932 841.537H136.996C134.676 852.411 133.223 863.662 132.716 875.197" fill="#DC646E"/>
<path d="M154.764 875.197H132.723C133.23 863.662 134.683 852.411 137.002 841.537H158.468C156.465 852.411 155.209 863.662 154.77 875.197" fill="#C35164"/>
<path d="M183.361 875.197H154.765C155.204 863.662 156.459 852.411 158.463 841.537H186.311C184.716 852.411 183.714 863.662 183.368 875.197" fill="#E0767E"/>
<path d="M217.455 875.197H183.36C183.707 863.662 184.709 852.411 186.304 841.537H219.502C218.389 852.411 217.69 863.662 217.449 875.197" fill="#E8999E"/>
<path d="M255.991 875.197H217.456C217.697 863.662 218.396 852.411 219.509 841.537H257.036C256.474 852.411 256.121 863.662 255.991 875.197Z" fill="#EFBABC"/>
<path d="M297.89 875.197H255.99C256.114 863.662 256.466 852.411 257.035 841.537H297.828C297.865 852.411 297.884 863.662 297.89 875.197Z" fill="#F6D9DB"/>
<path d="M339.27 875.197H297.89C297.884 863.662 297.865 852.411 297.828 841.537H338.12C338.738 852.411 339.128 863.662 339.264 875.197" fill="#FAECEB"/>
<path d="M377.28 875.197H339.27C339.134 863.662 338.744 852.411 338.126 841.537H375.14C376.302 852.411 377.032 863.662 377.28 875.197Z" fill="#F6D9DB"/>
<path d="M410.843 875.197H377.274C377.02 863.662 376.296 852.411 375.134 841.537H407.818C409.457 852.411 410.484 863.662 410.843 875.197Z" fill="#E58E9B"/>
<path d="M438.87 875.197H410.843C410.49 863.662 409.457 852.411 407.818 841.537H435.11C437.151 852.411 438.431 863.662 438.87 875.197Z" fill="#ECA8AC"/>
<path d="M460.219 875.197H438.87C438.431 863.662 437.151 852.411 435.11 841.537H455.896C458.24 852.411 459.706 863.662 460.219 875.197Z" fill="#B34E5E"/>
<path d="M473.924 875.197H460.219C459.706 863.662 458.24 852.411 455.896 841.537H469.242C471.778 852.411 473.367 863.662 473.924 875.197Z" fill="#E58C91"/>
<path d="M478.797 875.197H473.924C473.373 863.662 471.784 852.411 469.242 841.537H473.986C476.595 852.411 478.228 863.662 478.797 875.197Z" fill="#FFB7BF"/>
<path d="M114.021 909.697H113.953C112.797 901.398 112.203 892.919 112.203 884.311C112.203 881.255 112.277 878.217 112.426 875.197H112.494C112.345 878.217 112.271 881.255 112.271 884.311C112.271 892.926 112.865 901.404 114.021 909.697Z" fill="#DC646E"/>
<path d="M119.754 909.697H114.015C112.858 901.398 112.265 892.919 112.265 884.311C112.265 881.255 112.339 878.217 112.487 875.197H118.27C118.127 878.217 118.053 881.255 118.053 884.311C118.053 892.926 118.628 901.404 119.748 909.697" fill="#D05A6E"/>
<path d="M134.084 909.697H119.761C118.642 901.398 118.066 892.919 118.066 884.311C118.066 881.255 118.141 878.217 118.283 875.197H132.73C132.6 878.217 132.532 881.255 132.532 884.311C132.532 892.926 133.064 901.404 134.09 909.697" fill="#FFE2E5"/>
<path d="M155.94 909.697H134.078C133.051 901.398 132.52 892.919 132.52 884.311C132.52 881.255 132.588 878.217 132.717 875.197H154.759C154.647 878.217 154.586 881.255 154.586 884.311C154.586 892.926 155.043 901.404 155.934 909.697" fill="#DC646E"/>
<path d="M184.295 909.697H155.939C155.055 901.398 154.591 892.919 154.591 884.311C154.591 881.255 154.646 878.217 154.764 875.197H183.361C183.268 878.217 183.225 881.255 183.225 884.311C183.225 892.926 183.59 901.404 184.295 909.697Z" fill="#FFACB7"/>
<path d="M218.112 909.697H184.301C183.596 901.398 183.231 892.919 183.231 884.311C183.231 881.255 183.281 878.217 183.368 875.197H217.462C217.4 878.217 217.363 881.255 217.363 884.311C217.363 892.926 217.617 901.404 218.112 909.697Z" fill="#D76477"/>
<path d="M256.325 909.697H218.112C217.617 901.398 217.363 892.919 217.363 884.311C217.363 881.255 217.394 878.217 217.462 875.197H255.997C255.966 878.217 255.948 881.255 255.948 884.311C255.948 892.926 256.078 901.404 256.325 909.697Z" fill="#EBA9AC"/>
<path d="M297.871 909.697H256.325C256.077 901.398 255.947 892.919 255.947 884.311C255.947 881.255 255.96 878.217 255.997 875.197H297.896C297.896 878.217 297.896 881.255 297.896 884.311C297.896 892.926 297.89 901.404 297.878 909.697" fill="#F1BFC2"/>
<path d="M338.906 909.697H297.872C297.884 901.398 297.891 892.919 297.891 884.311C297.891 881.255 297.891 878.217 297.891 875.197H339.271C339.308 878.217 339.32 881.255 339.32 884.311C339.32 892.926 339.178 901.404 338.906 909.697Z" fill="#F4D0D2"/>
<path d="M376.599 909.697H338.905C339.184 901.398 339.32 892.919 339.32 884.311C339.32 881.255 339.301 878.217 339.27 875.197H377.28C377.348 878.217 377.379 881.255 377.379 884.311C377.379 892.926 377.113 901.404 376.599 909.697Z" fill="#F3CBCB"/>
<path d="M409.884 909.697H376.6C377.113 901.398 377.379 892.919 377.379 884.311C377.379 881.255 377.348 878.217 377.28 875.197H410.849C410.942 878.217 410.991 881.255 410.991 884.311C410.991 892.926 410.62 901.404 409.89 909.697" fill="#EEB7BA"/>
<path d="M437.683 909.697H409.884C410.614 901.398 410.985 892.919 410.985 884.311C410.985 881.255 410.941 878.217 410.842 875.197H438.87C438.981 878.217 439.043 881.255 439.043 884.311C439.043 892.926 438.58 901.404 437.677 909.697" fill="#EAA2A5"/>
<path d="M458.846 909.697H437.677C438.58 901.398 439.043 892.919 439.043 884.311C439.043 881.255 438.982 878.217 438.87 875.197H460.219C460.349 878.217 460.417 881.255 460.417 884.311C460.417 892.926 459.879 901.404 458.846 909.697Z" fill="#E48A8F"/>
<path d="M472.44 909.697H458.853C459.892 901.398 460.423 892.919 460.423 884.311C460.423 881.255 460.355 878.217 460.225 875.197H473.93C474.072 878.217 474.153 881.255 474.153 884.311C474.153 892.926 473.571 901.404 472.446 909.697" fill="#E2838A"/>
<path d="M479.021 884.311C479.021 892.926 478.421 901.404 477.27 909.697H472.44C473.566 901.398 474.147 892.919 474.147 884.311C474.147 881.255 474.073 878.217 473.925 875.197H478.798C478.946 878.217 479.021 881.255 479.021 884.311Z" fill="#E27C83"/>
<path d="M121.677 942.351H121.616C121.597 942.289 121.572 942.227 121.554 942.172C118.517 933.076 116.18 923.671 114.602 914.001C114.374 912.568 114.151 911.136 113.953 909.697H114.021C115.586 920.936 118.171 931.853 121.684 942.351" fill="#D57887"/>
<path d="M127.176 942.351H121.678C118.165 931.853 115.58 920.942 114.016 909.697H119.755C121.27 920.936 123.775 931.853 127.17 942.351" fill="#FA8297"/>
<path d="M140.892 942.351H127.169C123.768 931.853 121.263 920.942 119.754 909.697H134.077C135.469 920.936 137.769 931.853 140.892 942.351Z" fill="#DC646E"/>
<path d="M161.833 942.351H140.899C137.776 931.853 135.475 920.942 134.084 909.697H155.946C157.146 920.936 159.137 931.853 161.84 942.351" fill="#B64558"/>
<path d="M188.995 942.351H161.833C159.131 931.853 157.145 920.942 155.939 909.697H184.295C185.254 920.936 186.837 931.853 188.989 942.351" fill="#DE6E77"/>
<path d="M221.377 942.351H188.989C186.837 931.853 185.254 920.942 184.295 909.697H218.105C218.773 920.936 219.874 931.853 221.377 942.351Z" fill="#C5586C"/>
<path d="M257.982 942.351H221.383C219.88 931.853 218.779 920.942 218.111 909.697H256.325C256.665 920.936 257.222 931.853 257.982 942.351Z" fill="#E89B9F"/>
<path d="M297.778 942.351H257.982C257.221 931.853 256.664 920.942 256.324 909.697H297.871C297.853 920.936 297.816 931.853 297.778 942.351Z" fill="#DE95A0"/>
<path d="M337.081 942.351H297.779C297.823 931.853 297.854 920.942 297.872 909.697H338.906C338.535 920.936 337.916 931.853 337.081 942.351Z" fill="#EFB7BA"/>
<path d="M373.18 942.351H337.075C337.91 931.853 338.529 920.942 338.9 909.697H376.594C375.895 920.936 374.745 931.853 373.18 942.351Z" fill="#D17C8A"/>
<path d="M405.067 942.351H373.18C374.744 931.853 375.901 920.942 376.594 909.697H409.878C408.895 920.936 407.268 931.853 405.06 942.351" fill="#EBA4A8"/>
<path d="M431.684 942.351H405.066C407.274 931.853 408.901 920.942 409.884 909.697H437.683C436.459 920.936 434.436 931.853 431.69 942.351" fill="#D77788"/>
<path d="M451.963 942.351H431.685C434.43 931.853 436.459 920.942 437.677 909.697H458.847C457.443 920.936 455.117 931.853 451.963 942.351Z" fill="#E2838A"/>
<path d="M464.981 942.351H451.963C455.123 931.853 457.442 920.942 458.846 909.697H472.433C470.912 920.936 468.395 931.853 464.975 942.351" fill="#F78A9E"/>
<path d="M469.606 942.351H464.98C468.4 931.853 470.918 920.942 472.439 909.697H477.269C475.704 920.936 473.119 931.853 469.606 942.351Z" fill="#D26273"/>
<path d="M134.894 972.46H134.832C134.096 971.126 133.379 969.786 132.68 968.434C128.345 960.092 124.64 951.379 121.616 942.344H121.678C125.191 952.836 129.625 962.907 134.894 972.454" fill="#DC7284"/>
<path d="M139.971 972.46H134.894C129.631 962.907 125.19 952.842 121.678 942.351H127.176C130.577 952.842 134.875 962.913 139.971 972.46Z" fill="#B14959"/>
<path d="M152.648 972.46H139.97C134.868 962.907 130.576 952.842 127.175 942.351H140.898C144.021 952.842 147.967 962.913 152.655 972.46" fill="#F1748A"/>
<path d="M171.994 972.46H152.649C147.961 962.907 144.016 952.842 140.893 942.351H161.827C164.529 952.842 167.943 962.913 171.994 972.46Z" fill="#CD586C"/>
<path d="M197.097 972.46H172C167.949 962.907 164.536 952.842 161.833 942.351H188.995C191.147 952.842 193.868 962.913 197.097 972.46Z" fill="#DC646E"/>
<path d="M227.016 972.46H197.09C193.862 962.907 191.14 952.842 188.988 942.351H221.376C222.873 952.842 224.771 962.913 227.016 972.46Z" fill="#DE6E77"/>
<path d="M260.846 972.46H227.023C224.778 962.907 222.879 952.842 221.383 942.351H257.982C258.743 952.842 259.701 962.913 260.846 972.46Z" fill="#E28189"/>
<path d="M297.613 972.46H260.84C259.696 962.907 258.737 952.842 257.977 942.351H297.773C297.73 952.842 297.674 962.913 297.606 972.46" fill="#FFB3BE"/>
<path d="M333.926 972.46H297.611C297.679 962.907 297.735 952.842 297.778 942.351H337.08C336.245 952.842 335.188 962.913 333.932 972.46" fill="#E89A9F"/>
<path d="M367.292 972.46H333.934C335.189 962.907 336.247 952.842 337.081 942.351H373.186C371.621 952.842 369.642 962.913 367.292 972.46Z" fill="#E7989D"/>
<path d="M396.755 972.46H367.292C369.636 962.907 371.621 952.842 373.186 942.351H405.073C402.865 952.842 400.069 962.913 396.755 972.46Z" fill="#FAA1AF"/>
<path d="M421.35 972.46H396.755C400.07 962.907 402.859 952.842 405.073 942.351H431.691C428.945 952.842 425.475 962.913 421.357 972.46" fill="#D0687A"/>
<path d="M440.089 972.46H421.351C425.469 962.907 428.939 952.842 431.685 942.351H451.963C448.809 952.842 444.82 962.913 440.089 972.46Z" fill="#BE5062"/>
<path d="M452.118 972.46H440.089C444.826 962.907 448.809 952.842 451.963 942.351H464.981C461.561 952.842 457.244 962.913 452.118 972.46Z" fill="#FFC6CD"/>
<path d="M456.391 972.46H452.117C457.244 962.907 461.561 952.842 464.981 942.351H469.607C466.094 952.842 461.66 962.913 456.391 972.46Z" fill="#DC656E"/>
<path d="M153.083 999.464H153.034C151.166 997.167 149.354 994.814 147.598 992.424C142.928 986.07 138.661 979.401 134.833 972.46H134.895C140.158 982.013 146.256 991.047 153.083 999.464Z" fill="#D57887"/>
<path d="M157.584 999.464H153.082C146.254 991.047 140.156 982.013 134.894 972.46H139.971C145.073 982.013 150.973 991.047 157.584 999.464Z" fill="#EE7387"/>
<path d="M168.827 999.463H157.584C150.973 991.047 145.067 982.013 139.971 972.46H152.649C157.33 982.013 162.754 991.047 168.827 999.463Z" fill="#CD5C70"/>
<path d="M185.99 999.464H168.835C162.762 991.047 157.338 982.013 152.656 972.46H172.001C176.052 982.013 180.74 991.047 185.99 999.464Z" fill="#E97085"/>
<path d="M208.248 999.464H185.99C180.74 991.047 176.052 982.013 172.001 972.46H197.097C200.326 982.013 204.061 991.047 208.248 999.464Z" fill="#C55063"/>
<path d="M234.786 999.464H208.248C204.061 991.047 200.326 982.013 197.098 972.46H227.024C229.269 982.013 231.873 991.047 234.792 999.464" fill="#DC646E"/>
<path d="M264.779 999.463H234.784C231.871 991.047 229.268 982.013 227.017 972.46H260.839C261.977 982.013 263.294 991.047 264.773 999.463" fill="#DF727B"/>
<path d="M297.39 999.463H264.773C263.295 991.047 261.978 982.013 260.84 972.46H297.612C297.551 982.013 297.47 991.047 297.39 999.463Z" fill="#E27D83"/>
<path d="M329.591 999.464H297.389C297.469 991.047 297.549 982.013 297.611 972.46H333.926C332.671 982.013 331.217 991.047 329.591 999.464Z" fill="#D77989"/>
<path d="M359.178 999.463H329.592C331.218 991.047 332.672 982.013 333.927 972.46H367.286C364.936 982.013 362.221 991.047 359.178 999.463Z" fill="#B14959"/>
<path d="M385.307 999.464H359.178C362.22 991.047 364.942 982.013 367.286 972.46H396.748C393.433 982.013 389.599 991.047 385.307 999.464Z" fill="#FA90A2"/>
<path d="M407.12 999.464H385.308C389.606 991.047 393.44 982.013 396.749 972.46H421.344C417.225 982.013 412.457 991.047 407.114 999.464" fill="#D26779"/>
<path d="M423.738 999.463H407.12C412.463 991.047 417.232 982.013 421.35 972.46H440.089C435.358 982.013 429.879 991.047 423.744 999.463" fill="#DE6B75"/>
<path d="M434.405 999.463H423.737C429.872 991.047 435.358 982.013 440.083 972.46H452.111C446.985 982.013 441.048 991.047 434.399 999.463" fill="#DC646E"/>
<path d="M438.196 999.463H434.405C441.054 991.047 446.984 982.013 452.117 972.46H456.391C451.122 982.013 445.024 991.047 438.196 999.463Z" fill="#DC646E"/>
<path d="M175.667 1022.77H175.624C172.284 1019.88 169.056 1016.88 165.933 1013.76C161.387 1009.23 157.083 1004.45 153.032 999.463H153.082C159.909 1007.88 167.473 1015.68 175.667 1022.77Z" fill="#DC7284"/>
<path d="M179.459 1022.77H175.668C167.473 1015.68 159.91 1007.88 153.082 999.463H157.584C164.195 1007.88 171.518 1015.68 179.452 1022.77" fill="#FFAAB4"/>
<path d="M188.915 1022.77H179.453C171.518 1015.68 164.196 1007.88 157.585 999.463H168.828C174.901 1007.88 181.624 1015.68 188.915 1022.77Z" fill="#BE4A5F"/>
<path d="M203.355 1022.77H188.914C181.623 1015.68 174.9 1007.88 168.827 999.463H185.983C191.233 1007.88 197.053 1015.68 203.355 1022.77Z" fill="#FFA2B0"/>
<path d="M222.088 1022.77H203.355C197.054 1015.68 191.24 1007.88 185.983 999.463H208.241C212.428 1007.88 217.06 1015.68 222.082 1022.77" fill="#FF8A9B"/>
<path d="M244.426 1022.77H222.094C217.072 1015.68 212.434 1007.88 208.253 999.463H234.79C237.703 1007.88 240.931 1015.68 244.432 1022.77" fill="#D2596E"/>
<path d="M269.664 1022.77H244.426C240.925 1015.68 237.703 1007.88 234.784 999.463H264.779C266.257 1007.88 267.896 1015.68 269.664 1022.77Z" fill="#CA5266"/>
<path d="M297.11 1022.77H269.664C267.889 1015.68 266.256 1007.88 264.778 999.463H297.395C297.308 1007.88 297.216 1015.68 297.117 1022.77" fill="#E97085"/>
<path d="M324.211 1022.77H297.104C297.203 1015.68 297.296 1007.88 297.383 999.463H329.585C327.959 1007.88 326.153 1015.68 324.205 1022.77" fill="#FFCDD4"/>
<path d="M349.109 1022.77H324.211C326.165 1015.68 327.965 1007.88 329.591 999.463H359.178C356.135 1007.88 352.764 1015.68 349.109 1022.77Z" fill="#DE6B74"/>
<path d="M371.102 1022.77H349.116C352.771 1015.68 356.142 1007.88 359.184 999.463H385.314C381.015 1007.88 376.26 1015.68 371.108 1022.77" fill="#DD6873"/>
<path d="M389.457 1022.77H371.102C376.253 1015.68 381.015 1007.88 385.307 999.463H407.12C401.782 1007.88 395.864 1015.68 389.457 1022.77Z" fill="#DC646E"/>
<path d="M403.44 1022.77H389.457C395.87 1015.68 401.783 1007.88 407.12 999.463H423.737C417.596 1007.88 410.806 1015.68 403.44 1022.77Z" fill="#DC646E"/>
<path d="M412.421 1022.77H403.447C410.813 1015.68 417.603 1007.88 423.745 999.463H434.413C427.764 1007.88 420.405 1015.68 412.427 1022.77" fill="#DC646E"/>
<path d="M415.605 1022.77H412.414C420.392 1015.68 427.751 1007.88 434.4 999.463H438.191C431.363 1007.88 423.8 1015.68 415.605 1022.77Z" fill="#DC646E"/>
<path d="M202.057 1041.79H202.019C196.948 1038.79 192.038 1035.54 187.301 1032.07C183.281 1029.12 179.378 1026.02 175.618 1022.77H175.661C183.856 1029.86 192.687 1036.23 202.05 1041.79" fill="#DC646E"/>
<path d="M205.012 1041.79H202.056C192.687 1036.23 183.861 1029.86 175.667 1022.77H179.458C187.393 1029.86 195.946 1036.23 205.018 1041.79" fill="#FF9DAC"/>
<path d="M212.39 1041.79H205.012C195.94 1036.23 187.393 1029.86 179.452 1022.77H188.914C196.206 1029.86 204.06 1036.23 212.39 1041.79Z" fill="#DC646E"/>
<path d="M223.659 1041.79H212.397C204.067 1036.23 196.212 1029.86 188.921 1022.77H203.362C209.663 1029.86 216.454 1036.23 223.659 1041.79Z" fill="#E67487"/>
<path d="M238.266 1041.79H223.652C216.447 1036.23 209.656 1029.86 203.354 1022.77H222.087C227.109 1029.86 232.52 1036.23 238.266 1041.79Z" fill="#FC97A7"/>
<path d="M255.688 1041.79H238.266C232.521 1036.23 227.11 1029.86 222.088 1022.77H244.42C247.92 1029.86 251.687 1036.23 255.682 1041.79" fill="#CD596C"/>
<path d="M275.379 1041.79H255.688C251.692 1036.23 247.92 1029.86 244.426 1022.77H269.664C271.439 1029.86 273.35 1036.23 275.379 1041.79Z" fill="#EE7F91"/>
<path d="M296.784 1041.79H275.379C273.351 1036.23 271.44 1029.86 269.665 1022.77H297.112C297.006 1029.86 296.901 1036.23 296.784 1041.79Z" fill="#9E3F4D"/>
<path d="M317.922 1041.79H296.783C296.901 1036.23 297.006 1029.86 297.111 1022.77H324.217C322.263 1029.86 320.16 1036.23 317.928 1041.79" fill="#E16E81"/>
<path d="M337.347 1041.79H317.922C320.154 1036.23 322.257 1029.86 324.211 1022.77H349.11C345.455 1029.86 341.515 1036.23 337.341 1041.79" fill="#D05368"/>
<path d="M354.49 1041.79H337.341C341.515 1036.23 345.449 1029.86 349.11 1022.77H371.095C365.938 1029.86 360.384 1036.23 354.49 1041.79Z" fill="#BE4A69"/>
<path d="M368.813 1041.79H354.49C360.384 1036.23 365.938 1029.86 371.095 1022.77H389.451C383.038 1029.86 376.136 1036.23 368.807 1041.79" fill="#D0576C"/>
<path d="M379.723 1041.79H368.813C376.142 1036.23 383.044 1029.86 389.457 1022.77H403.44C396.074 1029.86 388.14 1036.23 379.717 1041.79" fill="#DC646E"/>
<path d="M386.723 1041.79H379.723C388.14 1036.23 396.08 1029.86 403.446 1022.77H412.42C404.442 1029.86 395.845 1036.23 386.723 1041.79Z" fill="#F78597"/>
<path d="M389.209 1041.79H386.717C395.839 1036.23 404.435 1029.86 412.413 1022.77H415.604C407.41 1029.86 398.579 1036.23 389.209 1041.79Z" fill="#FFA5B1"/>
<path d="M231.6 1055.93H231.576C224.618 1053.34 217.865 1050.35 211.34 1046.96C208.18 1045.33 205.075 1043.6 202.026 1041.79H202.063C211.408 1047.34 221.285 1052.09 231.606 1055.93" fill="#DC7284"/>
<path d="M233.621 1055.93H231.599C221.283 1052.09 211.4 1047.34 202.056 1041.79H205.012C214.06 1047.34 223.627 1052.09 233.621 1055.93Z" fill="#DC646E"/>
<path d="M238.674 1055.93H233.628C223.634 1052.09 214.066 1047.34 205.019 1041.79H212.397C220.708 1047.34 229.496 1052.09 238.674 1055.93Z" fill="#B64558"/>
<path d="M246.38 1055.93H238.674C229.496 1052.09 220.708 1047.34 212.396 1041.79H223.658C230.845 1047.34 238.445 1052.09 246.38 1055.93Z" fill="#F67D92"/>
<path d="M256.374 1055.93H246.38C238.439 1052.09 230.845 1047.34 223.658 1041.79H238.272C243.999 1047.34 250.06 1052.09 256.38 1055.93" fill="#853442"/>
<path d="M268.298 1055.93H256.375C250.048 1052.09 243.993 1047.34 238.267 1041.79H255.688C259.677 1047.34 263.895 1052.09 268.298 1055.93Z" fill="#C55568"/>
<path d="M281.767 1055.93H268.298C263.894 1052.09 259.676 1047.34 255.688 1041.79H275.379C277.401 1047.34 279.535 1052.09 281.773 1055.93" fill="#FFDADF"/>
<path d="M296.419 1055.93H281.768C279.535 1052.09 277.395 1047.34 275.373 1041.79H296.777C296.66 1047.34 296.542 1052.09 296.412 1055.93" fill="#F16167"/>
<path d="M310.884 1055.93H296.419C296.549 1052.09 296.666 1047.34 296.784 1041.79H317.922C315.696 1047.34 313.34 1052.09 310.884 1055.93Z" fill="#C55264"/>
<path d="M324.174 1055.93H310.884C313.345 1052.09 315.695 1047.34 317.922 1041.79H337.347C333.179 1047.34 328.775 1052.09 324.174 1055.93Z" fill="#CA5A6D"/>
<path d="M335.907 1055.93H324.169C328.77 1052.09 333.173 1047.34 337.342 1041.79H354.491C348.61 1047.34 342.394 1052.09 335.907 1055.93Z" fill="#E46F83"/>
<path d="M345.708 1055.93H335.912C342.4 1052.09 348.615 1047.34 354.496 1041.79H368.819C361.509 1047.34 353.779 1052.09 345.708 1055.93Z" fill="#D0586C"/>
<path d="M353.167 1055.93H345.702C353.773 1052.09 361.503 1047.34 368.813 1041.79H379.723C371.324 1047.34 362.443 1052.09 353.173 1055.93" fill="#F17F91"/>
<path d="M357.96 1055.93H353.167C362.444 1052.09 371.318 1047.34 379.717 1041.79H386.717C377.62 1047.34 368.003 1052.09 357.954 1055.93" fill="#C04C60"/>
<path d="M359.66 1055.93C359.351 1055.93 358.949 1055.93 358.64 1055.93H357.953C368.003 1052.09 377.62 1047.34 386.717 1041.79H389.209C379.865 1047.34 369.982 1052.09 359.66 1055.93Z" fill="#FFDEE3"/>
<path d="M263.863 1064.67H263.851C254.877 1063.1 246.132 1060.89 237.653 1058.07C235.613 1057.39 233.584 1056.68 231.574 1055.93H231.599C241.945 1059.78 252.731 1062.73 263.863 1064.67Z" fill="#D57887"/>
<path d="M264.865 1064.67H263.863C252.731 1062.73 241.945 1059.78 231.599 1055.93H233.621C243.64 1059.78 254.085 1062.73 264.865 1064.67Z" fill="#C35164"/>
<path d="M267.37 1064.67H264.866C254.086 1062.73 243.641 1059.78 233.622 1055.93H238.669C247.871 1059.78 257.469 1062.73 267.364 1064.67" fill="#C35164"/>
<path d="M271.193 1064.67H267.371C257.469 1062.73 247.871 1059.78 238.675 1055.93H246.381C254.334 1059.78 262.633 1062.73 271.193 1064.67Z" fill="#C35164"/>
<path d="M276.153 1064.67H271.193C262.634 1062.73 254.334 1059.78 246.381 1055.93H256.375C262.72 1059.78 269.331 1062.73 276.153 1064.67Z" fill="#AE4355"/>
<path d="M282.065 1064.67H276.153C269.331 1062.73 262.72 1059.78 256.375 1055.93H268.299C272.714 1059.78 277.315 1062.73 282.065 1064.67Z" fill="#C55568"/>
<path d="M288.75 1064.67H282.064C277.315 1062.73 272.714 1059.78 268.298 1055.93H281.768C284.006 1059.78 286.344 1062.73 288.75 1064.67Z" fill="#C04E60"/>
<path d="M296.016 1064.67H288.75C286.338 1062.73 284.006 1059.78 281.768 1055.93H296.418C296.289 1059.78 296.159 1062.73 296.016 1064.67Z" fill="#CA5C6F"/>
<path d="M303.197 1064.67H296.017C296.153 1062.73 296.289 1059.78 296.419 1055.93H310.884C308.416 1059.78 305.85 1062.73 303.197 1064.67Z" fill="#A94454"/>
<path d="M309.789 1064.67H303.196C305.849 1062.73 308.416 1059.78 310.884 1055.93H324.174C319.56 1059.78 314.749 1062.73 309.789 1064.67Z" fill="#AE4E5F"/>
<path d="M315.608 1064.67H309.782C314.748 1062.73 319.554 1059.78 324.167 1055.93H335.905C329.393 1059.78 322.609 1062.73 315.608 1064.67Z" fill="#813A45"/>
<path d="M320.469 1064.67H315.608C322.609 1062.73 329.4 1059.78 335.906 1055.93H345.702C337.613 1059.78 329.171 1062.73 320.469 1064.67Z" fill="#CD5F71"/>
<path d="M324.174 1064.67H320.47C329.177 1062.73 337.613 1059.78 345.702 1055.93H353.167C343.872 1059.78 334.174 1062.73 324.168 1064.67" fill="#C55566"/>
<path d="M326.549 1064.67H324.174C334.18 1062.73 343.871 1059.78 353.173 1055.93H357.966C347.897 1059.78 337.39 1062.73 326.555 1064.67" fill="#AE4759"/>
<path d="M327.396 1064.67H326.549C337.384 1062.73 347.891 1059.78 357.96 1055.93C358.423 1055.93 359.048 1055.93 359.512 1055.93H359.66C349.314 1059.78 338.522 1062.73 327.39 1064.67" fill="#DC646E"/>
<path d="M295.626 1067.41C286.683 1067.04 274.766 1066.09 265.879 1065.01C265.205 1064.9 264.525 1064.79 263.851 1064.67H263.863C274.179 1066.48 284.791 1067.41 295.626 1067.41" fill="#DC7284"/>
<path d="M295.626 1067.41C284.791 1067.41 274.179 1066.47 263.863 1064.67H264.865C274.859 1066.47 285.132 1067.41 295.626 1067.41Z" fill="#DC646E"/>
<path d="M295.627 1067.41C285.138 1067.41 274.859 1066.47 264.865 1064.67H267.37C276.548 1066.47 285.985 1067.41 295.627 1067.41Z" fill="#DC646E"/>
<path d="M295.627 1067.41C285.991 1067.41 276.548 1066.47 267.37 1064.67H271.192C279.127 1066.47 287.29 1067.41 295.621 1067.41" fill="#DC646E"/>
<path d="M295.627 1067.41C287.296 1067.41 279.133 1066.47 271.198 1064.67H276.158C282.485 1066.47 288.991 1067.41 295.633 1067.41" fill="#DC646E"/>
<path d="M295.626 1067.41C288.984 1067.41 282.478 1066.47 276.151 1064.67H282.064C286.467 1066.47 291 1067.41 295.62 1067.41" fill="#DC646E"/>
<path d="M295.627 1067.41C291.001 1067.41 286.474 1066.47 282.07 1064.67H288.756C290.988 1066.47 293.283 1067.41 295.627 1067.41Z" fill="#DC646E"/>
<path d="M295.627 1067.41C293.283 1067.41 290.988 1066.47 288.756 1064.67H296.023C295.893 1066.47 295.763 1067.41 295.627 1067.41Z" fill="#DC646E"/>
<path d="M295.627 1067.41C295.763 1067.41 295.893 1066.47 296.023 1064.67H303.203C300.741 1066.47 298.212 1067.41 295.633 1067.41" fill="#DC646E"/>
<path d="M295.627 1067.41C298.206 1067.41 300.735 1066.47 303.197 1064.67H309.789C301.014 1067.29 300.847 1067.34 295.627 1067.41Z" fill="#DC646E"/>
<path d="M295.627 1067.41C303.877 1066.78 304.304 1066.14 309.789 1064.67H315.615C309.121 1066.47 302.442 1067.41 295.633 1067.41" fill="#C35668"/>
<path d="M295.627 1067.41C302.443 1067.41 309.122 1066.47 315.609 1064.67H320.47C312.399 1066.47 304.1 1067.41 295.621 1067.41" fill="#DC646E"/>
<path d="M295.627 1067.41C304.1 1067.41 312.399 1066.47 320.476 1064.67H324.18C314.91 1066.47 305.367 1067.41 295.633 1067.41" fill="#DC646E"/>
<path d="M295.627 1067.41C305.361 1067.41 314.904 1066.47 324.174 1064.67H326.549C307.748 1067.24 307.012 1067.34 295.627 1067.41Z" fill="#DC646E"/>
<path d="M295.627 1067.41C314.755 1066.61 315.751 1065.76 326.549 1064.67H327.396C317.075 1066.47 306.462 1067.41 295.627 1067.41Z" fill="#C55368"/>
<path style="mix-blend-mode:overlay" d="M425.275 1013.76C496.887 942.253 496.887 826.323 425.275 754.819C353.663 683.316 237.557 683.316 165.945 754.819C94.3324 826.323 94.3324 942.253 165.945 1013.76C237.557 1085.26 353.663 1085.26 425.275 1013.76Z" fill="url(#paint1_radial_2307_14852)"/>
<path style="mix-blend-mode:overlay" d="M423.636 1012.12C494.342 941.52 494.342 827.056 423.636 756.456C352.929 685.857 238.291 685.857 167.585 756.456C96.8785 827.056 96.8785 941.52 167.585 1012.12C238.291 1082.72 352.929 1082.72 423.636 1012.12Z" fill="url(#paint2_linear_2307_14852)"/>
<path style="mix-blend-mode:screen" d="M412.631 817.263C419.52 787.437 453.299 769.832 488.013 777.971C522.8 786.128 545.293 816.855 538.416 846.711C531.464 876.512 497.673 894.08 463.003 885.948C428.265 877.846 405.704 847.045 412.631 817.263Z" fill="url(#paint3_radial_2307_14852)"/>
<path style="mix-blend-mode:screen" d="M282.127 660.67C285.157 657.224 381.752 738.475 497.846 842.247C613.946 945.926 599.982 941.739 652.518 987.472C711.283 1038.62 602.851 958.467 486.807 854.764C370.682 751.011 279.029 664.153 282.127 660.67Z" fill="url(#paint4_radial_2307_14852)"/>
<path style="mix-blend-mode:screen" d="M460.783 706.655C462.811 706.415 471.055 762.336 479.212 831.527C487.308 900.725 492.23 957.06 490.202 957.263C488.149 957.554 479.954 901.632 471.822 832.385C463.652 763.219 458.711 706.921 460.783 706.649V706.655Z" fill="url(#paint5_radial_2307_14852)"/>
<path style="mix-blend-mode:screen" d="M350.781 846.983C350.534 844.952 406.2 836.566 475.051 828.236C543.952 819.973 600.038 814.935 600.261 816.954C600.533 819.016 544.873 827.353 475.935 835.664C407.096 843.994 351.047 849.07 350.781 846.983Z" fill="url(#paint6_radial_2307_14852)"/>
<path style="mix-blend-mode:screen" d="M421.301 785.165C429.613 775.384 460.665 788.475 490.616 814.336C520.555 840.16 538.118 869.04 529.732 878.76C521.414 888.523 490.393 875.487 460.442 849.608C430.509 823.746 412.915 794.897 421.307 785.165H421.301Z" fill="url(#paint7_radial_2307_14852)"/>
<path style="mix-blend-mode:screen" d="M517.259 773.704C527.674 781.163 517.358 813.354 494.303 845.563C471.278 877.729 444.147 897.779 433.763 890.221C423.367 882.724 433.615 850.577 456.695 818.399C479.782 786.202 506.875 766.14 517.253 773.704H517.259Z" fill="url(#paint8_radial_2307_14852)"/>
<path style="mix-blend-mode:screen" d="M471.766 800.115C477.425 799.448 483.72 813.175 485.786 830.768C487.79 848.342 484.877 863.168 479.249 863.798C473.584 864.489 467.313 850.768 465.235 833.176C463.145 815.577 466.101 800.794 471.772 800.108L471.766 800.115Z" fill="url(#paint9_radial_2307_14852)"/>
<path style="mix-blend-mode:screen" d="M443.658 834.164C443.269 828.477 457.208 822.802 474.822 821.61C492.423 820.424 506.987 824.074 507.376 829.755C507.785 835.479 493.845 841.098 476.244 842.315C458.637 843.562 444.067 839.913 443.658 834.17V834.164Z" fill="url(#paint10_radial_2307_14852)"/>
<path style="mix-blend-mode:screen" d="M357.181 930.235C361.275 912.507 381.349 902.046 401.981 906.887C422.655 911.735 436.02 929.994 431.932 947.741C427.801 965.451 407.72 975.893 387.12 971.058C366.476 966.248 353.068 947.939 357.187 930.241L357.181 930.235Z" fill="url(#paint11_radial_2307_14852)"/>
<path style="mix-blend-mode:screen" d="M295.684 1056.5C293.593 1054.72 340.44 996.073 400.349 925.517C460.22 854.949 457.913 863.347 484.302 831.41C513.808 795.724 467.79 861.427 407.894 931.952C347.998 1002.53 297.768 1058.3 295.684 1056.5Z" fill="url(#paint12_radial_2307_14852)"/>
<path style="mix-blend-mode:screen" d="M279.622 837.177C281.422 835.127 338.826 883.416 407.819 945.086C476.813 1006.7 468.513 1004.21 499.738 1031.39C534.662 1061.78 470.226 1014.15 401.258 952.521C332.252 890.863 277.785 839.246 279.622 837.177Z" fill="url(#paint13_radial_2307_14852)"/>
<path style="mix-blend-mode:screen" d="M385.797 864.502C387.003 864.36 391.901 897.594 396.749 938.707C401.561 979.827 404.486 1013.31 403.28 1013.43C402.062 1013.6 397.189 980.37 392.359 939.22C387.504 898.113 384.566 864.662 385.797 864.496V864.502Z" fill="url(#paint14_radial_2307_14852)"/>
<path style="mix-blend-mode:screen" d="M320.421 947.896C320.273 946.685 353.353 941.708 394.276 936.756C435.223 931.847 468.551 928.852 468.687 930.05C468.848 931.273 435.767 936.231 394.801 941.171C353.892 946.124 320.582 949.137 320.421 947.896Z" fill="url(#paint15_radial_2307_14852)"/>
<path style="mix-blend-mode:screen" d="M362.333 911.16C367.274 905.35 385.723 913.13 403.521 928.5C421.314 943.845 431.753 961.011 426.769 966.785C421.827 972.583 403.391 964.84 385.593 949.458C367.806 934.088 357.348 916.946 362.333 911.16Z" fill="url(#paint16_radial_2307_14852)"/>
<path style="mix-blend-mode:screen" d="M419.36 904.349C425.551 908.783 419.416 927.913 405.717 947.056C392.037 966.174 375.908 978.086 369.742 973.596C363.564 969.144 369.656 950.039 383.373 930.915C397.096 911.784 413.194 899.854 419.366 904.349H419.36Z" fill="url(#paint17_radial_2307_14852)"/>
<path style="mix-blend-mode:screen" d="M392.321 920.046C395.685 919.651 399.42 927.809 400.651 938.263C401.838 948.711 400.113 957.517 396.767 957.893C393.403 958.301 389.674 950.15 388.437 939.695C387.194 929.241 388.95 920.454 392.321 920.046Z" fill="url(#paint18_radial_2307_14852)"/>
<path style="mix-blend-mode:screen" d="M375.617 940.276C375.388 936.898 383.669 933.526 394.139 932.816C404.597 932.112 413.255 934.28 413.484 937.657C413.732 941.06 405.438 944.401 394.987 945.123C384.523 945.864 375.864 943.697 375.623 940.282L375.617 940.276Z" fill="url(#paint19_radial_2307_14852)"/>
<path style="mix-blend-mode:screen" d="M402.587 1007.25C365.047 1011.7 331.008 984.742 326.562 947.037C322.115 909.32 348.956 875.147 386.495 870.689C424.047 866.237 458.098 893.185 462.539 930.902C466.985 968.607 440.145 1002.79 402.581 1007.25H402.587Z" fill="url(#paint20_radial_2307_14852)"/>
<path style="mix-blend-mode:screen" d="M77.6017 861.482C81.6957 843.754 101.77 833.293 122.402 838.134C143.076 842.982 156.441 861.241 152.353 878.988C148.222 896.698 128.141 907.14 107.54 902.305C86.8968 897.495 73.489 879.186 77.6078 861.488L77.6017 861.482Z" fill="url(#paint21_radial_2307_14852)"/>
<path style="mix-blend-mode:screen" d="M16.1044 987.743C14.0141 985.971 60.8611 927.321 120.77 856.765C180.641 786.196 178.34 794.594 204.723 762.657C234.229 726.971 188.211 792.674 128.315 863.199C68.4185 933.78 18.1948 989.546 16.1044 987.743Z" fill="url(#paint22_radial_2307_14852)"/>
<path style="mix-blend-mode:screen" d="M0.0431706 768.424C1.84284 766.374 59.2467 814.663 128.24 876.333C197.234 937.948 188.934 935.459 220.159 962.636C255.083 993.029 190.647 945.401 121.678 883.768C52.6726 822.11 -1.7936 770.493 0.0431706 768.424Z" fill="url(#paint23_radial_2307_14852)"/>
<path style="mix-blend-mode:screen" d="M106.218 795.749C107.424 795.607 112.322 828.841 117.17 869.954C121.982 911.074 124.907 944.555 123.701 944.679C122.483 944.852 117.609 911.617 112.779 870.467C107.925 829.36 104.987 795.91 106.218 795.749Z" fill="url(#paint24_radial_2307_14852)"/>
<path style="mix-blend-mode:screen" d="M40.8481 879.143C40.7059 877.933 73.7802 872.956 114.702 868.003C155.65 863.094 188.977 860.099 189.113 861.303C189.274 862.526 156.194 867.484 115.228 872.425C74.3182 877.377 41.0089 880.39 40.8481 879.149V879.143Z" fill="url(#paint25_radial_2307_14852)"/>
<path style="mix-blend-mode:screen" d="M82.754 842.408C87.6953 836.597 106.143 844.371 123.942 859.747C141.735 875.092 152.174 892.259 147.189 898.032C142.248 903.831 123.812 896.087 106.014 880.705C88.2272 865.336 77.7693 848.194 82.754 842.408Z" fill="url(#paint26_radial_2307_14852)"/>
<path style="mix-blend-mode:screen" d="M139.781 835.597C145.965 840.03 139.836 859.161 126.138 878.303C112.458 897.421 96.329 909.333 90.1632 904.843C83.9849 900.391 90.0766 881.286 103.794 862.162C117.517 843.031 133.615 831.101 139.787 835.597H139.781Z" fill="url(#paint27_radial_2307_14852)"/>
<path style="mix-blend-mode:screen" d="M112.748 851.294C116.113 850.898 119.848 859.056 121.079 869.51C122.266 879.958 120.541 888.764 117.195 889.14C113.831 889.548 110.101 881.397 108.865 870.943C107.621 860.482 109.378 851.701 112.748 851.294Z" fill="url(#paint28_radial_2307_14852)"/>
<path style="mix-blend-mode:screen" d="M96.0378 871.529C95.809 868.151 104.09 864.78 114.56 864.07C125.018 863.366 133.676 865.533 133.905 868.911C134.152 872.313 125.859 875.648 115.407 876.37C104.943 877.111 96.2852 874.944 96.044 871.529H96.0378Z" fill="url(#paint29_radial_2307_14852)"/>
</g>
<defs>
<radialGradient id="paint0_radial_2307_14852" cx="0" cy="0" r="1" gradientUnits="userSpaceOnUse" gradientTransform="translate(295.61 884.289) scale(234.946 234.59)">
<stop offset="0.79" stop-color="#FF8DFF" stop-opacity="0.9216"/>
<stop offset="0.8" stop-color="#FF8DFF" stop-opacity="0.6084"/>
<stop offset="0.81" stop-color="#FF8DFF" stop-opacity="0.3721"/>
<stop offset="0.82" stop-color="#FF8DFF" stop-opacity="0.2209"/>
<stop offset="0.83" stop-color="#FF8DFF" stop-opacity="0.1156"/>
<stop offset="0.84" stop-color="#FF8DFF" stop-opacity="0.0529"/>
<stop offset="0.86" stop-color="#FF8DFF" stop-opacity="0.0225"/>
<stop offset="0.87" stop-color="#FF8DFF" stop-opacity="0.01"/>
<stop offset="0.89" stop-color="#FF8DFF" stop-opacity="0.01"/>
<stop offset="0.92" stop-color="#FF8DFF" stop-opacity="0"/>
<stop offset="1" stop-color="#FF8DFF" stop-opacity="0"/>
</radialGradient>
<radialGradient id="paint1_radial_2307_14852" cx="0" cy="0" r="1" gradientUnits="userSpaceOnUse" gradientTransform="translate(295.61 884.289) scale(183.374 183.096)">
<stop stop-color="#FF8DFF" stop-opacity="0"/>
<stop offset="0.37" stop-color="#FF8DFF" stop-opacity="0"/>
<stop offset="0.51" stop-color="#FF8DFF" stop-opacity="0.01"/>
<stop offset="0.6" stop-color="#FF8DFF" stop-opacity="0.01"/>
<stop offset="0.68" stop-color="#FF8DFF" stop-opacity="0.0225"/>
<stop offset="0.75" stop-color="#FF8DFF" stop-opacity="0.0529"/>
<stop offset="0.8" stop-color="#FF8DFF" stop-opacity="0.1156"/>
<stop offset="0.86" stop-color="#FF8DFF" stop-opacity="0.2209"/>
<stop offset="0.91" stop-color="#FF8DFF" stop-opacity="0.3721"/>
<stop offset="0.95" stop-color="#FF8DFF" stop-opacity="0.6084"/>
<stop offset="0.99" stop-color="#FF8DFF" stop-opacity="0.9216"/>
<stop offset="1" stop-color="#FF8DFF"/>
</radialGradient>
<linearGradient id="paint2_linear_2307_14852" x1="295.61" y1="1065.08" x2="295.61" y2="703.508" gradientUnits="userSpaceOnUse">
<stop stop-color="#FF00BF"/>
<stop offset="1" stop-color="#FFFC66"/>
</linearGradient>
<radialGradient id="paint3_radial_2307_14852" cx="0" cy="0" r="1" gradientUnits="userSpaceOnUse" gradientTransform="translate(477.849 840.158) rotate(-166.789) scale(64.0534 54.8283)">
<stop stop-color="#B351B0"/>
<stop offset="0.04" stop-color="#A44AA1"/>
<stop offset="0.19" stop-color="#723370"/>
<stop offset="0.34" stop-color="#492148"/>
<stop offset="0.48" stop-color="#291228"/>
<stop offset="0.62" stop-color="#120812"/>
<stop offset="0.74" stop-color="#040204"/>
<stop offset="0.86"/>
</radialGradient>
<radialGradient id="paint4_radial_2307_14852" cx="0" cy="0" r="1" gradientUnits="userSpaceOnUse" gradientTransform="translate(462.315 850.324) rotate(-138.223) scale(268.886 7.36549)">
<stop stop-color="#B351B0"/>
<stop offset="0.04" stop-color="#A44AA1"/>
<stop offset="0.19" stop-color="#723370"/>
<stop offset="0.34" stop-color="#492148"/>
<stop offset="0.48" stop-color="#291228"/>
<stop offset="0.62" stop-color="#120812"/>
<stop offset="0.74" stop-color="#040204"/>
<stop offset="0.86"/>
</radialGradient>
<radialGradient id="paint5_radial_2307_14852" cx="0" cy="0" r="1" gradientUnits="userSpaceOnUse" gradientTransform="translate(434.859 831.678) rotate(-96.7101) scale(126.62 3.42721)">
<stop stop-color="#B351B0"/>
<stop offset="0.04" stop-color="#A44AA1"/>
<stop offset="0.19" stop-color="#723370"/>
<stop offset="0.34" stop-color="#492148"/>
<stop offset="0.48" stop-color="#291228"/>
<stop offset="0.62" stop-color="#120812"/>
<stop offset="0.74" stop-color="#040204"/>
<stop offset="0.86"/>
</radialGradient>
<radialGradient id="paint6_radial_2307_14852" cx="0" cy="0" r="1" gradientUnits="userSpaceOnUse" gradientTransform="translate(477.045 835.576) rotate(173.13) scale(125.572 3.43525)">
<stop stop-color="#B351B0"/>
<stop offset="0.04" stop-color="#A44AA1"/>
<stop offset="0.19" stop-color="#723370"/>
<stop offset="0.34" stop-color="#492148"/>
<stop offset="0.48" stop-color="#291228"/>
<stop offset="0.62" stop-color="#120812"/>
<stop offset="0.74" stop-color="#040204"/>
<stop offset="0.86"/>
</radialGradient>
<radialGradient id="paint7_radial_2307_14852" cx="0" cy="0" r="1" gradientUnits="userSpaceOnUse" gradientTransform="translate(476.196 845.057) rotate(-139.183) scale(70.8857 22.6181)">
<stop stop-color="#B351B0"/>
<stop offset="0.04" stop-color="#A44AA1"/>
<stop offset="0.19" stop-color="#723370"/>
<stop offset="0.34" stop-color="#492148"/>
<stop offset="0.48" stop-color="#291228"/>
<stop offset="0.62" stop-color="#120812"/>
<stop offset="0.74" stop-color="#040204"/>
<stop offset="0.86"/>
</radialGradient>
<radialGradient id="paint8_radial_2307_14852" cx="0" cy="0" r="1" gradientUnits="userSpaceOnUse" gradientTransform="translate(488.229 821.243) rotate(-54.3688) scale(72.3801 22.6298)">
<stop stop-color="#B351B0"/>
<stop offset="0.04" stop-color="#A44AA1"/>
<stop offset="0.19" stop-color="#723370"/>
<stop offset="0.34" stop-color="#492148"/>
<stop offset="0.48" stop-color="#291228"/>
<stop offset="0.62" stop-color="#120812"/>
<stop offset="0.74" stop-color="#040204"/>
<stop offset="0.86"/>
</radialGradient>
<radialGradient id="paint9_radial_2307_14852" cx="0" cy="0" r="1" gradientUnits="userSpaceOnUse" gradientTransform="translate(470.528 824.373) rotate(-96.7001) scale(32.3322 10.1187)">
<stop stop-color="#B351B0"/>
<stop offset="0.04" stop-color="#A44AA1"/>
<stop offset="0.19" stop-color="#723370"/>
<stop offset="0.34" stop-color="#492148"/>
<stop offset="0.48" stop-color="#291228"/>
<stop offset="0.62" stop-color="#120812"/>
<stop offset="0.74" stop-color="#040204"/>
<stop offset="0.86"/>
</radialGradient>
<radialGradient id="paint10_radial_2307_14852" cx="0" cy="0" r="1" gradientUnits="userSpaceOnUse" gradientTransform="translate(474.369 827.35) rotate(176.036) scale(31.6971 10.1009)">
<stop stop-color="#B351B0"/>
<stop offset="0.04" stop-color="#A44AA1"/>
<stop offset="0.19" stop-color="#723370"/>
<stop offset="0.34" stop-color="#492148"/>
<stop offset="0.48" stop-color="#291228"/>
<stop offset="0.62" stop-color="#120812"/>
<stop offset="0.74" stop-color="#040204"/>
<stop offset="0.86"/>
</radialGradient>
<radialGradient id="paint11_radial_2307_14852" cx="0" cy="0" r="1" gradientUnits="userSpaceOnUse" gradientTransform="translate(397.198 945.862) rotate(-166.789) scale(38.0653 32.5831)">
<stop stop-color="#B351B0"/>
<stop offset="0.04" stop-color="#A44AA1"/>
<stop offset="0.19" stop-color="#723370"/>
<stop offset="0.34" stop-color="#492148"/>
<stop offset="0.48" stop-color="#291228"/>
<stop offset="0.62" stop-color="#120812"/>
<stop offset="0.74" stop-color="#040204"/>
<stop offset="0.86"/>
</radialGradient>
<radialGradient id="paint12_radial_2307_14852" cx="0" cy="0" r="1" gradientUnits="userSpaceOnUse" gradientTransform="translate(372.118 914.271) rotate(130.313) scale(159.663 4.37542)">
<stop stop-color="#B351B0"/>
<stop offset="0.04" stop-color="#A44AA1"/>
<stop offset="0.19" stop-color="#723370"/>
<stop offset="0.34" stop-color="#492148"/>
<stop offset="0.48" stop-color="#291228"/>
<stop offset="0.62" stop-color="#120812"/>
<stop offset="0.74" stop-color="#040204"/>
<stop offset="0.86"/>
</radialGradient>
<radialGradient id="paint13_radial_2307_14852" cx="0" cy="0" r="1" gradientUnits="userSpaceOnUse" gradientTransform="translate(388.14 948.405) rotate(-138.223) scale(159.805 4.37747)">
<stop stop-color="#B351B0"/>
<stop offset="0.04" stop-color="#A44AA1"/>
<stop offset="0.19" stop-color="#723370"/>
<stop offset="0.34" stop-color="#492148"/>
<stop offset="0.48" stop-color="#291228"/>
<stop offset="0.62" stop-color="#120812"/>
<stop offset="0.74" stop-color="#040204"/>
<stop offset="0.86"/>
</radialGradient>
<radialGradient id="paint14_radial_2307_14852" cx="0" cy="0" r="1" gradientUnits="userSpaceOnUse" gradientTransform="translate(361.38 938.117) rotate(-96.7101) scale(75.2526 2.03686)">
<stop stop-color="#B351B0"/>
<stop offset="0.04" stop-color="#A44AA1"/>
<stop offset="0.19" stop-color="#723370"/>
<stop offset="0.34" stop-color="#492148"/>
<stop offset="0.48" stop-color="#291228"/>
<stop offset="0.62" stop-color="#120812"/>
<stop offset="0.74" stop-color="#040204"/>
<stop offset="0.86"/>
</radialGradient>
<radialGradient id="paint15_radial_2307_14852" cx="0" cy="0" r="1" gradientUnits="userSpaceOnUse" gradientTransform="translate(395.34 934.831) rotate(173.13) scale(74.6207 2.04139)">
<stop stop-color="#B351B0"/>
<stop offset="0.04" stop-color="#A44AA1"/>
<stop offset="0.19" stop-color="#723370"/>
<stop offset="0.34" stop-color="#492148"/>
<stop offset="0.48" stop-color="#291228"/>
<stop offset="0.62" stop-color="#120812"/>
<stop offset="0.74" stop-color="#040204"/>
<stop offset="0.86"/>
</radialGradient>
<radialGradient id="paint16_radial_2307_14852" cx="0" cy="0" r="1" gradientUnits="userSpaceOnUse" gradientTransform="translate(396.883 949.009) rotate(-139.183) scale(42.1253 13.4413)">
<stop stop-color="#B351B0"/>
<stop offset="0.04" stop-color="#A44AA1"/>
<stop offset="0.19" stop-color="#723370"/>
<stop offset="0.34" stop-color="#492148"/>
<stop offset="0.48" stop-color="#291228"/>
<stop offset="0.62" stop-color="#120812"/>
<stop offset="0.74" stop-color="#040204"/>
<stop offset="0.86"/>
</radialGradient>
<radialGradient id="paint17_radial_2307_14852" cx="0" cy="0" r="1" gradientUnits="userSpaceOnUse" gradientTransform="translate(406.573 929.34) rotate(-54.3688) scale(43.0152 13.4488)">
<stop stop-color="#B351B0"/>
<stop offset="0.04" stop-color="#A44AA1"/>
<stop offset="0.19" stop-color="#723370"/>
<stop offset="0.34" stop-color="#492148"/>
<stop offset="0.48" stop-color="#291228"/>
<stop offset="0.62" stop-color="#120812"/>
<stop offset="0.74" stop-color="#040204"/>
<stop offset="0.86"/>
</radialGradient>
<radialGradient id="paint18_radial_2307_14852" cx="0" cy="0" r="1" gradientUnits="userSpaceOnUse" gradientTransform="translate(391.604 931.802) rotate(-96.7001) scale(19.2161 6.01392)">
<stop stop-color="#B351B0"/>
<stop offset="0.04" stop-color="#A44AA1"/>
<stop offset="0.19" stop-color="#723370"/>
<stop offset="0.34" stop-color="#492148"/>
<stop offset="0.48" stop-color="#291228"/>
<stop offset="0.62" stop-color="#120812"/>
<stop offset="0.74" stop-color="#040204"/>
<stop offset="0.86"/>
</radialGradient>
<radialGradient id="paint19_radial_2307_14852" cx="0" cy="0" r="1" gradientUnits="userSpaceOnUse" gradientTransform="translate(393.94 931.645) rotate(176.036) scale(18.8352 6.00218)">
<stop stop-color="#B351B0"/>
<stop offset="0.04" stop-color="#A44AA1"/>
<stop offset="0.19" stop-color="#723370"/>
<stop offset="0.34" stop-color="#492148"/>
<stop offset="0.48" stop-color="#291228"/>
<stop offset="0.62" stop-color="#120812"/>
<stop offset="0.74" stop-color="#040204"/>
<stop offset="0.86"/>
</radialGradient>
<radialGradient id="paint20_radial_2307_14852" cx="0" cy="0" r="1" gradientUnits="userSpaceOnUse" gradientTransform="translate(396.297 939.192) rotate(83.2799) scale(68.823 68.9247)">
<stop stop-color="#B351B0"/>
<stop offset="0.04" stop-color="#A44AA1"/>
<stop offset="0.19" stop-color="#723370"/>
<stop offset="0.34" stop-color="#492148"/>
<stop offset="0.48" stop-color="#291228"/>
<stop offset="0.62" stop-color="#120812"/>
<stop offset="0.74" stop-color="#040204"/>
<stop offset="0.86"/>
</radialGradient>
<radialGradient id="paint21_radial_2307_14852" cx="0" cy="0" r="1" gradientUnits="userSpaceOnUse" gradientTransform="translate(119.9 877.675) rotate(-166.789) scale(38.0653 32.5831)">
<stop stop-color="#B351B0"/>
<stop offset="0.04" stop-color="#A44AA1"/>
<stop offset="0.19" stop-color="#723370"/>
<stop offset="0.34" stop-color="#492148"/>
<stop offset="0.48" stop-color="#291228"/>
<stop offset="0.62" stop-color="#120812"/>
<stop offset="0.74" stop-color="#040204"/>
<stop offset="0.86"/>
</radialGradient>
<radialGradient id="paint22_radial_2307_14852" cx="0" cy="0" r="1" gradientUnits="userSpaceOnUse" gradientTransform="translate(107.657 860.068) rotate(130.313) scale(159.663 4.37542)">
<stop stop-color="#B351B0"/>
<stop offset="0.04" stop-color="#A44AA1"/>
<stop offset="0.19" stop-color="#723370"/>
<stop offset="0.34" stop-color="#492148"/>
<stop offset="0.48" stop-color="#291228"/>
<stop offset="0.62" stop-color="#120812"/>
<stop offset="0.74" stop-color="#040204"/>
<stop offset="0.86"/>
</radialGradient>
<radialGradient id="paint23_radial_2307_14852" cx="0" cy="0" r="1" gradientUnits="userSpaceOnUse" gradientTransform="translate(116.034 871.778) rotate(-138.223) scale(159.805 4.37747)">
<stop stop-color="#B351B0"/>
<stop offset="0.04" stop-color="#A44AA1"/>
<stop offset="0.19" stop-color="#723370"/>
<stop offset="0.34" stop-color="#492148"/>
<stop offset="0.48" stop-color="#291228"/>
<stop offset="0.62" stop-color="#120812"/>
<stop offset="0.74" stop-color="#040204"/>
<stop offset="0.86"/>
</radialGradient>
<radialGradient id="paint24_radial_2307_14852" cx="0" cy="0" r="1" gradientUnits="userSpaceOnUse" gradientTransform="translate(103.252 865.471) rotate(-96.7101) scale(75.2526 2.03686)">
<stop stop-color="#B351B0"/>
<stop offset="0.04" stop-color="#A44AA1"/>
<stop offset="0.19" stop-color="#723370"/>
<stop offset="0.34" stop-color="#492148"/>
<stop offset="0.48" stop-color="#291228"/>
<stop offset="0.62" stop-color="#120812"/>
<stop offset="0.74" stop-color="#040204"/>
<stop offset="0.86"/>
</radialGradient>
<radialGradient id="paint25_radial_2307_14852" cx="0" cy="0" r="1" gradientUnits="userSpaceOnUse" gradientTransform="translate(117.219 874.176) rotate(173.13) scale(74.6252 2.04151)">
<stop stop-color="#B351B0"/>
<stop offset="0.04" stop-color="#A44AA1"/>
<stop offset="0.19" stop-color="#723370"/>
<stop offset="0.34" stop-color="#492148"/>
<stop offset="0.48" stop-color="#291228"/>
<stop offset="0.62" stop-color="#120812"/>
<stop offset="0.74" stop-color="#040204"/>
<stop offset="0.86"/>
</radialGradient>
<radialGradient id="paint26_radial_2307_14852" cx="0" cy="0" r="1" gradientUnits="userSpaceOnUse" gradientTransform="translate(121 879.066) rotate(-139.183) scale(42.1253 13.4413)">
<stop stop-color="#B351B0"/>
<stop offset="0.04" stop-color="#A44AA1"/>
<stop offset="0.19" stop-color="#723370"/>
<stop offset="0.34" stop-color="#492148"/>
<stop offset="0.48" stop-color="#291228"/>
<stop offset="0.62" stop-color="#120812"/>
<stop offset="0.74" stop-color="#040204"/>
<stop offset="0.86"/>
</radialGradient>
<radialGradient id="paint27_radial_2307_14852" cx="0" cy="0" r="1" gradientUnits="userSpaceOnUse" gradientTransform="translate(130.778 866.284) rotate(-54.3688) scale(43.0153 13.4488)">
<stop stop-color="#B351B0"/>
<stop offset="0.04" stop-color="#A44AA1"/>
<stop offset="0.19" stop-color="#723370"/>
<stop offset="0.34" stop-color="#492148"/>
<stop offset="0.48" stop-color="#291228"/>
<stop offset="0.62" stop-color="#120812"/>
<stop offset="0.74" stop-color="#040204"/>
<stop offset="0.86"/>
</radialGradient>
<radialGradient id="paint28_radial_2307_14852" cx="0" cy="0" r="1" gradientUnits="userSpaceOnUse" gradientTransform="translate(117.606 861.356) rotate(-96.7001) scale(19.2161 6.01392)">
<stop stop-color="#B351B0"/>
<stop offset="0.04" stop-color="#A44AA1"/>
<stop offset="0.19" stop-color="#723370"/>
<stop offset="0.34" stop-color="#492148"/>
<stop offset="0.48" stop-color="#291228"/>
<stop offset="0.62" stop-color="#120812"/>
<stop offset="0.74" stop-color="#040204"/>
<stop offset="0.86"/>
</radialGradient>
<radialGradient id="paint29_radial_2307_14852" cx="0" cy="0" r="1" gradientUnits="userSpaceOnUse" gradientTransform="translate(116.584 865.061) rotate(176.036) scale(18.8351 6.00218)">
<stop stop-color="#B351B0"/>
<stop offset="0.04" stop-color="#A44AA1"/>
<stop offset="0.19" stop-color="#723370"/>
<stop offset="0.34" stop-color="#492148"/>
<stop offset="0.48" stop-color="#291228"/>
<stop offset="0.62" stop-color="#120812"/>
<stop offset="0.74" stop-color="#040204"/>
<stop offset="0.86"/>
</radialGradient>
<clipPath id="clip0_2307_14852">
<rect width="669" height="484.778" fill="white" transform="translate(0 634.099)"/>
</clipPath>
</defs>
</svg>
