<svg width="73" height="72" viewBox="0 0 73 72" fill="none" xmlns="http://www.w3.org/2000/svg">
<path d="M68.832 5.0625H60.4766V1.54688C60.4766 1.16016 60.1496 0.84375 59.75 0.84375H13.25C12.8504 0.84375 12.5234 1.16016 12.5234 1.54688V5.0625H4.16797C3.10814 5.0625 2.09172 5.46993 1.3423 6.19517C0.592891 6.92041 0.171875 7.90405 0.171875 8.92969V21.9375C0.171875 29.1182 5.62109 35.0859 12.7232 36.1758C14.131 46.3887 22.6045 54.4307 33.2305 55.5557V64.8018H15.4297C13.8222 64.8018 12.5234 66.0586 12.5234 67.6143V70.4531C12.5234 70.8398 12.8504 71.1562 13.25 71.1562H59.75C60.1496 71.1562 60.4766 70.8398 60.4766 70.4531V67.6143C60.4766 66.0586 59.1778 64.8018 57.5703 64.8018H39.7695V55.5557C50.3955 54.4307 58.8691 46.3887 60.2768 36.1758C67.3789 35.0859 72.8281 29.1182 72.8281 21.9375V8.92969C72.8281 7.90405 72.4071 6.92041 71.6577 6.19517C70.9083 5.46993 69.8919 5.0625 68.832 5.0625ZM6.71094 21.9375V11.3906H12.5234V29.6367C10.8364 29.1152 9.36428 28.0885 8.31954 26.7046C7.27479 25.3207 6.71148 23.6514 6.71094 21.9375ZM53.9375 33.1875C53.9375 37.5029 52.2028 41.5723 49.0423 44.6221C45.8817 47.6807 41.6858 49.3594 37.2266 49.3594H35.7734C31.3142 49.3594 27.1092 47.6807 23.9577 44.6221C20.7972 41.5635 19.0625 37.5029 19.0625 33.1875V7.17188H53.9375V33.1875ZM66.2891 21.9375C66.2891 25.541 63.846 28.5996 60.4766 29.6367V11.3906H66.2891V21.9375Z" fill="#929292"/>
</svg>
