<svg width="642" height="692" viewBox="0 0 642 692" fill="none" xmlns="http://www.w3.org/2000/svg">
<path d="M204.28 291.908C209.981 334.101 275.345 381.664 292.269 391.741C296.17 394.064 79.9173 484.179 74.4786 470.587C70.439 460.491 24.9261 233.933 24.8623 221.133C24.7594 200.565 22.6315 157.91 41.8609 150.484C47.3254 148.374 154.205 142.338 166.596 146.944C206.126 161.639 198.646 250.204 204.28 291.908Z" fill="#C24260"/>
<path d="M98.3753 209.592C101.206 228.338 104.956 246.946 109.303 265.411C113.623 283.884 118.644 302.197 124.283 320.324C127.167 329.368 130.149 338.383 133.389 347.31C136.685 356.215 140.047 365.099 143.812 373.823C147.557 382.551 151.507 391.195 155.853 399.642C160.268 408.05 164.876 416.361 170.046 424.318C160.778 407.764 152.989 390.494 145.954 372.944C138.976 355.367 132.76 337.494 127.114 319.441C124.244 310.429 121.591 301.348 118.997 292.25C116.374 283.159 113.945 274.014 111.543 264.859C109.174 255.696 106.872 246.513 104.681 237.302C102.438 228.1 100.38 218.856 98.3753 209.592Z" fill="#222929"/>
<path d="M84.8142 233.04C85.1704 235.674 87.6 237.523 90.2405 237.167C92.8811 236.812 94.7342 234.389 94.378 231.755C94.0218 229.121 91.5922 227.272 88.9516 227.628C86.311 227.983 84.459 230.406 84.8142 233.04Z" stroke="#222929" stroke-width="2.8844" stroke-miterlimit="10"/>
<path d="M97.9949 288.836C98.3511 291.47 100.781 293.318 103.421 292.963C106.062 292.608 107.915 290.184 107.559 287.55C107.202 284.916 104.773 283.068 102.132 283.423C99.4917 283.779 97.6387 286.202 97.9949 288.836Z" stroke="#222929" stroke-width="2.8844" stroke-miterlimit="10"/>
<path d="M116.856 346.575C114.191 346.575 112.03 344.42 112.03 341.762C112.03 339.104 114.191 336.949 116.856 336.949C119.52 336.949 121.681 339.104 121.681 341.762C121.681 344.42 119.52 346.575 116.856 346.575Z" stroke="#222929" stroke-width="2.8844" stroke-miterlimit="10"/>
<path d="M132.721 393.594C133.078 396.228 135.507 398.077 138.148 397.721C140.788 397.366 142.641 394.943 142.285 392.309C141.929 389.675 139.5 387.826 136.859 388.182C134.217 388.537 132.365 390.959 132.721 393.594Z" stroke="#222929" stroke-width="2.8844" stroke-miterlimit="10"/>
<path d="M-118.453 652.89C184.063 555.144 361.268 492.121 657.392 376.527C554.174 306.237 630.185 358.958 528.538 286.425C366.434 347.203 88.175 445.7 -75.8412 501.142C-108.399 621.502 -83.2544 533.272 -118.453 652.89Z" fill="#222929"/>
<path d="M657.392 376.527L661.615 407.785L-113.198 691.785L-118.452 652.89L657.392 376.527Z" fill="#393D3E"/>
<mask id="mask0_2251_20180" style="mask-type:luminance" maskUnits="userSpaceOnUse" x="-184" y="269" width="893" height="387">
<path d="M-183.169 655.095C117.243 558.029 414.67 452.034 708.732 337.243C640.562 315.187 572.551 292.655 504.7 269.643C315.033 341.362 124.018 409.435 -68.2701 473.836C-106.142 534.525 -144.443 594.943 -183.169 655.095Z" fill="white"/>
</mask>
<g mask="url(#mask0_2251_20180)">
<path d="M-149.499 758.928C153.017 661.181 452.526 554.445 748.648 438.85C645.431 368.56 542.99 297.152 441.344 224.619C279.239 285.397 116.159 343.516 -47.8575 398.958C-80.4144 519.319 -114.302 639.31 -149.499 758.928Z" fill="#EBD9D1"/>
</g>
<mask id="mask1_2251_20180" style="mask-type:luminance" maskUnits="userSpaceOnUse" x="-184" y="269" width="893" height="387">
<path d="M-183.169 655.095C117.243 558.029 414.67 452.034 708.732 337.243C640.562 315.187 572.551 292.655 504.7 269.643C315.033 341.362 124.018 409.435 -68.2701 473.836C-106.142 534.525 -144.443 594.943 -183.169 655.095Z" fill="white"/>
</mask>
<g mask="url(#mask1_2251_20180)">
<path d="M413.819 221.237C534.767 313.516 656.918 404.202 780.239 493.301" stroke="#222929" stroke-width="2.8844" stroke-miterlimit="10"/>
<path d="M396.877 227.555C511.847 322.111 627.973 415.244 745.23 506.961" stroke="#222929" stroke-width="2.8844" stroke-miterlimit="10"/>
<path d="M379.929 233.853C488.919 330.67 599.014 426.229 710.192 520.536" stroke="#222929" stroke-width="2.8844" stroke-miterlimit="10"/>
<path d="M362.973 240.132C465.981 339.195 570.036 437.159 675.119 534.029" stroke="#222929" stroke-width="2.8844" stroke-miterlimit="10"/>
<path d="M346.009 246.39C443.038 347.684 541.045 448.033 640.017 547.438" stroke="#222929" stroke-width="2.8844" stroke-miterlimit="10"/>
<path d="M329.039 252.63C420.088 356.14 512.039 458.851 604.883 560.764" stroke="#222929" stroke-width="2.8844" stroke-miterlimit="10"/>
<path d="M312.062 258.849C397.131 364.564 483.019 469.616 569.717 574.006" stroke="#222929" stroke-width="2.8844" stroke-miterlimit="10"/>
<path d="M295.078 265.047C374.169 372.954 453.985 480.325 534.521 587.164" stroke="#222929" stroke-width="2.8844" stroke-miterlimit="10"/>
<path d="M278.084 271.226C351.197 381.313 424.933 490.984 499.291 600.238" stroke="#222929" stroke-width="2.8844" stroke-miterlimit="10"/>
<path d="M261.085 277.386C328.22 389.641 395.871 501.59 464.032 613.229" stroke="#222929" stroke-width="2.8844" stroke-miterlimit="10"/>
<path d="M244.079 283.524C305.239 397.94 366.795 512.143 428.744 626.136" stroke="#222929" stroke-width="2.8844" stroke-miterlimit="10"/>
<path d="M227.066 289.644C282.249 406.21 337.703 522.648 393.425 638.959" stroke="#222929" stroke-width="2.8844" stroke-miterlimit="10"/>
<path d="M210.044 295.743C259.249 414.452 308.593 533.104 358.073 651.698" stroke="#222929" stroke-width="2.8844" stroke-miterlimit="10"/>
<path d="M193.016 301.822C236.243 422.666 279.469 543.509 322.693 664.353" stroke="#222929" stroke-width="2.8844" stroke-miterlimit="10"/>
<path d="M175.98 307.882C213.225 430.853 250.325 553.867 287.281 676.925" stroke="#222929" stroke-width="2.8844" stroke-miterlimit="10"/>
<path d="M158.939 313.922C190.199 439.014 221.167 564.177 251.843 689.413" stroke="#222929" stroke-width="2.8844" stroke-miterlimit="10"/>
<path d="M141.889 319.942C167.158 447.148 191.986 574.439 216.371 701.816" stroke="#222929" stroke-width="2.8844" stroke-miterlimit="10"/>
<path d="M124.832 325.942C144.107 455.254 162.785 584.653 180.871 714.135" stroke="#222929" stroke-width="2.8844" stroke-miterlimit="10"/>
<path d="M107.767 331.921C121.04 463.332 133.564 594.816 145.341 726.37" stroke="#222929" stroke-width="2.8844" stroke-miterlimit="10"/>
<path d="M90.6979 337.881C97.9608 471.384 104.321 604.932 109.783 738.521" stroke="#222929" stroke-width="2.8844" stroke-miterlimit="10"/>
<path d="M73.6189 343.821C74.8646 479.407 75.0551 614.998 74.1944 750.586" stroke="#222929" stroke-width="2.8844" stroke-miterlimit="10"/>
<path d="M56.5342 349.741C51.7533 487.402 45.7649 625.012 38.5771 762.569" stroke="#222929" stroke-width="2.8844" stroke-miterlimit="10"/>
<path d="M39.4414 355.64C28.6268 495.365 16.4523 634.975 2.93023 774.465" stroke="#222929" stroke-width="2.8844" stroke-miterlimit="10"/>
<path d="M22.3438 361.52C5.48515 503.299 -12.8827 644.887 -32.7432 786.278" stroke="#222929" stroke-width="2.8844" stroke-miterlimit="10"/>
<path d="M5.2373 367.38C-17.6756 511.201 -42.2439 654.745 -68.447 798.006" stroke="#222929" stroke-width="2.8844" stroke-miterlimit="10"/>
<path d="M768.219 498.001C777.836 494.245 782.643 492.362 792.255 488.59C712.228 432.307 632.675 375.366 553.599 317.76C547.168 320.208 543.952 321.431 537.519 323.872C613.953 382.53 690.854 440.572 768.219 498.001Z" fill="#222929"/>
<path d="M733.2 511.631C742.827 507.898 747.637 506.027 757.258 502.278C681.108 444.327 605.416 385.786 530.187 326.651C523.752 329.089 520.534 330.307 514.097 332.737C586.683 392.916 659.719 452.546 733.2 511.631Z" fill="#222929"/>
<path d="M698.15 525.179C707.785 521.468 712.601 519.609 722.229 515.883C649.965 456.283 578.141 396.158 506.76 335.507C500.322 337.935 497.102 339.146 490.661 341.568C559.396 403.253 628.56 464.456 698.15 525.179Z" fill="#222929"/>
<path d="M557.944 578.417C567.612 574.798 572.446 572.985 582.109 569.349C525.444 503.34 469.115 437.047 413.122 370.47C406.668 372.857 403.441 374.048 396.984 376.427C450.325 444.005 503.979 511.335 557.944 578.417Z" fill="#222929"/>
<path d="M522.736 591.548C532.415 587.952 537.252 586.15 546.923 582.538C494.189 514.969 441.756 447.169 389.625 379.137C383.167 381.514 379.938 382.7 373.478 385.069C422.956 454.092 472.709 522.918 522.736 591.548Z" fill="#222929"/>
<path d="M381.235 643.362C390.947 639.858 395.801 638.102 405.507 634.583C368.633 560.954 331.883 487.264 295.259 413.51C288.786 415.844 285.549 417.01 279.074 419.337C313.038 494.052 347.092 568.727 381.235 643.362Z" fill="#222929"/>
<path d="M345.876 656.073C355.596 652.591 360.454 650.848 370.168 647.351C337.27 572.262 304.447 497.14 271.694 421.987C265.218 424.311 261.979 425.471 255.499 427.788C285.589 503.897 315.714 579.992 345.876 656.073Z" fill="#222929"/>
<path d="M310.482 668.699C320.209 665.242 325.073 663.508 334.795 660.035C305.882 583.506 276.988 506.97 248.113 430.426C241.632 432.739 238.391 433.894 231.909 436.2C258.119 513.692 284.311 591.192 310.482 668.699Z" fill="#222929"/>
<path d="M168.935 718.256C178.695 714.891 183.574 713.203 193.329 709.822C180.392 627.757 167.239 545.724 153.871 463.728C147.376 465.999 144.127 467.134 137.63 469.398C148.322 552.319 158.756 635.271 168.935 718.256Z" fill="#222929"/>
<path d="M133.396 730.462C143.164 727.12 148.047 725.445 157.811 722.087C148.891 638.687 139.696 555.318 130.225 471.978C123.726 474.239 120.476 475.369 113.975 477.623C120.767 561.878 127.24 646.158 133.396 730.462Z" fill="#222929"/>
<path d="M-9.42038 778.566C0.380177 775.317 5.27943 773.689 15.0748 770.423C22.3233 681.88 29.054 593.3 35.2617 504.678C28.7483 506.897 25.491 508.005 18.9755 510.218C10.0716 599.726 0.604599 689.175 -9.42038 778.566Z" fill="#222929"/>
<path d="M-45.1059 790.35C-35.2971 787.124 -30.3948 785.507 -20.5912 782.265C-9.29994 692.491 1.41375 602.648 11.5479 512.738C5.03131 514.947 1.77203 516.05 -4.74761 518.251C-17.581 609.041 -31.0351 699.741 -45.1059 790.35Z" fill="#222929"/>
</g>
<path d="M64.2406 138.051C69.5722 150.032 96.0574 181.788 97.9125 181.996C99.3785 182.161 129.507 151.592 147.689 127.271C146.08 129.423 123.281 73.836 112.607 78.9981C104.108 83.1097 72.3497 129.235 64.2406 138.051Z" fill="#C17B6F"/>
<path d="M347.321 288.917C359.058 289.301 370.536 297.676 382.478 303.152C388.722 306.016 400.134 314.349 413.375 325.085C422.609 329.336 434.009 335.238 437.808 337.25C444.23 340.65 453.22 351.253 454.061 358.457C450.868 362.536 437.468 344.662 428.249 343.576C429.539 344.603 451.878 365.051 450.931 372.241C443.522 381.148 424.56 353.386 423.334 352.788C426.134 359.478 433.202 376.634 433.836 381.318C434.516 386.354 428.701 391.877 424.674 383.615C422.273 378.685 414.704 350.611 405.821 350.134C404.267 359.169 417.943 384.02 417.947 390.314C417.95 394.869 414.46 395.594 412.242 394.377C405.45 390.649 388.018 346.595 378.672 346.07C377.342 346.671 379.245 354.24 380.43 359.797C382.898 371.371 379.57 378.945 378.248 376.862C371.462 366.163 364.989 359.253 363.003 349.498C361.077 340.033 361.281 336.254 361.397 332.339C361.528 327.921 310.056 303.505 310.05 303.085C310.046 302.601 336.048 288.548 347.321 288.917Z" fill="#C17B6F"/>
<path d="M272.256 240.348C325.74 271.593 397.493 293.178 392.434 300.24C388.861 305.227 353.3 325.641 345.245 325.511C327.334 325.223 238.46 285.101 218.583 270.045C210.747 264.109 130.991 180.736 127.265 170.842C124.581 163.712 158.366 152.135 165.381 147.25C172.962 141.971 247.144 225.678 272.256 240.348Z" fill="#C24260"/>
<path d="M204.336 256.278C204.527 249.012 204.224 241.753 203.689 234.513C203.162 227.272 202.321 220.052 201.214 212.865C200.053 205.688 198.647 198.532 196.633 191.514C195.639 188.004 194.484 184.534 193.124 181.142C191.718 177.773 190.128 174.445 188.013 171.476C191.078 178.066 192.79 185.073 194.387 192.08C195.144 195.595 195.874 199.119 196.487 202.668C197.145 206.207 197.745 209.76 198.283 213.325C198.878 216.88 199.384 220.451 199.893 224.025C200.433 227.593 200.884 231.176 201.395 234.754C202.358 241.917 203.3 249.088 204.336 256.278Z" fill="#222929"/>
<path d="M42.6777 409.683C36.5143 419.653 81.6411 424.806 83.2975 441.747C81.7482 451.772 83.9646 478.439 84.0768 484.48C84.2117 491.73 87.5049 513.373 93.061 518.05C98.9382 519.439 91.8833 481.937 92.5082 480.358C92.6533 481.998 103.272 520.148 109.804 523.333C121.341 522.093 104.814 490.324 104.992 488.974C109.035 494.999 119.774 510.75 123.339 513.864C127.171 517.211 134.999 515.427 130.318 507.515C127.526 502.794 108.246 480.992 112.755 473.343C121.163 477.043 134.375 502.142 139.632 505.623C143.437 508.142 145.971 505.642 146.179 503.125C146.815 495.418 119.633 456.586 124.356 448.526C125.593 447.753 130.866 453.515 134.856 457.571C143.164 466.018 151.332 467.434 150.321 465.185C145.13 453.631 142.932 444.431 135.877 437.393C129.031 430.562 125.76 428.644 122.425 426.578C118.66 424.245 75.454 386.759 75.106 386.522C74.7045 386.249 48.5972 400.106 42.6777 409.683Z" fill="#C17B6F"/>
<path d="M-7.28396 180.165C-17.6003 193.701 -67.5852 305.676 -60.4849 332.585C-53.1664 360.323 74.8029 437.818 79.7145 436.454C84.1155 435.232 104.229 409.103 114.001 400.759C61.743 374.689 37.3425 350.685 -3.83627 309.338C10.1192 279.567 82.5208 166.602 55.1822 153.829C30.0034 142.066 9.36154 158.326 -7.28396 180.165Z" fill="#C24260"/>
<path d="M28.5866 249.654C28.6566 245.58 28.4353 241.545 28.1121 237.523C27.8073 233.498 27.3307 229.498 26.8211 225.501L25.9347 219.523C25.5827 217.538 25.2872 215.544 24.8805 213.567C24.1259 209.603 23.2664 205.654 22.1144 201.743C22.0413 205.818 22.2606 209.853 22.5838 213.875C22.7166 215.889 22.9606 217.889 23.1479 219.896L23.8799 225.895C24.4482 229.884 25.0504 233.868 25.8246 237.829C26.5802 241.795 27.4378 245.744 28.5866 249.654Z" fill="#222929"/>
<path d="M134.062 46.2537C119.644 58.3268 111.491 77.4771 112.794 96.2094C114.129 115.404 118.078 143.203 137.368 143.166C169.326 143.104 227.999 87.79 216.131 55.817C204.372 24.1367 154.976 28.7423 134.062 46.2537Z" fill="#C17B6F"/>
<path d="M187.949 71.4833C183.885 75.2478 180.49 80.0906 180.631 85.2681C180.772 90.4467 185.684 95.5533 191.396 94.8438C186.91 100.173 184.557 107.311 186.814 113.537C189.071 119.762 196.746 124.314 203.823 122.457C201.421 122.274 200.055 125.465 201.372 127.261C202.691 129.057 205.378 129.549 207.795 129.512C217.157 129.366 225.65 123.479 230.745 116.267C235.84 109.055 238.149 100.62 240.376 92.3608C241.345 88.7677 240.809 83.3725 236.738 83.5892C249.641 73.9036 243.534 55.0275 235.734 52.7355C238.788 38.3776 234.703 29.5916 221.601 26.3877C219.62 25.9031 217.505 25.6268 215.82 24.5866C213.868 23.381 212.8 21.3417 211.262 19.7223C206.532 14.7388 190.806 4.63532 175.989 11.2166C156.436 19.9009 175.639 30.0968 170.843 43.1126C166.338 55.3386 177.429 65.9011 187.949 71.4833Z" fill="#222929"/>
<path d="M104.014 33.4968C102.452 28.6551 104.968 23.0021 108.684 20.6803C112.4 18.3596 116.895 18.6995 121.007 19.8968C120.875 14.5961 124.691 10.1353 128.91 9.16592C133.129 8.19654 137.523 10.0347 141.292 12.7046C142.503 5.33771 152.61 -0.861569 158.895 0.230006C198.74 7.1481 184.299 36.9995 173.52 46.835C153.585 65.0221 137.649 45.3019 134.076 60.3303C133.146 64.2396 125.835 65.7224 120.321 70.1575C112.123 76.7522 104.968 85.763 104.968 85.763C78.6811 51.8667 104.014 33.4968 104.014 33.4968Z" fill="#222929"/>
<path d="M108.852 87.4071C106.542 86.3967 103.668 66.7709 104.645 60.2502C105.622 53.7305 109.877 46.9572 116.423 46.0526C121.929 45.2927 127.383 49.1743 129.567 54.2727C131.751 59.3712 110.512 88.1331 108.852 87.4071Z" fill="#C17B6F"/>
<path d="M169.881 78.2289C169.881 78.2289 158.295 66.9774 154.796 66.1631C151.297 65.3487 145.739 69.4963 145.739 69.4963C145.739 69.4963 152.578 68.6091 154.272 69.5312C156.306 70.6392 166.748 82.2646 166.748 82.2646L169.881 78.2289Z" fill="#222929"/>
<path d="M158.296 85.5046C158.296 85.5046 148.819 85.8373 144.824 73.563C142.687 84.4356 158.517 89.5135 158.517 89.5135L158.296 85.5046Z" fill="#222929"/>
<path d="M182.84 89.1877C182.84 89.1877 197.651 95.6602 199.724 98.5868C201.798 101.513 200.036 108.212 200.036 108.212C200.036 108.212 198.287 101.558 196.793 100.339C194.998 98.8753 180.271 93.6002 180.271 93.6002L182.84 89.1877Z" fill="#222929"/>
<path d="M179.782 102.189C179.782 102.189 183.04 111.074 195.943 110.146C186.648 116.212 175.975 103.495 175.975 103.495L179.782 102.189Z" fill="#222929"/>
<path d="M164.34 126.884C164.34 126.884 149.88 120.721 143.186 111.556C143.186 111.556 140.059 138.115 164.34 126.884Z" fill="#EBD9D1"/>
<path d="M172.291 96.0488L161.42 118.194L164.16 119.333L172.291 96.0488Z" fill="#222929"/>
<path d="M110.149 98.9597C109.802 103.432 110.114 107.932 110.798 112.373C111.476 116.82 112.646 121.211 114.328 125.446C115.218 127.543 116.216 129.606 117.401 131.578C118.644 133.512 120.012 135.395 121.669 137.023C124.871 140.369 129.344 142.617 133.842 142.836C129.585 141.369 126.041 138.805 123.385 135.469C120.702 132.167 118.689 128.335 117.077 124.331C116.223 122.345 115.54 120.281 114.875 118.209C114.184 116.142 113.631 114.026 113.059 111.908C111.969 107.655 111.028 103.346 110.149 98.9597Z" fill="#222929"/>
<path d="M132.425 145.828L99.2541 175.436L72.3108 151.107C72.3108 151.107 84.056 197.86 98.3749 209.592C114.495 195.802 133.948 159.201 132.425 145.828Z" fill="#EBD9D1"/>
<path d="M99.2536 175.436C98.5618 178.266 98.1809 181.105 97.871 183.944C97.5797 186.785 97.4057 189.629 97.3305 192.476C97.2553 195.322 97.2831 198.171 97.4273 201.022C97.5889 203.875 97.8257 206.729 98.3744 209.592C99.0693 206.762 99.4523 203.923 99.7611 201.083C100.051 198.243 100.226 195.398 100.297 192.552C100.368 189.705 100.341 186.857 100.197 184.005C100.033 181.152 99.7982 178.297 99.2536 175.436Z" fill="#222929"/>
<path d="M99.252 175.436C97.7448 175.983 96.4364 176.746 95.1876 177.574C93.9481 178.412 92.7869 179.335 91.6925 180.331C90.5982 181.327 89.5739 182.4 88.6278 183.558C87.69 184.724 86.8129 185.958 86.1375 187.411C87.6478 186.868 88.9573 186.106 90.2039 185.276C91.4434 184.438 92.6046 183.515 93.6959 182.516C94.7871 181.516 95.8114 180.444 96.7575 179.286C97.6964 178.118 98.5735 176.886 99.252 175.436Z" fill="#222929"/>
<path d="M111.912 189.674C111.317 188.081 110.501 186.683 109.617 185.344C108.726 184.014 107.746 182.76 106.693 181.573C105.64 180.385 104.508 179.265 103.29 178.223C102.064 177.188 100.769 176.213 99.2517 175.436C99.8436 177.032 100.66 178.43 101.543 179.768C102.436 181.099 103.415 182.353 104.471 183.538C105.527 184.723 106.658 185.843 107.876 186.885C109.104 187.919 110.398 188.894 111.912 189.674Z" fill="#222929"/>
<path d="M166.035 164.965C151.896 169.094 146.526 167.588 135.54 171.293C138.876 175.326 148.558 178.588 154.002 184.68C155.639 186.512 111.593 197.529 98.3732 209.591C131.047 164.873 129.498 151.564 132.422 145.827C135.015 140.743 159.247 156.975 166.035 164.965Z" fill="#222929"/>
<path d="M32.8564 151.545C35.4517 156.076 58.7301 154.615 59.3725 155.336C60.8106 156.95 49.7171 159.82 44.3669 168.369C63.4605 187.719 78.2087 195.972 98.375 209.593C87.0519 190.534 78.501 150.276 64.2408 138.052C60.1837 139.154 31.7879 149.681 32.8564 151.545Z" fill="#222929"/>
</svg>
