<svg width="410" height="161" viewBox="0 0 410 161" fill="none" xmlns="http://www.w3.org/2000/svg">
<rect width="410" height="161" rx="38" fill="white"/>
<g clip-path="url(#clip0_2109_16035)">
<path d="M375.413 45.5099C374.277 43.8719 372.985 42.7799 367.425 42.3509C365.976 42.2339 361.16 42.0779 353.093 42.0779C331.87 42.0779 317.461 48.5129 310.099 61.2269C312.136 48.4349 299.645 42.0389 272.705 42.0389C241.027 42.0389 221.253 54.7919 213.383 80.2979C210.485 87.7469 210.172 95.9759 212.482 103.62L205.003 104.127C199.169 104.556 191.455 104.985 186.756 104.985C175.166 104.985 167.961 103.035 165.181 99.1349C162.675 95.6249 162.949 89.1509 165.846 79.7129C170.663 64.0349 182.645 57.0149 201.792 57.0149C211.699 57.0149 221.37 58.0679 221.37 58.0679C222.545 57.8729 223.367 56.7809 223.172 55.5719C223.172 55.5329 223.172 55.4939 223.133 55.4549L222.937 53.9729L222.271 48.7079C221.84 45.2369 219.256 43.2089 214.557 42.5849C210.25 42.3119 207.078 42.0779 202.34 42.0779H202.066C177.045 42.1169 159.62 50.3459 149.753 66.7259C153.355 50.3069 141.765 42.0779 115.021 42.0779C104.331 41.8829 93.6416 42.3119 82.991 43.3649C78.9578 43.2479 75.3163 45.7439 73.8675 49.4879L71.753 56.2349C71.3615 57.4829 71.9488 58.1069 73.5542 58.1069H73.5934C74.7681 57.9509 79.3102 57.5219 87.0633 56.8979C97.3223 56.0789 104.88 55.6499 109.892 55.6499C124.654 55.6499 130.84 59.3549 128.53 66.7259C128.099 68.2859 126.807 69.4949 125.202 69.7679C111.262 72.0689 100.181 73.7459 91.997 74.7599C68.9337 77.6849 55.6205 84.8609 52.0572 96.2879C47.1627 112.005 59.4578 119.844 89.0211 119.844C101.434 120 113.846 119.142 126.142 117.309C131.898 116.334 134.834 114.852 135.97 111.147L141.491 93.6359C140.904 111.147 153.199 119.961 178.337 119.961C187.069 120.117 195.762 119.727 204.416 118.752C209.584 117.855 212.051 116.724 213.187 112.863L214.283 107.364C219.648 115.71 231.395 119.883 249.563 119.883C268.711 119.883 279.87 119.337 283.042 118.284C285.274 117.816 287.114 116.256 287.937 114.15C288.054 113.799 288.133 113.409 288.172 113.058L290.482 105.609C290.873 104.322 290.286 103.698 288.72 103.737L276.464 104.322C268.28 104.79 261.898 105.024 257.277 104.985C251.247 105.297 245.217 104.712 239.343 103.191C234.645 101.592 231.747 96.9119 232.413 92.0369L271.217 87.0839C288.602 84.8609 300.271 79.5179 306.145 71.0159L292.949 116.763C292.675 117.465 292.792 118.245 293.223 118.83C293.928 119.493 294.828 119.805 295.768 119.688H311.822C313.663 119.961 315.464 118.83 315.973 117.036L330.148 67.6229C332.027 61.1099 337.979 57.9509 348.434 57.9509C357.87 57.9509 364.958 58.0289 369.5 58.2239C369.617 58.2239 369.735 58.2239 369.852 58.2239C371.38 58.2239 372.75 57.2099 373.142 55.7669L375.608 48.9809C376.196 47.8109 376.078 46.5239 375.413 45.5099ZM116.509 104.946C109.343 105.843 102.099 106.233 94.8946 106.116C78.5663 106.116 71.4398 102.84 73.5151 96.2489C75.003 91.5299 79.2711 88.6829 86.3584 87.7079L123.479 82.7159L116.509 104.946ZM288.133 64.8929C286.566 69.9629 279.322 73.4339 266.361 75.3059L235.428 79.7129L236.211 77.1779C237.738 70.3919 241.575 64.3859 247.136 60.1349C251.834 57.1319 259.47 55.6109 270.081 55.6109C284.021 55.6109 290.051 58.7309 288.133 64.8929Z" fill="#80C343"/>
</g>
<defs>
<clipPath id="clip0_2109_16035">
<rect width="325" height="78" fill="white" transform="translate(51 42)"/>
</clipPath>
</defs>
</svg>
